<svg width="32" height="33" viewBox="0 0 32 33" fill="none" xmlns="http://www.w3.org/2000/svg">
<path d="M2.21674 6.28038L26.7448 30.9296C27.7124 31.902 29.2812 31.902 30.2488 30.9296C31.2164 29.9572 31.2164 28.3806 30.2488 27.4083L5.72076 2.75907C4.75316 1.78669 3.18434 1.78669 2.21674 2.75907C1.24914 3.73145 1.24914 5.30801 2.21674 6.28038Z" fill="#E2DAD6"/>
<path d="M26.2801 2.45075L1.75201 27.0999C0.784406 28.0723 0.784406 29.6489 1.75201 30.6213C2.71961 31.5936 4.28842 31.5936 5.25602 30.6213L29.7841 5.97206C30.7517 4.99968 30.7517 3.42313 29.7841 2.45075C28.8165 1.47837 27.2477 1.47837 26.2801 2.45075Z" fill="#E2DAD6"/>
</svg>
