<svg width="10" height="8" viewBox="0 0 10 8" fill="none" xmlns="http://www.w3.org/2000/svg">
<path d="M8.87562 1.44092H0.515625L4.60274 4.48092L8.87562 1.44092Z" fill="white"/>
<path fill-rule="evenodd" clip-rule="evenodd" d="M0.0631711 1.29151C0.127549 1.09709 0.309291 0.96582 0.514094 0.96582H8.87409C9.08075 0.96582 9.26369 1.09943 9.32657 1.29628C9.38945 1.49314 9.31784 1.70806 9.14946 1.82786L4.87657 4.86786C4.70871 4.98728 4.48301 4.9849 4.31772 4.86195L0.230608 1.82195C0.0662783 1.69972 -0.00120647 1.48593 0.0631711 1.29151ZM1.9486 1.91582L4.60741 3.89345L7.38708 1.91582H1.9486Z" fill="white"/>
<path d="M4.1542 5.99481L0.515625 3.7207V7.5207H8.87562V3.7207L5.23705 5.99481C4.90579 6.20185 4.48546 6.20185 4.1542 5.99481Z" fill="white"/>
<path fill-rule="evenodd" clip-rule="evenodd" d="M0.283828 3.30515C0.434856 3.22144 0.619415 3.22629 0.765842 3.31781L4.40442 5.59191C4.58165 5.70269 4.80654 5.70269 4.98377 5.59191L8.62234 3.31781C8.76877 3.22629 8.95333 3.22144 9.10436 3.30515C9.25539 3.38886 9.34909 3.54793 9.34909 3.72061V7.52061C9.34909 7.78294 9.13643 7.99561 8.87409 7.99561H0.514093C0.251758 7.99561 0.039093 7.78294 0.039093 7.52061V3.72061C0.039093 3.54793 0.1328 3.38886 0.283828 3.30515ZM0.989093 4.57762V7.04561H8.39909V4.57762L5.48727 6.39751C5.00198 6.70082 4.38621 6.70082 3.90092 6.39751L0.989093 4.57762Z" fill="white"/>
</svg>
