<svg width="87" height="89" viewBox="0 0 87 89" fill="none" xmlns="http://www.w3.org/2000/svg">
<path d="M4 39.45L0.184617 39C0.123079 39.65 0 40.25 0 40.9L3.87692 41C3.87692 40.5 3.93846 39.95 4 39.45Z" fill="white"/>
<path d="M5 33.0811L1.36364 32C1.24242 32.3784 1.12121 32.8108 1 33.1892L4.69697 34C4.81818 33.6757 4.93939 33.4054 5 33.0811Z" fill="white"/>
<path d="M7.625 59L4 60.2632C4.5 61.2105 5 62.1053 5.5625 63L9 61.3684C8.5 60.5789 8.0625 59.7895 7.625 59Z" fill="white"/>
<path d="M5.28767 55L2 56.2C2.27397 57.1333 2.54795 58.0667 2.82192 59L6 57.4C5.72603 56.6 5.50685 55.8 5.28767 55Z" fill="white"/>
<path d="M4.64706 52L1 52.8372C1.11765 53.5349 1.29412 54.2326 1.41176 55L5 53.814C4.82353 53.186 4.70588 52.6279 4.64706 52Z" fill="white"/>
<path d="M3.81818 46L0 46.1224C0.0606061 47.102 0.121213 48.0204 0.242425 49L4 48.449C3.93939 47.5918 3.87879 46.7959 3.81818 46Z" fill="white"/>
<path d="M42.5478 2C27.9641 2 15.1517 9.24339 7.47608 20.2837L10.6054 22.2698C17.5725 12.2225 29.2631 5.68011 42.5478 5.68011C63.9215 5.68011 81.2803 22.854 81.2803 44C81.2803 65.146 63.9215 82.3199 42.5478 82.3199C28.3774 82.3199 15.9783 74.7844 9.24738 63.5689L6 65.3797C13.3804 77.7052 27.0194 86 42.5478 86C65.988 86 85 67.1906 85 44C85 20.8095 65.988 2 42.5478 2Z" fill="white"/>
<path d="M42.1997 0C23.7247 0 7.84694 11.1323 1 27.0105C1.4722 27.1863 1.88538 27.3621 2.29856 27.5964C8.90939 12.3041 24.315 1.46478 42.1997 1.46478C66.1049 1.46478 85.5833 20.7999 85.5833 44.5293C85.5833 68.2587 66.1049 87.5938 42.1997 87.5938C29.7453 87.5938 18.5305 82.3792 10.6211 74.0592C10.267 74.3522 9.91282 74.7038 9.49965 74.9381C17.7042 83.6096 29.3322 89 42.1997 89C66.9313 89 86.9999 69.0204 86.9999 44.5293C87.0589 19.9796 66.9313 0 42.1997 0Z" fill="white"/>
<path d="M73 44C73 61.1115 59.1115 75 42 75C24.8885 75 11 61.1115 11 44C11 26.8885 24.8885 13 42 13C59.1115 13 73 26.8885 73 44Z" fill="#3D3D3D"/>
<path d="M4 26C4 27.1176 3.11765 28 2 28C0.882353 28 0 27.1176 0 26C0 24.8824 0.882353 24 2 24C3.11765 24.0588 4 24.9412 4 26Z" fill="white"/>
<path d="M43 7.5C43 7.77778 42.7778 8 42.5 8C42.2222 8 42 7.77778 42 7.5C42 7.22222 42.2222 7 42.5 7C42.7778 7.05556 43 7.27778 43 7.5Z" fill="white"/>
<path d="M42 7.5C42 7.77778 41.7778 8 41.5 8C41.2222 8 41 7.77778 41 7.5C41 7.22222 41.2222 7 41.5 7C41.7778 7 42 7.22222 42 7.5Z" fill="white"/>
<path d="M41 7.47059C41 7.76471 40.8235 8 40.5294 8C40.2353 8 40 7.82353 40 7.52941C40 7.23529 40.1765 7 40.4706 7C40.7059 7 40.9412 7.23529 41 7.47059Z" fill="white"/>
<path d="M39.9916 7.44067C40.0462 7.71609 39.8277 7.93642 39.5546 7.9915C39.2815 8.04659 39.063 7.82625 39.0084 7.55084C38.9538 7.27542 39.1723 7.05508 39.4454 7C39.7185 7 39.937 7.16525 39.9916 7.44067Z" fill="white"/>
<path d="M37.9916 7.44067C38.0462 7.71609 37.8277 7.93642 37.5546 7.9915C37.2815 8.04659 37.063 7.82625 37.0084 7.55084C36.9538 7.27542 37.1723 7.05508 37.4454 7C37.7185 7 37.937 7.22033 37.9916 7.44067Z" fill="white"/>
<path d="M36.989 8.41371C37.0465 8.70134 36.8739 8.93145 36.5863 8.98898C36.2987 9.0465 36.0685 8.87392 36.011 8.58629C35.9535 8.29866 36.1261 8.06855 36.4137 8.01102C36.7013 7.9535 36.9315 8.12608 36.989 8.41371Z" fill="white"/>
<path d="M35.989 8.40718C36.0465 8.69802 35.8739 8.93069 35.5863 8.98885C35.2987 9.04702 35.0685 8.87252 35.011 8.58168C34.9535 8.29084 35.1261 8.05817 35.4137 8C35.6438 8 35.9315 8.1745 35.989 8.40718Z" fill="white"/>
<path d="M33.9889 8.37185C34.0464 8.65243 33.8738 8.93301 33.6438 8.98912C33.3562 9.04524 33.0687 8.87689 33.0111 8.65243C32.9536 8.37185 33.1262 8.09127 33.3562 8.03515C33.6438 7.92292 33.8738 8.09127 33.9889 8.37185Z" fill="white"/>
<path d="M32.9857 8.37068C33.0429 8.65038 32.9286 8.93008 32.6429 8.98602C32.3571 9.04195 32.0714 8.93008 32.0143 8.65038C31.9571 8.37068 32.0714 8.09098 32.3571 8.03504C32.6429 7.92316 32.9286 8.09098 32.9857 8.37068Z" fill="white"/>
<path d="M31.9657 9.36304C32.0753 9.63696 31.9109 9.91089 31.637 9.96568C31.363 10.0753 31.0891 9.91089 31.0343 9.63696C30.9247 9.36304 31.0891 9.08911 31.363 9.03432C31.637 8.92475 31.9109 9.08911 31.9657 9.36304Z" fill="white"/>
<path d="M30.9631 9.33135C31.0789 9.61865 30.9053 9.90596 30.6737 9.96342C30.3842 10.0783 30.0947 9.90596 30.0369 9.67611C29.9211 9.38881 30.0947 9.1015 30.3263 9.04404C30.5579 8.92912 30.8474 9.04404 30.9631 9.33135Z" fill="white"/>
<path d="M28.9586 10.3063C29.0666 10.578 28.9586 10.8497 28.6889 10.9584C28.4191 11.067 28.1493 10.9584 28.0414 10.6867C27.9334 10.415 28.0414 10.1433 28.3111 10.0346C28.5809 9.92591 28.9047 10.0889 28.9586 10.3063Z" fill="white"/>
<path d="M27.9553 10.2973C28.0692 10.5172 27.9553 10.847 27.7277 10.9569C27.5 11.0668 27.1585 10.9569 27.0447 10.737C26.9308 10.5172 27.0447 10.1874 27.2723 10.0775C27.5569 9.91258 27.8415 10.0225 27.9553 10.2973Z" fill="white"/>
<path d="M26.9553 11.2973C27.0692 11.5172 26.9553 11.847 26.7277 11.9569C26.5 12.0668 26.1585 11.9569 26.0447 11.737C25.9308 11.5172 26.0447 11.1874 26.2723 11.0775C26.5 10.9126 26.8415 11.0225 26.9553 11.2973Z" fill="white"/>
<path d="M25.9461 11.2696C26.0577 11.4949 26.0019 11.8329 25.7231 11.9456C25.5 12.0583 25.1654 12.0019 25.0539 11.7202C24.9423 11.4949 24.9981 11.1569 25.2769 11.0442C25.5 10.9315 25.8346 11.0442 25.9461 11.2696Z" fill="white"/>
<path d="M24.9412 12.2548C25.0588 12.4841 25 12.828 24.7647 12.9427C24.5294 13.0573 24.1765 13 24.0588 12.7707C23.9412 12.5414 24 12.1975 24.2353 12.0828C24.4706 11.9108 24.7647 12.0255 24.9412 12.2548Z" fill="white"/>
<path d="M23.9193 13.2484C24.087 13.472 23.9752 13.8075 23.7516 13.9193C23.528 14.087 23.1925 13.9752 23.0807 13.7516C22.913 13.5279 23.0248 13.1925 23.2484 13.0807C23.4721 12.913 23.8075 13.0248 23.9193 13.2484Z" fill="white"/>
<path d="M22.9003 13.2332C23.0718 13.4564 23.0146 13.7911 22.7859 13.9027C22.5572 14.0701 22.2141 14.0143 22.0997 13.7911C21.9282 13.568 21.9854 13.2332 22.2141 13.1216C22.4428 12.8985 22.7287 13.0101 22.9003 13.2332Z" fill="white"/>
<path d="M20.9003 14.2141C21.0718 14.4428 21.0146 14.7287 20.7859 14.9003C20.5572 15.0718 20.2713 15.0146 20.0997 14.7859C19.9282 14.5572 19.9854 14.2713 20.2141 14.0997C20.3856 13.9282 20.7287 13.9854 20.9003 14.2141Z" fill="white"/>
<path d="M19.9003 15.1943C20.0718 15.4288 20.0146 15.7219 19.7859 15.8977C19.5572 16.0736 19.2713 16.015 19.0997 15.7805C18.9282 15.546 18.9854 15.2529 19.2141 15.077C19.3856 14.9598 19.7287 14.9598 19.9003 15.1943Z" fill="white"/>
<path d="M18.8762 16.2005C19.0499 16.4267 19.0499 16.7094 18.8183 16.8791C18.5868 17.0487 18.2974 17.0487 18.1238 16.8225C17.9501 16.5964 17.9501 16.3136 18.1817 16.144C18.4132 15.9178 18.7026 15.9744 18.8762 16.2005Z" fill="white"/>
<path d="M17.8762 17.1817C18.0499 17.4132 18.0499 17.7026 17.8183 17.8762C17.5868 18.0499 17.2974 18.0499 17.1238 17.8183C16.9501 17.5868 16.9501 17.2974 17.1817 17.1238C17.4132 16.9501 17.7026 16.9501 17.8762 17.1817Z" fill="white"/>
<path d="M16.8714 17.1591C17.0429 17.3797 17.0429 17.6554 16.8714 17.8759C16.6429 18.0414 16.3571 18.0414 16.1286 17.8759C15.9571 17.6554 15.9571 17.3797 16.1286 17.2142C16.3571 16.9385 16.7 16.9385 16.8714 17.1591Z" fill="white"/>
<path d="M15.8421 18.1233C16.0526 18.2877 16.0526 18.6164 15.8421 18.8356C15.6842 19.0548 15.3684 19.0548 15.1579 18.8356C14.9474 18.6712 14.9474 18.3425 15.1579 18.1233C15.3684 17.9589 15.6842 17.9589 15.8421 18.1233Z" fill="white"/>
<path d="M15.8283 19.1126C16.0471 19.2775 16.0471 19.6075 15.883 19.8274C15.7189 20.0474 15.3906 20.0474 15.1717 19.8824C14.9529 19.7174 14.9529 19.3875 15.117 19.2226C15.3359 18.9476 15.6094 18.9476 15.8283 19.1126Z" fill="white"/>
<path d="M14.8183 20.144C15.0499 20.3136 15.0499 20.6529 14.8762 20.8225C14.7026 21.0487 14.3553 21.0487 14.1817 20.8791C13.9501 20.7094 13.9501 20.3702 14.1238 20.2005C14.2974 19.9744 14.6447 19.9178 14.8183 20.144Z" fill="white"/>
<path d="M13.8057 21.077C14.0402 21.2529 14.0402 21.6046 13.923 21.7805C13.7471 22.015 13.3954 22.0736 13.2195 21.8977C12.985 21.7219 12.9264 21.3701 13.1023 21.1943C13.2781 20.9598 13.5712 20.9598 13.8057 21.077Z" fill="white"/>
<path d="M12.7859 22.0997C13.0146 22.2713 13.0718 22.5572 12.9003 22.7859C12.7287 23.0146 12.4428 23.0718 12.2141 22.9003C11.9854 22.7287 11.9282 22.4428 12.0997 22.2141C12.2141 21.9854 12.5572 21.9282 12.7859 22.0997Z" fill="white"/>
<path d="M11.7859 23.0997C12.0146 23.2713 12.0718 23.5572 11.9003 23.7859C11.7287 24.0146 11.4428 24.0718 11.2141 23.9003C10.9854 23.7287 10.9282 23.4428 11.0997 23.2141C11.2141 22.9854 11.5572 22.9282 11.7859 23.0997Z" fill="white"/>
<path d="M11.7647 24.0588C12 24.2353 12.0588 24.5294 11.9412 24.7647C11.7647 25 11.4706 25.0588 11.2353 24.9412C11 24.7647 10.9412 24.4706 11.0588 24.2353C11.2353 24 11.5294 23.9412 11.7647 24.0588Z" fill="white"/>
<path d="M10.7516 26.0573C10.9752 26.172 11.087 26.5159 10.9193 26.7452C10.8075 26.9745 10.472 27.0892 10.2484 26.9172C10.0248 26.8025 9.91304 26.4586 10.0807 26.2293C10.1925 26 10.528 25.9427 10.7516 26.0573Z" fill="white"/>
<path d="M9.72767 27.0544C9.95534 27.1671 10.0692 27.5051 9.95534 27.7304C9.84151 27.9558 9.5 28.0685 9.27233 27.9558C9.04466 27.8431 8.93082 27.5051 9.04466 27.2798C9.15849 26.9981 9.5 26.9417 9.72767 27.0544Z" fill="white"/>
<path d="M9.72767 28.0775C9.95534 28.1874 10.0692 28.4622 9.95534 28.737C9.84151 28.9569 9.55692 29.0668 9.27233 28.9569C9.04466 28.847 8.93082 28.5721 9.04466 28.2973C9.15849 28.0225 9.44308 27.9126 9.72767 28.0775Z" fill="white"/>
<path d="M8.72767 29.021C8.95534 29.1377 9.06918 29.4293 8.95534 29.7209C8.84151 29.9542 8.55692 30.0709 8.27233 29.9542C8.04466 29.8376 7.93082 29.546 8.04466 29.2543C8.15849 29.021 8.44308 28.9627 8.72767 29.021Z" fill="white"/>
<path d="M8.68885 30.0414C8.95865 30.1493 9.06656 30.4191 8.95865 30.6889C8.85073 30.9586 8.58094 31.0666 8.31115 30.9586C8.04135 30.8507 7.93344 30.5809 8.04135 30.3111C8.14927 30.0414 8.47302 29.9334 8.68885 30.0414Z" fill="white"/>
<path d="M7.67111 31.015C7.95629 31.1325 8.07036 31.4262 7.95629 31.6612C7.84222 31.955 7.55704 32.0725 7.32889 31.955C7.04371 31.8375 6.92964 31.5437 7.04371 31.3087C7.10075 31.0737 7.38593 30.9562 7.67111 31.015Z" fill="white"/>
<path d="M7.64286 33.035C7.92857 33.1469 8.04286 33.4266 7.98571 33.6504C7.92857 33.9301 7.64286 34.042 7.35714 33.986C7.07143 33.8741 6.95714 33.6504 7.01429 33.3707C7.12857 33.091 7.41428 32.9232 7.64286 33.035Z" fill="white"/>
<path d="M6.64286 34.0143C6.92857 34.0714 7.04286 34.3571 6.98571 34.6429C6.92857 34.9286 6.64286 35.0429 6.35714 34.9857C6.07143 34.9286 5.95714 34.6429 6.01429 34.3571C6.07143 34.0714 6.35714 33.9571 6.64286 34.0143Z" fill="white"/>
<path d="M6.63697 35.0109C6.91089 35.067 7.07525 35.3476 6.96568 35.6281C6.91089 35.9087 6.63697 36.0771 6.36304 35.9648C6.08911 35.9087 5.92475 35.6281 6.03432 35.3476C6.08911 35.1231 6.36304 34.9548 6.63697 35.0109Z" fill="white"/>
<path d="M6.60879 36.011C6.88078 36.0685 7.04397 36.3562 6.98958 36.5863C6.93518 36.8739 6.66319 37.0465 6.39121 36.989C6.11922 36.9315 5.95603 36.6438 6.01042 36.4137C6.11922 36.1261 6.3912 35.9535 6.60879 36.011Z" fill="white"/>
<path d="M6.58629 38.009C6.87393 38.0666 7.0465 38.2972 6.98898 38.5854C6.93145 38.8737 6.70134 39.0466 6.41371 38.989C6.12607 38.9313 5.9535 38.7007 6.01102 38.4125C6.01102 38.1819 6.29866 37.9513 6.58629 38.009Z" fill="white"/>
<path d="M5.55556 39.0085C5.83333 39.0636 6 39.2839 6 39.5593C5.94444 39.8347 5.72222 40 5.44444 40C5.16667 39.9449 5 39.7246 5 39.4492C5.05556 39.1737 5.27778 38.9534 5.55556 39.0085Z" fill="white"/>
<path d="M5.55556 40.0085C5.83333 40.0636 6 40.2839 6 40.5593C6 40.8348 5.72222 41 5.44444 41C5.16667 40.9449 5 40.7246 5 40.4492C5.05556 40.1737 5.27778 39.9534 5.55556 40.0085Z" fill="white"/>
<path d="M5.52889 41.0089C5.81776 41.0089 6.04886 41.2978 5.99109 41.5289C5.99109 41.8178 5.70221 42.0489 5.47111 41.9911C5.18224 41.9911 4.95114 41.7022 5.00891 41.4711C5.00891 41.1822 5.24001 40.9511 5.52889 41.0089Z" fill="white"/>
<path d="M5.5 43C5.77778 43 6 43.2222 6 43.5C6 43.7778 5.77778 44 5.5 44C5.22222 44 5 43.7778 5 43.5C5 43.1667 5.22222 43 5.5 43Z" fill="white"/>
<path d="M5.5 44C5.77778 44 6 44.2222 6 44.5C6 44.7778 5.77778 45 5.5 45C5.22222 45 5 44.7778 5 44.5C5 44.2222 5.22222 44 5.5 44Z" fill="white"/>
<path d="M5.5 45C5.77778 45 6 45.2222 6 45.5C6 45.7778 5.77778 46 5.5 46C5.22222 46 5 45.7778 5 45.5C5 45.2222 5.22222 45 5.5 45Z" fill="white"/>
<path d="M5.47535 47C5.76682 47 6 47.1765 6 47.4706C6 47.7647 5.82512 48 5.53364 48C5.24217 48 5.00899 47.8235 5.00899 47.5294C4.9507 47.2941 5.18388 47 5.47535 47Z" fill="white"/>
<path d="M5.44067 48C5.71609 48 5.93642 48.1653 5.9915 48.4407C6.04659 48.7161 5.82625 48.9364 5.55084 48.9915C5.27542 49.0466 5.05508 48.8263 5 48.5508C5 48.2754 5.16525 48.0551 5.44067 48Z" fill="white"/>
<path d="M5.44538 49.0084C5.71848 48.9538 5.93695 49.1723 5.99157 49.4454C6.04619 49.7185 5.82772 49.937 5.55462 49.9916C5.28152 50.0462 5.06305 49.8277 5.00843 49.5546C4.95381 49.2815 5.17228 49.063 5.44538 49.0084Z" fill="white"/>
<path d="M6.41371 50.011C6.70134 49.9535 6.93145 50.1261 6.98898 50.4137C7.0465 50.7013 6.87393 50.9315 6.58629 50.989C6.29866 51.0465 6.06855 50.8739 6.01102 50.5863C5.9535 50.2987 6.12607 50.0685 6.41371 50.011Z" fill="white"/>
<path d="M6.3719 52.0104C6.65251 51.956 6.877 52.1192 6.98925 52.3912C7.04537 52.6632 6.877 52.8808 6.59639 52.9896C6.31577 53.044 6.09128 52.8808 6.03516 52.6088C5.92291 52.2824 6.09128 52.0648 6.3719 52.0104Z" fill="white"/>
<path d="M6.35622 53.0111C6.64378 52.9536 6.93134 53.1262 6.98885 53.3562C7.04637 53.6438 6.87383 53.9313 6.64378 53.9889C6.35622 54.0464 6.06866 53.8738 6.01115 53.6438C5.95363 53.3562 6.12617 53.0687 6.35622 53.0111Z" fill="white"/>
<path d="M6.37068 54.0143C6.65038 53.9571 6.93008 54.0714 6.98602 54.3571C7.04195 54.6429 6.93008 54.9286 6.65038 54.9857C6.37068 55.0429 6.09098 54.9286 6.03504 54.6429C5.92316 54.3571 6.09098 54.0714 6.37068 54.0143Z" fill="white"/>
<path d="M7.34962 55.0343C7.62932 54.9247 7.90902 55.0891 7.96496 55.363C8.07684 55.637 7.90902 55.9109 7.62932 55.9657C7.34962 56.0752 7.06992 55.9109 7.01398 55.637C6.95805 55.363 7.06992 55.0891 7.34962 55.0343Z" fill="white"/>
<path d="M7.33134 57.0369C7.61865 56.9211 7.90596 57.0947 7.96342 57.3263C8.07834 57.6158 7.90596 57.9053 7.67611 57.9631C7.38881 58.0789 7.1015 57.9053 7.04404 57.6737C6.92912 57.3842 7.04404 57.0947 7.33134 57.0369Z" fill="white"/>
<path d="M8.29159 58.0414C8.56904 57.9334 8.84649 58.0414 8.95747 58.3111C9.06845 58.5809 8.95747 58.8507 8.68002 58.9586C8.40257 59.0666 8.12512 58.9586 8.01414 58.6889C7.95865 58.4191 8.06963 58.1493 8.29159 58.0414Z" fill="white"/>
<path d="M8.31115 59.0413C8.52698 58.9335 8.85073 59.0413 8.95865 59.3108C9.06656 59.5265 8.95865 59.8499 8.68885 59.9577C8.47302 60.0655 8.14927 59.9577 8.04135 59.7421C7.93344 59.4187 8.04135 59.1491 8.31115 59.0413Z" fill="white"/>
<path d="M9.27975 60.0447C9.5051 59.9308 9.84312 60.0447 9.9558 60.2723C10.0685 60.5 9.9558 60.8415 9.73045 60.9553C9.5051 61.0692 9.16708 60.9553 9.05441 60.7277C8.94173 60.4431 8.99807 60.1585 9.27975 60.0447Z" fill="white"/>
<path d="M9.25168 61.0539C9.48254 60.9423 9.82883 60.9981 9.94426 61.2769C10.0597 61.5 10.002 61.8346 9.7134 61.9461C9.48254 62.0577 9.13625 62.0019 9.02082 61.7231C8.9631 61.4442 9.02082 61.1654 9.25168 61.0539Z" fill="white"/>
<path d="M10.2548 62.0588C10.4841 61.9412 10.828 62 10.9427 62.2353C11.0573 62.4706 11 62.8235 10.7707 62.9412C10.5414 63.0588 10.1975 63 10.0828 62.7647C9.91083 62.5294 10.0255 62.2353 10.2548 62.0588Z" fill="white"/>
<path d="M11.2293 64.0807C11.4586 63.913 11.8025 64.0248 11.9172 64.2484C12.0892 64.4721 11.9745 64.8075 11.7452 64.9193C11.5159 65.087 11.172 64.9752 11.0573 64.7516C10.9427 64.5279 11 64.2484 11.2293 64.0807Z" fill="white"/>
<path d="M11.2141 65.0997C11.4428 64.9282 11.7859 64.9854 11.9003 65.2141C12.0718 65.4428 12.0146 65.7859 11.7859 65.9003C11.5572 66.0718 11.2141 66.0146 11.0997 65.7859C10.9282 65.5572 10.9854 65.2713 11.2141 65.0997Z" fill="white"/>
<path d="M12.2141 66.0997C12.4428 65.9282 12.7287 65.9854 12.9003 66.2141C13.0718 66.4428 13.0146 66.7287 12.7859 66.9003C12.5572 67.0718 12.2713 67.0146 12.0997 66.7859C11.9282 66.6144 11.9854 66.2713 12.2141 66.0997Z" fill="white"/>
<path d="M13.1943 67.0997C13.4288 66.9282 13.7219 66.9854 13.8977 67.2141C14.0736 67.4428 14.015 67.7287 13.7805 67.9003C13.546 68.0718 13.2529 68.0146 13.077 67.7859C12.9598 67.6144 12.9598 67.2713 13.1943 67.0997Z" fill="white"/>
<path d="M14.1817 68.1238C14.4132 67.9501 14.7026 67.9501 14.8762 68.1817C15.0499 68.4132 15.0499 68.7026 14.8183 68.8762C14.5868 69.0499 14.2974 69.0499 14.1238 68.8183C13.9501 68.6447 13.9501 68.3553 14.1817 68.1238Z" fill="white"/>
<path d="M15.1484 69.1238C15.3734 68.9501 15.6547 68.9501 15.8797 69.1817C16.0485 69.4132 16.0485 69.7026 15.8235 69.8762C15.5984 70.0499 15.3172 70.0499 15.1484 69.8183C14.9234 69.6447 14.9797 69.3553 15.1484 69.1238Z" fill="white"/>
<path d="M16.1591 70.1364C16.3797 69.9545 16.6554 69.9545 16.8759 70.1364C17.0414 70.3182 17.0414 70.6818 16.8759 70.8636C16.6554 71.0455 16.3797 71.0455 16.2142 70.8636C15.9385 70.6818 15.9385 70.3182 16.1591 70.1364Z" fill="white"/>
<path d="M16.1179 71.1496C16.2833 70.9795 16.6141 70.9228 16.8346 71.1496C17.0551 71.3197 17.0551 71.6598 16.8346 71.8299C16.6692 72.0567 16.3384 72.0567 16.173 71.8299C15.9525 71.7165 15.9525 71.3764 16.1179 71.1496Z" fill="white"/>
<path d="M17.1126 71.1817C17.2775 70.9501 17.6075 70.9501 17.8274 71.1238C18.0474 71.2974 18.0474 71.6447 17.8824 71.8183C17.7174 72.0499 17.3875 72.0499 17.2226 71.8762C16.9476 71.7026 16.9476 71.3553 17.1126 71.1817Z" fill="white"/>
<path d="M18.1238 72.1817C18.2974 71.9501 18.6447 71.9501 18.8183 72.1238C19.0499 72.2974 19.0499 72.6447 18.8762 72.8183C18.7026 73.0499 18.3553 73.0499 18.1817 72.8762C17.9501 72.7605 17.9501 72.4132 18.1238 72.1817Z" fill="white"/>
<path d="M19.1209 73.1755C19.2906 72.9518 19.6298 72.9518 19.7995 73.1196C20.0256 73.2873 20.0822 73.6229 19.856 73.7906C19.6864 74.0143 19.3471 74.0702 19.1775 73.9025C18.9513 73.6788 18.9513 73.3433 19.1209 73.1755Z" fill="white"/>
<path d="M20.0997 74.2141C20.2713 73.9854 20.5572 73.9282 20.7859 74.0997C21.0146 74.2713 21.0718 74.5572 20.9003 74.7859C20.7287 75.0146 20.4428 75.0718 20.2141 74.9003C19.9854 74.7859 19.9282 74.4428 20.0997 74.2141Z" fill="white"/>
<path d="M21.0997 75.2141C21.2713 74.9854 21.5572 74.9282 21.7859 75.0997C22.0146 75.2713 22.0718 75.5572 21.9003 75.7859C21.7287 76.0146 21.4428 76.0718 21.2141 75.9003C20.9854 75.7859 20.9282 75.4428 21.0997 75.2141Z" fill="white"/>
<path d="M23.0588 75.2353C23.2353 75 23.5294 74.9412 23.7647 75.0588C24 75.2353 24.0588 75.5294 23.9412 75.7647C23.7647 76 23.4706 76.0588 23.2353 75.9412C23 75.8235 22.9412 75.5294 23.0588 75.2353Z" fill="white"/>
<path d="M24.0573 76.2484C24.172 76.0248 24.5159 75.913 24.7452 76.0807C24.9745 76.1925 25.0892 76.5279 24.9172 76.7516C24.8025 76.9752 24.4586 77.087 24.2293 76.9193C24 76.8075 23.9427 76.4721 24.0573 76.2484Z" fill="white"/>
<path d="M25.0447 77.2723C25.1585 77.0447 25.5 76.9308 25.7277 77.0447C25.9553 77.1585 26.0692 77.5 25.9553 77.7277C25.8415 77.9553 25.5 78.0692 25.2723 77.9553C25.0447 77.8415 24.9308 77.5 25.0447 77.2723Z" fill="white"/>
<path d="M26.0447 77.2723C26.1585 77.0447 26.4431 76.9308 26.7277 77.0447C26.9553 77.1585 27.0692 77.5 26.9553 77.7277C26.8415 77.9553 26.5569 78.0692 26.2723 77.9553C26.0447 77.8415 25.9308 77.5569 26.0447 77.2723Z" fill="white"/>
<path d="M27.0447 78.2652C27.1585 78.0435 27.4431 77.9326 27.7277 78.0435C27.9553 78.1544 28.0692 78.4315 27.9553 78.7087C27.8415 78.9304 27.5569 79.0413 27.2723 78.9859C27.0447 78.8196 26.9308 78.487 27.0447 78.2652Z" fill="white"/>
<path d="M28.0405 78.3085C28.1485 78.0896 28.4185 77.9254 28.6886 78.0348C28.9586 78.1443 29.0666 78.4179 28.9586 78.6915C28.8506 78.9104 28.5806 79.0746 28.3645 78.9652C28.0405 78.801 27.9325 78.5274 28.0405 78.3085Z" fill="white"/>
<path d="M30.015 79.3289C30.1325 79.0437 30.4262 78.9296 30.6612 79.0437C30.955 79.1578 31.0725 79.443 30.955 79.6711C30.8375 79.9563 30.5437 80.0704 30.3087 79.9563C30.0737 79.8993 29.9562 79.6141 30.015 79.3289Z" fill="white"/>
<path d="M31.0143 79.3571C31.1286 79.0714 31.4143 78.9571 31.6429 79.0143C31.9286 79.1286 32.0429 79.4143 31.9857 79.6429C31.8714 79.9286 31.6429 80.0429 31.3571 79.9857C31.0714 79.9286 30.9571 79.6429 31.0143 79.3571Z" fill="white"/>
<path d="M32.0111 80.3571C32.0684 80.0714 32.3551 79.9571 32.6417 80.0143C32.9283 80.0714 33.043 80.3571 32.9857 80.6429C32.9283 80.9286 32.6417 81.0429 32.3551 80.9857C32.1258 80.9286 31.9538 80.6429 32.0111 80.3571Z" fill="white"/>
<path d="M33.0109 80.363C33.067 80.0891 33.3476 79.9248 33.6282 80.0343C33.9087 80.0891 34.0771 80.363 33.9648 80.637C33.9087 80.9109 33.6282 81.0753 33.3476 80.9657C33.1231 80.9109 32.9548 80.637 33.0109 80.363Z" fill="white"/>
<path d="M35.0103 80.3912C35.0647 80.1192 35.3367 79.956 35.6087 80.0104C35.8808 80.0648 36.044 80.3368 35.9896 80.6088C35.9352 80.8808 35.6632 81.044 35.4455 80.9896C35.1191 80.9352 34.9559 80.6632 35.0103 80.3912Z" fill="white"/>
<path d="M36 80.4137C36.0582 80.1261 36.349 79.9535 36.5817 80.011C36.8725 80.0685 37.047 80.3562 36.9889 80.5863C36.9307 80.8739 36.698 81.0465 36.4072 80.989C36.1745 80.9315 36 80.7013 36 80.4137Z" fill="white"/>
<path d="M37 81.4444C37.0556 81.1667 37.2778 81 37.5556 81C37.8333 81.0556 38 81.2778 38 81.5556C37.9444 81.8333 37.7222 82 37.4444 82C37.1667 81.9444 37 81.7222 37 81.4444Z" fill="white"/>
<path d="M39 81.4444C39.0556 81.1667 39.2778 81 39.5556 81C39.8333 81 40 81.2778 40 81.5556C40 81.8333 39.7222 82 39.4444 82C39.1667 81.9444 39 81.7222 39 81.4444Z" fill="white"/>
<path d="M40 81.4664C40 81.1749 40.2915 81 40.5247 81C40.8161 81 41.0493 81.2915 40.991 81.5246C40.991 81.8161 40.6995 82.0493 40.4664 81.991C40.1749 81.991 40 81.7578 40 81.4664Z" fill="white"/>
<path d="M41 81.5C41 81.2222 41.2222 81 41.5 81C41.7778 81 42 81.2222 42 81.5C42 81.7778 41.7778 82 41.5 82C41.2222 82 41 81.7778 41 81.5Z" fill="white"/>
<path d="M42 81.5C42 81.2222 42.2222 81 42.5 81C42.7778 81 43 81.2222 43 81.5C43 81.7778 42.7778 82 42.5 82C42.2222 82 42 81.7778 42 81.5Z" fill="white"/>
<path d="M44 81.5C44 81.2222 44.2222 81 44.5 81C44.7778 81 45 81.2222 45 81.5C45 81.7778 44.7778 82 44.5 82C44.2222 82 44 81.7778 44 81.5Z" fill="white"/>
<path d="M45 81.5246C45 81.2332 45.1765 81 45.4706 81C45.7647 81 46 81.1749 46 81.4664C46 81.7578 45.8235 81.991 45.5294 81.991C45.2941 82.0493 45.0588 81.8161 45 81.5246Z" fill="white"/>
<path d="M46 81.5593C46 81.2839 46.1653 81.0636 46.4407 81.0085C46.7161 80.9534 46.9364 81.1737 46.9915 81.4492C47.0466 81.7246 46.8263 81.9449 46.5508 82C46.2754 82 46.0551 81.7797 46 81.5593Z" fill="white"/>
<path d="M48.0084 81.5593C47.9538 81.2839 48.1723 81.0636 48.4454 81.0085C48.7185 80.9534 48.937 81.1737 48.9916 81.4492C49.0462 81.7246 48.8277 81.9449 48.5546 82C48.2815 82 48.063 81.8347 48.0084 81.5593Z" fill="white"/>
<path d="M49.011 80.5863C48.9535 80.2987 49.1261 80.0685 49.4137 80.011C49.7013 79.9535 49.9315 80.1261 49.989 80.4137C50.0465 80.7013 49.8739 80.9315 49.5863 80.989C49.2987 81.0465 49.0685 80.8739 49.011 80.5863Z" fill="white"/>
<path d="M50.011 80.5602C49.9535 80.2854 50.1261 80.0655 50.4137 80.0105C50.7013 79.9556 50.989 80.1205 50.989 80.3953C51.0465 80.6702 50.8739 80.945 50.5863 81C50.3562 81 50.0685 80.8351 50.011 80.5602Z" fill="white"/>
<path d="M52.0111 80.6282C51.9536 80.3476 52.1262 80.1231 52.3562 80.0109C52.6438 79.9548 52.9313 80.1231 52.9889 80.3476C53.0464 80.6282 52.8738 80.9087 52.6438 80.9648C52.3562 81.0771 52.1262 80.9087 52.0111 80.6282Z" fill="white"/>
<path d="M53.0143 80.6429C52.9571 80.3571 53.0714 80.0714 53.3571 80.0143C53.6429 79.9571 53.9286 80.0714 53.9857 80.3571C54.0429 80.6429 53.9286 80.9286 53.6429 80.9857C53.3571 81.0429 53.0714 80.9286 53.0143 80.6429Z" fill="white"/>
<path d="M54.014 79.6504C53.958 79.3707 54.0699 79.091 54.3496 79.035C54.6293 78.9232 54.909 79.091 54.965 79.3707C55.0768 79.6504 54.909 79.9301 54.6293 79.986C54.3496 80.042 54.0699 79.9301 54.014 79.6504Z" fill="white"/>
<path d="M55.0369 79.6687C54.9211 79.3814 55.0947 79.094 55.3263 79.0366C55.6158 78.9217 55.9053 79.094 55.9631 79.3239C56.0789 79.6112 55.9053 79.8985 55.6737 79.956C55.4421 80.0709 55.1526 79.956 55.0369 79.6687Z" fill="white"/>
<path d="M57.0437 78.6889C56.9296 78.4191 57.0437 78.1493 57.3289 78.0414C57.6141 77.9334 57.8993 78.0414 57.9563 78.3111C58.0704 78.5809 57.9563 78.8507 57.6711 78.9586C57.443 79.0666 57.1007 78.9586 57.0437 78.6889Z" fill="white"/>
<path d="M58.0413 78.7027C57.9335 78.4828 58.0413 78.153 58.3108 78.0431C58.5804 77.9332 58.8499 78.0431 58.9577 78.263C59.0655 78.4828 58.9577 78.8126 58.7421 78.9225C58.4187 79.0874 58.1491 78.9775 58.0413 78.7027Z" fill="white"/>
<path d="M59.0447 77.7277C58.9308 77.5 59.0447 77.1585 59.2723 77.0447C59.5 76.9308 59.8415 77.0447 59.9553 77.2723C60.0692 77.5 59.9553 77.8415 59.7277 77.9553C59.5 78.0692 59.1585 77.9553 59.0447 77.7277Z" fill="white"/>
<path d="M60.0539 77.7231C59.9423 77.5 59.9981 77.1654 60.2769 77.0539C60.5 76.9423 60.8346 76.9981 60.9461 77.2769C61.0577 77.5 61.0019 77.8346 60.7231 77.9461C60.5 78.0577 60.1654 78.0019 60.0539 77.7231Z" fill="white"/>
<path d="M61.0588 76.7452C60.9412 76.5159 61 76.172 61.2353 76.0573C61.4706 75.9427 61.8235 76 61.9412 76.2293C62.0588 76.4586 62 76.8025 61.7647 76.9172C61.5294 77.0892 61.2353 76.9745 61.0588 76.7452Z" fill="white"/>
<path d="M62.0807 75.7707C61.913 75.5414 62.0248 75.1975 62.2484 75.0828C62.4721 74.9108 62.8075 75.0255 62.9193 75.2548C63.087 75.4841 62.9752 75.828 62.7516 75.9427C62.5838 76.0573 62.2484 76 62.0807 75.7707Z" fill="white"/>
<path d="M63.0997 75.7859C62.9282 75.5572 62.9854 75.2141 63.2141 75.0997C63.4428 74.9282 63.7859 74.9854 63.9003 75.2141C64.0718 75.4428 64.0146 75.7859 63.7859 75.9003C63.5572 76.0718 63.2713 76.0146 63.0997 75.7859Z" fill="white"/>
<path d="M64.0997 74.8057C63.9282 74.5712 63.9854 74.2195 64.2141 74.1023C64.4428 73.9264 64.7859 73.985 64.9003 74.2195C65.0718 74.454 65.0146 74.8057 64.7859 74.923C64.6144 75.0402 64.2713 75.0402 64.0997 74.8057Z" fill="white"/>
<path d="M66.0994 73.8309C65.9285 73.5902 65.9854 73.2894 66.2133 73.109C66.4411 72.9285 66.7259 72.9887 66.8968 73.1691C67.0677 73.4098 67.0107 73.7106 66.8399 73.891C66.612 74.0715 66.2702 74.0113 66.0994 73.8309Z" fill="white"/>
<path d="M67.1069 72.8183C66.9299 72.5868 66.9889 72.2974 67.1659 72.1238C67.4019 71.9501 67.6968 71.9501 67.8738 72.1817C68.0508 72.4132 68.0508 72.7026 67.8148 72.8762C67.5788 73.0499 67.2839 73.0499 67.1069 72.8183Z" fill="white"/>
<path d="M68.1238 71.8516C67.9501 71.6266 67.9501 71.3453 68.1817 71.1203C68.4132 70.9515 68.7026 70.9515 68.8762 71.1765C69.0499 71.4016 69.0499 71.6828 68.8183 71.8516C68.6447 72.0766 68.3553 72.0203 68.1238 71.8516Z" fill="white"/>
<path d="M69.1364 71.877C68.9545 71.647 68.9545 71.3594 69.1364 71.1294C69.3788 70.9569 69.6818 70.9569 69.8636 71.1294C70.0455 71.3594 70.0455 71.647 69.8636 71.8195C69.6818 72.0496 69.3182 72.0495 69.1364 71.877Z" fill="white"/>
<path d="M69.1304 70.8472C68.9565 70.6884 68.9565 70.3707 69.1304 70.1589C69.3043 69.947 69.6522 69.947 69.8261 70.1589C70.058 70.3177 70.058 70.6354 69.8261 70.7943C69.6522 71.059 69.3043 71.059 69.1304 70.8472Z" fill="white"/>
<path d="M70.1817 69.9025C69.9501 69.7347 69.9501 69.3992 70.1238 69.1755C70.2974 68.9518 70.6447 68.9518 70.8183 69.1196C71.0499 69.2873 71.0499 69.6229 70.8762 69.7906C70.7026 70.0143 70.4132 70.0702 70.1817 69.9025Z" fill="white"/>
<path d="M71.1817 68.8762C70.9501 68.7026 70.9501 68.3553 71.1238 68.1817C71.2974 67.9501 71.6447 67.9501 71.8183 68.1238C72.0499 68.2974 72.0499 68.6447 71.8762 68.8183C71.7026 69.0499 71.3553 69.0499 71.1817 68.8762Z" fill="white"/>
<path d="M72.1755 67.9003C71.9518 67.7287 71.9518 67.3856 72.1196 67.2141C72.2873 66.9854 72.6229 66.9282 72.7906 67.0997C73.0143 67.2713 73.0702 67.6144 72.9025 67.7859C72.6788 68.0146 72.3992 68.0718 72.1755 67.9003Z" fill="white"/>
<path d="M73.2141 66.9003C72.9854 66.7287 72.9282 66.4428 73.0997 66.2141C73.2713 65.9854 73.6144 65.9282 73.7859 66.0997C74.0146 66.2713 74.0718 66.5572 73.9003 66.7859C73.7859 67.0146 73.4428 67.0718 73.2141 66.9003Z" fill="white"/>
<path d="M74.2141 65.938C73.9854 65.7593 73.9282 65.4614 74.0997 65.2231C74.2713 64.9848 74.5572 64.9252 74.7859 65.1039C75.0146 65.2827 75.0718 65.5805 74.9003 65.8189C74.7859 65.9976 74.4428 66.0572 74.2141 65.938Z" fill="white"/>
<path d="M74.2293 64.9046C74 64.735 73.9427 64.4523 74.0573 64.2261C74.2293 64 74.5159 63.9435 74.7452 64.0565C74.9745 64.2261 75.0892 64.5088 74.9172 64.735C74.8025 65.0177 74.5159 65.0742 74.2293 64.9046Z" fill="white"/>
<path d="M75.2484 63.9427C75.0248 63.828 74.913 63.4841 75.0807 63.2548C75.2484 63.0255 75.5279 62.9108 75.7516 63.0828C75.9752 63.1975 76.087 63.5414 75.9193 63.7707C75.8075 64 75.4721 64.0573 75.2484 63.9427Z" fill="white"/>
<path d="M76.2723 61.9553C76.0447 61.8415 75.9308 61.5 76.0447 61.2723C76.1585 61.0447 76.5 60.9308 76.7277 61.0447C76.9553 61.1585 77.0692 61.5 76.9553 61.7277C76.8415 61.9553 76.5 62.0692 76.2723 61.9553Z" fill="white"/>
<path d="M76.2723 60.9553C76.0447 60.8415 75.9308 60.5 76.0447 60.2723C76.1585 60.0447 76.5 59.9308 76.7277 60.0447C76.9553 60.1585 77.0692 60.4431 76.9553 60.7277C76.8415 60.9553 76.5569 61.0692 76.2723 60.9553Z" fill="white"/>
<path d="M77.263 59.9569C77.0431 59.847 76.9332 59.5721 77.0431 59.2973C77.153 59.0225 77.4279 58.9126 77.7027 59.0775C77.9775 59.1874 78.0874 59.4622 77.9225 59.737C77.8126 59.9569 77.5378 60.0668 77.263 59.9569Z" fill="white"/>
<path d="M77.3239 58.9595C77.094 58.8515 76.9217 58.5815 77.0366 58.3114C77.1515 58.0414 77.4388 57.9334 77.6687 58.0414C77.956 58.1494 78.0709 58.4194 77.956 58.6355C77.8985 58.9595 77.6112 59.0675 77.3239 58.9595Z" fill="white"/>
<path d="M78.3289 57.9563C78.0437 57.8422 77.9296 57.557 78.0437 57.3289C78.1578 57.0437 78.443 56.9296 78.6711 57.0437C78.9563 57.1578 79.0704 57.443 78.9563 57.6711C78.8993 57.9563 78.6141 58.0704 78.3289 57.9563Z" fill="white"/>
<path d="M78.3571 55.9857C78.0714 55.8714 77.9571 55.5857 78.0143 55.3571C78.1286 55.0714 78.4143 54.9571 78.6429 55.0143C78.9286 55.0714 79.0429 55.4143 78.9857 55.6429C78.8714 55.9286 78.5857 56.0429 78.3571 55.9857Z" fill="white"/>
<path d="M78.3496 54.9889C78.0699 54.9316 77.958 54.6449 78.014 54.3583C78.0699 54.0717 78.3496 53.957 78.6293 54.0143C78.909 54.0717 79.0768 54.3583 78.965 54.6449C78.909 54.8742 78.6293 55.0462 78.3496 54.9889Z" fill="white"/>
<path d="M79.363 53.9657C79.0891 53.9109 78.9247 53.637 79.0343 53.363C79.0891 53.0891 79.363 52.9247 79.637 53.0343C79.9109 53.0891 80.0752 53.363 79.9657 53.637C79.9109 53.9109 79.637 54.0752 79.363 53.9657Z" fill="white"/>
<path d="M79.4137 52.9897C79.1261 52.9353 78.9535 52.6633 79.011 52.3912C79.0685 52.1192 79.3562 51.956 79.5863 52.0104C79.8739 52.0648 80.0465 52.3368 79.989 52.5545C79.9315 52.8809 79.6438 53.0441 79.4137 52.9897Z" fill="white"/>
<path d="M79.4137 50.989C79.1261 50.9315 78.9535 50.6438 79.011 50.4137C79.0685 50.1261 79.3562 49.9535 79.5863 50.011C79.8739 50.0685 80.0465 50.2987 79.989 50.5863C79.989 50.8739 79.7013 51.0465 79.4137 50.989Z" fill="white"/>
<path d="M80.4444 50C80.1667 49.9444 80 49.7222 80 49.4444C80.0556 49.1667 80.2778 49 80.5556 49C80.8333 49.0556 81 49.2778 81 49.5556C80.9444 49.8333 80.7222 50 80.4444 50Z" fill="white"/>
<path d="M80.4407 49C80.1653 48.9444 80 48.7222 80 48.4444C80.0551 48.1667 80.2754 48 80.5508 48C80.8263 48 81.0466 48.2778 80.9915 48.5556C80.9364 48.8333 80.7161 49 80.4407 49Z" fill="white"/>
<path d="M80.4664 48C80.1749 48 80 47.7085 80 47.4753C80 47.1839 80.2915 46.9507 80.5247 47.009C80.8161 47.009 81.0493 47.3005 80.991 47.5336C80.991 47.7668 80.7578 48 80.4664 48Z" fill="white"/>
<path d="M80.5 46C80.2222 46 80 45.7778 80 45.5C80 45.2222 80.2222 45 80.5 45C80.7778 45 81 45.2222 81 45.5C81 45.7778 80.7778 46 80.5 46Z" fill="white"/>
<path d="M80.5 45C80.2222 45 80 44.7778 80 44.5C80 44.2222 80.2222 44 80.5 44C80.7778 44 81 44.2222 81 44.5C81 44.7778 80.7778 45 80.5 45Z" fill="white"/>
<path d="M80.5 44C80.2222 44 80 43.7778 80 43.5C80 43.2222 80.2222 43 80.5 43C80.7778 43 81 43.2222 81 43.4444C81 43.7222 80.7778 43.9444 80.5 44Z" fill="white"/>
<path d="M80.5247 42C80.2332 42 80 41.7647 80 41.5294C80 41.2353 80.1749 41 80.4664 41C80.7578 41 80.991 41.1765 80.991 41.4706C81.0493 41.7059 80.8161 41.9412 80.5247 42Z" fill="white"/>
<path d="M80.5556 41C80.2778 41 80.0556 40.8348 80 40.5593C80 40.2839 80.1667 40.0636 80.4444 40.0085C80.7222 39.9534 80.9444 40.1737 81 40.4492C81 40.7246 80.8333 40.9449 80.5556 41Z" fill="white"/>
<path d="M80.5744 39.9916C80.2916 40.0462 80.0653 39.8277 80.0088 39.5546C79.9522 39.2816 80.1785 39.0631 80.4047 39.0085C80.6875 38.9539 80.9137 39.1723 80.9703 39.3908C81.0834 39.6639 80.8571 39.937 80.5744 39.9916Z" fill="white"/>
<path d="M79.5863 38.991C79.2987 39.0487 79.0685 38.8181 79.011 38.5875C78.9535 38.2993 79.1261 38.011 79.4137 38.011C79.7013 37.9534 79.989 38.1263 79.989 38.4146C80.0465 38.6452 79.8739 38.9334 79.5863 38.991Z" fill="white"/>
<path d="M79.5863 36.989C79.2987 37.0465 79.0685 36.8739 79.011 36.5863C78.9535 36.2987 79.1261 36.011 79.4137 36.011C79.7013 35.9535 79.989 36.1261 79.989 36.4137C80.0465 36.6438 79.8739 36.9315 79.5863 36.989Z" fill="white"/>
<path d="M79.6438 35.9889C79.3562 36.0464 79.1262 35.8738 79.0111 35.6438C78.9536 35.3562 79.1262 35.0687 79.3562 35.0111C79.6438 34.9536 79.9313 35.1262 79.9889 35.3562C80.0464 35.5863 79.8738 35.8738 79.6438 35.9889Z" fill="white"/>
<path d="M78.6293 34.9889C78.3496 35.0462 78.0699 34.8742 78.014 34.6449C77.958 34.3583 78.0699 34.0717 78.3496 34.0143C78.6293 33.957 78.909 34.0717 78.965 34.3583C79.0768 34.6449 78.909 34.9316 78.6293 34.9889Z" fill="white"/>
<path d="M78.6429 33.986C78.3571 34.042 78.0714 33.9301 78.0143 33.6504C77.9571 33.3707 78.0714 33.091 78.3571 33.035C78.6429 32.9232 78.9286 33.091 78.9857 33.3707C79.0429 33.5944 78.9286 33.8741 78.6429 33.986Z" fill="white"/>
<path d="M78.6687 31.9631C78.3813 32.0789 78.094 31.9053 78.0366 31.6737C77.9217 31.3842 78.094 31.0947 78.3239 31.0369C78.6112 30.9211 78.8985 31.0947 78.956 31.3263C79.0709 31.5579 78.956 31.8474 78.6687 31.9631Z" fill="white"/>
<path d="M77.6913 30.9654C77.4563 31.0741 77.1038 30.9111 77.045 30.6937C76.9275 30.422 77.045 30.1503 77.3388 30.0416C77.6325 29.933 77.9263 30.0416 77.985 30.3133C78.0438 30.585 77.9263 30.8567 77.6913 30.9654Z" fill="white"/>
<path d="M77.7027 29.9587C77.4828 30.0665 77.153 29.9587 77.0431 29.6892C76.9332 29.4196 77.0431 29.1501 77.263 29.0423C77.4828 28.9345 77.8126 29.0423 77.9225 29.2579C78.0874 29.5274 77.9775 29.8509 77.7027 29.9587Z" fill="white"/>
<path d="M76.7202 28.9553C76.4949 29.0692 76.1569 28.9553 76.0442 28.7277C75.9315 28.5 76.0442 28.1585 76.2695 28.0447C76.4949 27.9308 76.8329 28.0447 76.9456 28.2723C77.0583 28.5 77.0019 28.7846 76.7202 28.9553Z" fill="white"/>
<path d="M76.7231 27.9558C76.5 28.0685 76.1654 27.9558 76.0539 27.7304C75.9423 27.5051 75.9981 27.1671 76.2769 27.0544C76.5 26.9417 76.8346 26.9981 76.9461 27.2798C77.0577 27.5051 77.0019 27.7868 76.7231 27.9558Z" fill="white"/>
<path d="M75.7452 26.9427C75.5159 27.0573 75.172 27 75.0573 26.7707C74.9427 26.5414 75 26.1975 75.2293 26.0828C75.4586 25.9108 75.8025 26.0255 75.9172 26.2548C76.0892 26.4841 75.9745 26.828 75.7452 26.9427Z" fill="white"/>
<path d="M74.7707 24.9193C74.5414 25.087 74.1975 24.9752 74.0828 24.7516C73.9108 24.5279 74.0255 24.1925 74.2548 24.0807C74.4841 23.913 74.828 24.0248 74.9427 24.2484C75.0573 24.4721 75 24.8075 74.7707 24.9193Z" fill="white"/>
<path d="M74.7859 23.9139C74.5572 24.088 74.2141 23.9719 74.0997 23.7978C73.9282 23.5656 73.9854 23.2173 74.2141 23.1012C74.4428 22.9271 74.7859 22.9852 74.9003 23.2173C75.0718 23.3915 75.0146 23.7397 74.7859 23.9139Z" fill="white"/>
<path d="M73.7859 22.9003C73.5572 23.0718 73.2141 23.0146 73.0997 22.7859C72.9282 22.5572 72.9854 22.2141 73.2141 22.0997C73.4428 21.9282 73.7859 21.9854 73.9003 22.2141C74.0718 22.4428 74.0146 22.7287 73.7859 22.9003Z" fill="white"/>
<path d="M72.8148 21.9006C72.5788 22.0715 72.2839 22.0146 72.1069 21.7867C71.9299 21.5589 71.9889 21.2171 72.1659 21.1032C72.4019 20.9323 72.6968 20.9893 72.8738 21.1601C73.0508 21.388 73.0508 21.6728 72.8148 21.9006Z" fill="white"/>
<path d="M71.8183 20.8931C71.5868 21.0701 71.2974 21.0111 71.1238 20.8341C70.9501 20.5981 70.9501 20.3032 71.1817 20.1262C71.4132 19.9492 71.7026 19.9492 71.8762 20.1852C72.0499 20.3622 72.0499 20.7161 71.8183 20.8931Z" fill="white"/>
<path d="M70.8341 19.8762C70.5981 20.0499 70.3032 20.0499 70.1262 19.8183C69.9492 19.5868 69.9492 19.2974 70.1852 19.1238C70.4212 18.9501 70.7161 18.9501 70.8931 19.1817C71.0701 19.3553 71.0111 19.7026 70.8341 19.8762Z" fill="white"/>
<path d="M69.8261 18.8636C69.6522 19.0455 69.3043 19.0455 69.1304 18.8636C68.9565 18.6212 68.9565 18.3182 69.1304 18.1364C69.3623 17.9545 69.6522 17.9545 69.8261 18.1364C70.058 18.3182 70.058 18.6818 69.8261 18.8636Z" fill="white"/>
<path d="M69.8696 17.8696C69.6957 18.0435 69.3478 18.0435 69.1739 17.8696C68.942 17.6957 68.942 17.3478 69.1739 17.1739C69.3478 16.942 69.6957 16.942 69.8696 17.1739C70.0435 17.3478 70.0435 17.6957 69.8696 17.8696Z" fill="white"/>
<path d="M68.8762 17.8183C68.7026 18.0499 68.3553 18.0499 68.1817 17.8762C67.9501 17.7026 67.9501 17.3553 68.1238 17.1817C68.2974 16.9501 68.6447 16.9501 68.8183 17.1238C69.0499 17.2974 69.0499 17.5868 68.8762 17.8183Z" fill="white"/>
<path d="M67.8762 16.8183C67.7026 17.0499 67.3553 17.0499 67.1817 16.8762C66.9501 16.7026 66.9501 16.3553 67.1238 16.1817C67.2974 15.9501 67.6447 15.9501 67.8183 16.1238C68.0499 16.2974 68.0499 16.5868 67.8762 16.8183Z" fill="white"/>
<path d="M66.8849 15.8245C66.7163 16.0482 66.3791 16.0482 66.2105 15.8804C65.9856 15.7127 65.9294 15.3771 66.098 15.2094C66.2667 14.9857 66.6039 14.9298 66.7725 15.0975C67.0535 15.3212 67.0535 15.6008 66.8849 15.8245Z" fill="white"/>
<path d="M65.9003 14.7859C65.7287 15.0146 65.3856 15.0718 65.2141 14.9003C64.9854 14.7287 64.9282 14.3856 65.0997 14.2141C65.2713 13.9854 65.6144 13.9282 65.7859 14.0997C66.0146 14.2141 66.0718 14.5 65.9003 14.7859Z" fill="white"/>
<path d="M63.9003 13.7859C63.7287 14.0146 63.4428 14.0718 63.2141 13.9003C62.9854 13.7287 62.9282 13.4428 63.0997 13.2141C63.2713 12.9854 63.5572 12.9282 63.7859 13.0997C64.0146 13.2141 64.0718 13.5 63.9003 13.7859Z" fill="white"/>
<path d="M62.9412 13.7647C62.7647 14 62.4706 14.0588 62.2353 13.9412C62 13.7647 61.9412 13.4706 62.0588 13.2353C62.2353 13 62.5294 12.9412 62.7647 13.0588C63 13.2353 63.0588 13.5294 62.9412 13.7647Z" fill="white"/>
<path d="M61.9427 12.7707C61.828 13 61.4841 13.0573 61.2548 12.9427C61.0255 12.7707 60.9108 12.4841 61.0828 12.2548C61.1975 12.0255 61.5414 11.9108 61.7707 12.0828C62 12.1975 62.0573 12.4841 61.9427 12.7707Z" fill="white"/>
<path d="M60.9553 11.7277C60.8415 11.9553 60.5 12.0692 60.2723 11.9553C60.0447 11.8415 59.9308 11.5 60.0447 11.2723C60.1585 11.0447 60.5 10.9308 60.7277 11.0447C60.9553 11.1585 61.0692 11.4431 60.9553 11.7277Z" fill="white"/>
<path d="M59.9553 11.7277C59.8415 11.9553 59.5 12.0692 59.2723 11.9553C59.0447 11.8415 58.9308 11.5 59.0447 11.2723C59.1585 11.0447 59.5 10.9308 59.7277 11.0447C59.9553 11.2154 60.0692 11.5 59.9553 11.7277Z" fill="white"/>
<path d="M58.9586 10.737C58.8507 10.9569 58.5809 11.0668 58.3111 10.9569C58.0414 10.847 57.9334 10.5721 58.0414 10.2973C58.1493 10.0225 58.4191 9.91258 58.6889 10.0775C58.9586 10.1874 59.0666 10.4622 58.9586 10.737Z" fill="white"/>
<path d="M56.9595 10.6761C56.8515 10.906 56.5815 11.0783 56.3114 10.9634C56.0414 10.8485 55.9334 10.5612 56.0414 10.3313C56.1494 10.044 56.4194 9.92912 56.6355 10.044C56.9595 10.1015 57.0675 10.3888 56.9595 10.6761Z" fill="white"/>
<path d="M55.985 9.67611C55.8675 9.90596 55.5738 10.0783 55.3388 9.96342C55.045 9.8485 54.9275 9.56119 55.045 9.33135C55.1625 9.04404 55.4563 8.92912 55.6913 9.04404C55.9263 9.1015 56.0438 9.38881 55.985 9.67611Z" fill="white"/>
<path d="M54.9857 9.64286C54.8714 9.92857 54.5857 10.0429 54.3571 9.98571C54.0714 9.87143 53.9571 9.58571 54.0143 9.35714C54.0714 9.07143 54.4143 8.95714 54.6429 9.01429C54.9286 9.12857 55.0429 9.35714 54.9857 9.64286Z" fill="white"/>
<path d="M53.9889 8.65038C53.9316 8.93008 53.6449 9.04195 53.3583 8.98602C53.0717 8.93008 52.957 8.65038 53.0143 8.37068C53.0717 8.09098 53.3583 7.92316 53.6449 8.03504C53.8742 8.09098 54.0462 8.37068 53.9889 8.65038Z" fill="white"/>
<path d="M52.9891 8.65038C52.933 8.93008 52.6524 9.04195 52.3718 8.98602C52.0913 8.93008 51.9229 8.65038 52.0352 8.37068C52.0913 8.09098 52.3718 7.92316 52.6524 8.03504C52.8769 8.14692 53.0452 8.42662 52.9891 8.65038Z" fill="white"/>
<path d="M50.989 8.58629C50.9315 8.87392 50.6438 9.0465 50.4137 8.98898C50.1261 8.93145 49.9535 8.64382 50.011 8.41371C50.0685 8.12608 50.3562 7.9535 50.5863 8.01102C50.8739 8.06855 51.0465 8.29866 50.989 8.58629Z" fill="white"/>
<path d="M50 8.58629C49.9418 8.87392 49.651 9.0465 49.4183 8.98898C49.1275 8.93145 48.953 8.64382 49.0111 8.41371C49.0693 8.12608 49.302 7.9535 49.5928 8.01102C49.8255 8.01102 50 8.29866 50 8.58629Z" fill="white"/>
<path d="M49 7.60467C48.9444 7.87953 48.7222 8.04444 48.4444 7.98947C48.1667 7.9345 48 7.71462 48 7.43976C48.0556 7.16491 48.2778 7 48.5556 7C48.8333 7.10994 49 7.32982 49 7.60467Z" fill="white"/>
<path d="M47 7.55933C46.9444 7.83475 46.7222 8 46.4444 8C46.1667 7.94492 46 7.72458 46 7.44916C46 7.17375 46.2778 6.95341 46.5556 7.0085C46.8333 7.06358 47 7.28391 47 7.55933Z" fill="white"/>
<path d="M46 7.53364C46 7.82512 45.7085 8 45.4753 8C45.1839 8 44.9507 7.70853 45.009 7.47535C45.009 7.18388 45.3005 6.9507 45.5336 7.00899C45.8251 7.00899 46 7.24217 46 7.53364Z" fill="white"/>
<path d="M45 7.55083C45 7.82625 44.7778 8.04659 44.5 7.9915C44.2222 7.9915 44 7.77117 44 7.49575C44 7.22033 44.2222 7 44.5 7C44.7778 7.05508 45 7.27542 45 7.55083Z" fill="white"/>
<path d="M22.2352 38.0523C22.2352 38.0523 22.1764 37.9347 22 38.0523C22.1176 38.0523 22.2352 38.0523 22.2352 38.0523Z" fill="white"/>
<path d="M36.6992 72.2899C36.6992 72.2899 36.7582 72.2899 36.6992 72.2899C38.3504 72.8766 40.5913 72.8766 42.3604 72.9353C44.1295 72.9353 46.9011 73.2873 48.4343 72.3486C48.4933 72.2899 48.5523 72.2899 48.6702 72.2899C48.6702 72.2312 48.6112 72.1726 48.6112 72.1139C47.7856 70.5885 47.9036 66.4815 48.0805 63.4307C47.9036 64.0174 47.6087 65.0148 47.4908 66.4229C47.2549 68.5937 47.5498 71.8792 47.5498 71.8792L46.5473 67.4203C46.5473 67.4203 46.3704 65.7188 45.3679 66.8336C44.2474 68.0656 42.2424 69.6497 40.3554 67.3029C38.7632 65.4255 38.8811 66.3055 38.7632 67.4203C38.6452 68.4763 38.1145 70.6471 37.8786 71.1165C37.6427 71.5859 37.6427 71.5859 37.6427 71.5859C37.6427 71.5859 38.4094 65.9535 37.2889 63.6653C37.3479 64.252 37.4069 64.8388 37.4658 65.4841C37.7017 69.4151 36.8172 71.9966 36.6992 72.2899Z" fill="white"/>
<path d="M59.4044 26.2333C56.9866 24.7079 54.8637 26.7027 53.8022 27.8761C53.3305 28.4041 53.3305 28.4041 53.3305 28.4041C53.3305 28.4041 53.3305 27.7001 53.4484 26.5266C53.6253 24.0625 52.21 22.185 50.205 23.3584C48.7308 24.2385 50.0281 26.9373 50.0281 26.9373C50.0281 26.9373 49.9102 26.644 48.259 25.8226C45.3695 24.4145 43.1876 26.3506 43.1876 26.3506C43.1876 26.3506 42.9517 25.4119 40.7108 24.9425C37.4085 24.2385 33.9882 27.524 33.9882 27.524C33.9882 27.524 34.1651 26.8787 34.1651 26.2333C34.1651 25.5879 33.8702 23.7691 32.396 23.6518C29.7423 23.4758 29.5064 26.2333 29.5064 26.2333C29.5064 26.2333 28.2091 24.4145 26.9707 24.1212C25.9093 23.8865 22.5479 24.5905 23.9043 28.5214C25.3785 32.8631 30.1551 32.2764 30.1551 32.2764C30.1551 32.2764 28.9757 33.7431 28.9757 34.2712C28.9757 34.2712 24.8478 31.0443 22.5479 30.5749C21.6634 30.3989 18.1841 30.5162 18.0072 33.6845C17.8303 37.7914 20.9557 38.2021 21.8403 38.2608C22.0172 38.1434 22.0762 38.2608 22.0762 38.2608C22.0762 38.2608 21.9582 38.2608 21.8403 38.2608C21.6634 38.3781 21.3685 38.7888 20.7788 39.7275C19.6584 41.7223 20.6609 44.2452 21.8993 46.592C22.9607 48.5281 21.1916 49.5255 21.1916 49.5255C21.1916 49.5255 22.0762 49.5842 22.8428 48.6455C23.5504 47.7067 22.7838 45.9466 21.7813 43.7758C20.7788 41.5463 22.9607 38.9648 24.6709 39.0821C26.7348 39.1995 28.5629 37.8501 28.445 37.9674C28.327 38.0847 26.44 39.2582 27.0887 42.6611C27.6194 45.3599 29.6244 45.8293 29.6244 45.8293C29.6244 45.8293 29.0347 46.4746 27.7373 49.0562C26.7348 50.9923 25.7913 52.9284 28.8578 57.6221C31.9242 62.3157 26.1451 63.3718 28.386 62.7264C31.3935 61.905 30.5679 58.2088 30.0372 57.27C29.2706 55.8033 28.2091 53.7498 28.8578 51.579C29.5064 49.4082 31.6294 45.8293 31.6294 45.8293C31.6294 45.8293 33.2805 47.2374 32.6908 49.7015C32.6908 49.8189 32.7498 49.9362 32.7498 50.0536C32.9857 50.2296 32.9857 50.6403 32.8678 50.8749C33.0447 50.8749 33.2216 50.9336 33.2805 51.1096C33.3985 51.3443 33.3985 51.579 33.3985 51.8137C33.3985 52.107 33.2216 52.283 33.0447 52.3417C33.1036 52.5764 33.1036 52.8111 33.1036 52.9871C33.1036 53.5151 33.1036 53.9845 33.1036 54.5125C33.7523 55.4512 36.6419 59.4995 36.6419 59.4995C36.6419 59.4995 36.6419 59.5582 36.6419 59.6755C36.9367 60.2036 38.9417 63.6651 41.1826 64.6039C42.7748 65.3079 44.7798 64.3692 45.6054 63.1958C46.1361 62.4917 47.7873 60.4382 48.318 59.7929C48.318 59.7342 48.318 59.6755 48.318 59.6755C48.318 59.6755 50.205 57.9741 51.2075 56.566V56.5073C51.2075 56.0966 51.3255 55.6859 51.4434 55.2752C51.3255 55.1579 51.2075 55.0405 51.2075 54.8059C51.2075 54.2192 51.3844 53.6911 51.5024 53.1631C51.6793 52.5764 51.6203 51.9897 51.6793 51.403C51.6793 51.2856 51.7383 51.227 51.7383 51.1683C51.7383 50.3469 51.7383 49.7015 51.7383 49.7015C51.7383 49.7015 52.21 44.0691 53.3305 44.8905C54.4509 45.7119 55.0406 48.8801 54.6278 50.9923C54.215 53.1044 52.9767 56.39 55.6303 58.7368C58.9327 61.553 56.161 61.8463 56.279 61.8463C57.7533 62.3157 58.6968 60.4382 56.3969 58.5021C54.5688 56.918 55.2175 54.1018 56.22 50.7576C56.7507 49.0561 55.7483 46.1813 55.1586 44.3625C54.7458 43.1304 54.8047 43.1304 54.5099 42.133C54.215 41.3116 54.9227 42.133 55.3355 41.3703C55.8072 40.4902 55.6303 38.2608 55.7483 38.6715C56.6328 41.3703 60.4069 41.5463 62.1171 37.6154C63.9451 33.7431 62.8837 28.4041 59.4044 26.2333Z" fill="white"/>
<path d="M41.2399 64.7218C38.9991 63.7244 36.9941 60.3215 36.6992 59.7935C36.7582 60.2628 37.053 61.7296 37.23 63.607C38.2914 65.8952 37.5838 71.5276 37.5838 71.5276C37.5838 71.5276 37.5838 71.5276 37.8197 71.0582C38.0555 70.5888 38.5863 68.418 38.7042 67.362C38.8222 66.3059 38.7632 65.3672 40.2964 67.2446C42.1835 69.5328 44.2474 68.0073 45.3089 66.7753C46.2524 65.7192 46.4883 67.362 46.4883 67.362L47.4908 71.8209C47.4908 71.8209 47.1959 68.5354 47.4318 66.3646C47.6087 64.9565 47.8446 63.9591 48.0215 63.3724C48.1395 61.6122 48.3164 60.2628 48.3753 59.9108C47.8446 60.5562 46.1934 62.6096 45.6627 63.3137C44.8371 64.4284 42.8911 65.3672 41.2399 64.7218Z" fill="#3A3A3A"/>
<path d="M40.4695 44.3628C41.472 44.7735 41.8848 45.8882 41.413 47.6484C40.5875 50.8166 37.58 51.8726 35.575 51.638C33.3931 51.4033 30.8574 48.4697 30.5625 43.1307C35.457 42.6614 38.1697 43.3654 40.4695 44.3628Z" fill="#3D3D3D"/>
<path d="M44.5992 44.3628C43.5967 44.7735 43.1839 45.8882 43.6556 47.6484C44.4812 50.8166 47.4887 51.8726 49.4937 51.638C51.6756 51.4033 54.2113 48.4697 54.5062 43.1307C49.6117 42.6614 46.899 43.3654 44.5992 44.3628Z" fill="#3D3D3D"/>
<path d="M43.4809 58.3852C43.0091 58.5612 42.7732 58.6199 42.6553 58.6786H42.5963H42.5373H42.4784H42.4194C42.3014 58.6199 42.0656 58.5612 41.5938 58.3852C40.8862 58.1505 39.176 58.3265 38.5273 58.4439C38.8222 58.5612 39.117 58.7372 39.294 59.0306C39.7657 59.7346 40.5913 61.0841 42.4194 61.0254C44.3064 61.0841 45.0731 59.7346 45.5448 59.0306C45.7807 58.6786 46.0756 58.5612 46.3704 58.4439C45.8397 58.3265 44.1295 58.1505 43.4809 58.3852Z" fill="#828282"/>
<path d="M40.9429 58.0327C41.5916 57.8567 42.2402 57.798 42.4761 57.798C42.771 57.7393 43.3017 57.7393 43.8914 57.9153C44.8349 58.2087 46.2502 58.15 46.1323 57.798C45.8964 57.6807 45.6605 57.446 45.1298 57.094C44.4811 56.6246 43.4786 56.5659 43.4196 56.5659C43.3017 56.8593 42.771 57.0353 42.5351 57.0353C42.2992 57.0353 41.7685 56.8593 41.6505 56.5659C41.5326 56.5659 40.5891 56.5659 39.9404 57.094C39.4686 57.446 39.2327 57.6807 38.9969 57.798C38.8789 58.0914 39.9994 58.326 40.9429 58.0327Z" fill="#828282"/>
<path d="M47.0811 57.9155C47.0811 57.6221 46.6093 57.9155 46.4324 57.9155C46.3734 57.9155 46.2555 57.9155 46.1965 57.8568C46.1375 58.2089 44.8992 58.2089 43.9556 57.8568C43.307 57.6222 42.8352 57.6808 42.5993 57.7395C42.3045 57.6808 41.8327 57.6808 41.243 57.8568C40.2405 58.2089 38.9432 58.2089 39.0021 57.7982C38.8842 57.8568 38.8252 57.8568 38.7073 57.9155C38.5304 57.9155 38.0586 57.6808 38.0586 57.9155C38.0586 58.2675 38.2945 58.3849 38.6483 58.5609C39.297 58.4435 41.0071 58.2089 41.7148 58.5022C42.1865 58.6782 42.4224 58.7956 42.5403 58.8542H42.5993H42.6583H42.7173H42.7762C42.8942 58.7956 43.13 58.6782 43.6018 58.5022C44.2505 58.2089 45.9017 58.4435 46.6093 58.5609C46.8452 58.3849 47.0811 58.2675 47.0811 57.9155Z" fill="#3D3D3D"/>
<path d="M43.0693 59.4994C43.0693 59.6754 42.8334 59.7928 42.5385 59.7928C42.2437 59.7928 42.0078 59.6754 42.0078 59.4994C42.0078 59.3234 42.2437 59.2061 42.5385 59.2061C42.8334 59.2061 43.0693 59.3234 43.0693 59.4994Z" fill="white"/>
<path d="M42.8943 57.3876C42.8943 57.4464 42.7176 57.5052 42.5409 57.5052C42.3642 57.5052 42.1875 57.4464 42.1875 57.3876C42.1875 57.3288 42.3642 57.27 42.5409 57.27C42.7176 57.27 42.8943 57.3288 42.8943 57.3876Z" fill="white"/>
<path d="M45.6118 52.5766C45.4939 51.7552 44.8452 51.4032 44.9042 51.4618C45.6118 52.1659 45.4349 53.5153 44.9042 53.75C44.7272 53.8087 44.0196 54.102 44.4324 53.8673C44.4914 53.8087 44.6683 53.5153 44.5503 53.2806C44.3734 52.9286 43.9017 52.8113 43.3709 53.4566C42.8992 54.0433 42.6633 53.926 42.6633 53.926C42.6633 53.926 42.4274 54.0433 41.8967 53.4566C41.4249 52.8699 40.8942 52.9286 40.7173 53.2806C40.5993 53.5153 40.7173 53.6913 40.7173 53.75C40.8352 53.926 41.0121 53.9847 41.0121 53.9847C40.9531 53.9847 40.7173 53.9847 40.5993 53.926C39.7148 53.6913 39.6558 52.3419 40.3634 51.5792C40.3634 51.5205 39.7148 51.7552 39.5968 52.5766C39.4789 53.222 39.5968 54.1607 40.4814 54.454C40.7762 54.5714 41.4839 54.5127 41.8967 54.6887C42.1915 54.8061 43.0761 54.7474 43.194 54.6887C43.5478 54.454 43.8427 54.3954 44.5503 54.3954C45.3759 54.3954 45.7297 53.2806 45.6118 52.5766Z" fill="#3D3D3D"/>
<path d="M55.3398 27.877C55.3398 27.8177 55.3991 27.8177 55.3398 27.877C55.3398 27.8177 55.3398 27.8177 55.3398 27.877Z" fill="#3D3D3D"/>
<path d="M34.762 41.3121C34.762 41.3121 34.821 41.136 34.939 40.9014C34.4082 40.96 33.9365 40.96 33.4057 41.0187C33.1109 41.7814 32.934 42.3681 32.875 42.5441C36.3543 42.4268 38.5362 43.0135 40.4232 43.8349C40.3642 43.5415 39.6566 42.4268 39.6566 42.4268C38.3003 41.7814 34.762 41.3121 34.762 41.3121Z" fill="#3D3D3D"/>
<path d="M51.5753 41.194C51.3984 41.1353 51.2215 41.1353 51.0446 41.0767C51.0446 41.1353 51.1036 41.194 51.1036 41.194C51.1036 41.194 50.9266 41.1353 50.5138 41.194C48.5678 41.546 45.2655 42.6021 45.2655 42.6021L44.6758 43.8928C46.6808 43.0128 49.0986 42.3674 52.9906 42.6021C52.8727 42.3087 52.7547 41.898 52.5188 41.3113C52.224 41.3113 51.8702 41.2527 51.5753 41.194Z" fill="#3D3D3D"/>
<path d="M61.7127 36.5593C62.2435 35.4446 62.3024 33.8605 62.3024 33.8605C62.3024 33.8605 61.241 37.8501 58.8232 37.8501C57.172 37.8501 56.8182 37.0874 56.9361 37.0874C58.5873 37.5567 61.8896 36.442 61.8896 31.5723C61.8896 31.5723 61.2999 35.8553 57.172 35.7379C55.167 35.6793 55.4619 34.0952 55.4619 34.0952C57.231 34.5645 58.5283 32.9804 58.5283 32.9804C56.8182 33.6845 55.3439 33.5671 54.4004 31.5723C53.8697 30.4576 54.5773 29.0495 55.226 28.8735C55.9336 28.6388 54.7542 28.9908 54.3414 28.8735C53.9286 28.7561 55.167 27.9348 55.3439 27.8174C55.167 27.8761 54.4594 28.0521 54.3414 27.9348C54.2235 27.8174 54.8132 27.2307 54.8132 27.2307C54.8132 27.2307 53.0441 28.2281 52.8082 28.9908C52.8082 28.9908 52.7492 28.8148 52.6903 28.8148C52.8082 27.6414 52.6313 26.4093 52.2185 25.5879C51.9826 25.1772 51.0981 24.7666 50.9212 25.764C50.7442 26.7027 52.1006 28.2868 52.5133 28.9908C52.2185 29.1082 50.8032 26.9374 50.6263 26.4093C50.1545 25.1186 51.0981 24.4732 51.0981 24.4732C51.0391 24.5319 50.9212 24.3559 50.5673 24.4732C50.3904 24.5319 51.0391 23.8865 51.0391 23.8865C50.8622 23.8865 50.6263 24.0038 50.5084 24.0038C50.2725 23.9452 51.0981 23.3585 51.0981 23.3585C51.0981 23.3585 50.8622 23.1824 50.3314 23.5345C49.8007 23.8865 49.5648 25.1772 49.8597 25.8813C49.9776 26.1746 50.1545 26.82 50.1545 26.82C50.1545 26.82 49.5648 26.5853 49.7417 26.644C50.8622 27.4654 51.0391 28.6388 51.0391 28.6388C50.6263 28.4628 49.9776 28.1108 49.9776 28.1694C50.0366 28.4041 51.9826 29.5775 51.8057 29.7535C51.6288 29.9296 51.3339 29.9296 51.0981 30.1056C51.0981 30.1056 52.2775 30.0469 52.7492 30.6923C53.221 31.3377 52.5723 32.5111 52.5723 32.5111C52.5723 32.5111 53.0441 31.9244 53.6338 32.3937C54.5183 33.0978 53.9876 34.1538 53.8697 34.3885C53.7517 34.6232 54.3414 34.0365 54.4594 34.0952C54.9311 34.1538 54.6363 36.1486 54.6363 36.618C54.6363 36.7353 54.8132 36.1486 54.9901 36.2073C55.3439 36.3247 55.285 37.6154 55.285 38.0848C55.285 38.2608 55.285 38.4955 55.285 38.7301C55.285 38.7888 55.285 38.7888 55.285 38.8475C55.226 39.1408 54.9901 40.1969 54.6363 39.4342C54.5183 39.1408 54.5183 38.7888 54.5773 38.4955C54.6953 38.1434 54.8132 37.8501 54.8722 37.4394C54.9311 37.0287 55.0491 36.5593 54.9901 36.1486C54.9311 36.5007 54.8132 37.3807 54.4594 37.6154C53.9876 37.9088 53.6338 37.146 53.5748 36.794C53.5158 36.442 53.5158 36.09 53.5158 35.7379C53.5158 35.5619 53.5748 35.4446 53.5158 35.2686C53.5158 35.2099 53.4569 35.0926 53.4569 35.0926C53.4569 35.0926 53.3389 35.7379 52.9261 35.5619C52.5723 35.4446 52.8082 33.9192 52.9261 33.5085C52.8672 33.6845 52.8082 34.0952 52.5723 34.2125C52.2185 34.4472 51.9236 33.8605 51.9236 33.8605C50.7442 32.3937 48.9751 31.455 47.0881 31.5723C46.5573 31.631 45.9676 31.7483 45.4369 31.983C45.5548 31.9244 45.4959 31.5723 45.6138 31.455C45.7907 31.2203 46.0266 31.103 46.2625 31.0443C46.6163 30.9856 47.0291 30.8683 47.324 30.9856C47.0291 30.751 46.5573 30.6336 46.1446 30.5749C45.9676 30.5749 45.7318 30.5749 45.5548 30.5749C45.4959 30.5163 45.26 30.5749 45.201 30.3403C45.0831 29.8122 45.9087 29.6362 45.9087 29.6362C45.9087 29.6362 45.0241 29.8122 44.9062 29.0495C44.8472 28.4628 45.4959 28.4628 45.4959 28.4628C45.1421 28.2868 44.8472 28.1694 44.8472 27.8174C44.9062 27.2307 45.4959 27.1134 45.4959 27.1134C45.4959 27.1134 43.6678 26.4093 46.2625 25.1772C46.0266 25.2946 44.7293 25.3533 44.1985 25.6466C43.9037 25.8226 44.5523 25.4706 44.5523 25.4706L44.8472 24.8839L42.1346 24.4732L41.0731 24.7665C41.0731 24.7665 41.5449 25.0012 41.7807 25.5293C42.0756 26.2333 41.6628 26.2333 41.6628 26.2333C41.6628 26.2333 41.6628 26.292 41.7218 26.468C41.8397 26.7613 41.5449 26.82 41.5449 26.82C41.5449 26.82 41.8397 26.8787 41.8397 27.2307C41.7807 27.7587 41.1321 28.1108 41.1321 28.1108C41.1321 28.1108 41.309 28.2868 41.368 28.3455C41.7807 28.6388 41.368 29.3429 40.4834 29.4602C41.6038 29.6949 41.4859 30.751 40.0116 30.6923C38.2425 30.6923 33.8787 32.3351 32.1096 36.3833C31.5199 37.6741 31.402 38.7301 31.225 39.0235C30.9302 39.5515 30.6353 39.0235 30.5174 38.8475C30.4584 38.4955 30.0456 36.266 30.1046 35.4446C30.1636 34.8579 31.1661 35.2099 31.1661 35.2099C31.1661 35.2099 30.8712 33.9192 30.9892 33.5671C31.225 32.9218 32.8762 31.807 32.9942 31.7483C32.9942 31.7483 31.6378 31.8657 30.8123 32.3351C30.2815 32.6871 31.7558 31.0443 32.5814 30.4576C33.4659 29.8709 34.0556 29.2842 34.0556 29.2842C34.0556 29.2842 32.8172 30.0469 31.8147 30.5163C31.9327 30.2229 32.4045 29.2255 33.1711 28.5215C33.407 28.2868 34.0556 27.6414 34.0556 27.6414L34.4094 27.0547H34.1736C34.1736 27.0547 33.8197 27.8761 33.7608 27.5241C33.7018 27.172 33.23 24.8839 31.343 25.4706C30.9302 25.5879 30.5764 25.8226 30.3405 26.1746C30.2225 26.4093 30.2815 26.5853 30.1636 26.644C29.9277 26.7613 29.9867 25.9986 30.1636 25.764C30.5764 25.2946 29.8098 25.8813 29.7508 26.116C29.7508 26.1746 29.5739 26.0573 29.8098 25.3533C29.8687 25.2359 29.397 25.7053 29.4559 25.8813C29.6328 26.3507 29.338 26.644 29.6918 27.7001C30.0456 28.7561 29.9867 29.5189 29.6918 29.5775C29.7508 28.5801 28.5714 26.468 27.4509 26.116C27.392 26.116 26.0357 25.4706 25.387 26.5267C24.9152 27.2307 24.6204 26.9374 24.3845 26.7027C24.0896 26.4093 23.9127 27.5827 24.4435 28.5215C25.2101 29.9296 25.0332 29.5189 25.269 29.8709C25.446 30.1056 25.6818 30.6923 25.0332 30.3989C24.3255 30.0469 25.8587 31.3963 25.8587 31.3963L27.4509 32.3937H29.8098L28.9842 33.9192V34.3299L26.9792 33.2738L28.6893 35.1512C28.6893 35.1512 28.8073 35.2686 28.7483 35.4446L28.4534 35.2686C28.2176 35.0926 27.9817 34.9166 27.7458 34.7405C27.0381 34.2125 26.3305 33.6845 25.5639 33.2151C25.0921 32.9218 24.6204 32.6871 24.1486 32.5111C23.441 32.2177 22.6743 32.1004 21.9667 32.3351C21.7308 32.3937 21.4949 32.5111 21.318 32.6284C20.3745 33.2738 20.0796 34.7405 20.3155 35.7379C20.4335 36.2073 20.6104 36.5593 20.6104 36.5593C20.4924 36.7353 19.6669 36.618 19.2541 36.1486C18.8413 35.6793 18.7823 35.3859 18.7823 35.3859C18.7823 35.3859 18.7233 36.09 19.4899 37.0874C20.0796 37.9088 20.5514 37.7914 20.1976 37.7914C19.8438 37.7914 19.6669 37.9674 19.6669 37.9674L20.1386 38.3781L21.377 38.9648C21.377 38.9648 21.318 38.9648 21.436 38.8475C21.8488 38.3781 22.6743 37.6154 23.9717 37.6154C24.7383 37.6154 25.5639 37.6154 25.9767 37.6741C26.9202 37.7914 28.5124 37.8501 28.5124 36.97C28.9252 37.6741 28.2176 38.2608 28.0996 38.3195C27.9227 38.3781 27.4509 39.1995 27.4509 39.1995C27.4509 39.1995 28.2765 38.2021 28.8073 38.1434C29.338 38.0848 29.0431 36.794 29.4559 36.8527C29.8098 36.9114 30.3405 38.3195 30.5174 38.7301C30.5764 39.2582 30.8712 41.077 30.3405 40.901C29.6918 40.6663 29.397 39.3755 29.397 39.3755C29.279 39.9622 29.6918 40.901 29.9277 41.1943C30.5174 41.8397 29.9867 42.0157 29.5149 41.605C28.8073 40.901 28.5714 39.4342 28.5714 39.4342C28.2765 40.1969 28.8073 41.8397 29.1611 42.3677C29.5149 42.8958 29.1611 43.1891 29.0431 43.1891C28.2176 43.1891 27.8048 40.1969 27.8048 40.1969C27.8048 40.1969 27.392 40.901 27.7458 42.8958C28.0406 44.5972 29.5149 45.8293 29.5149 45.8293L29.6918 46.0053C29.6918 46.0053 29.6918 46.0053 29.8098 45.8293C30.2225 45.2426 30.5174 44.1865 30.7533 43.0718C30.8123 42.8958 30.7533 42.6024 30.6943 42.4264H30.9892C31.402 40.6663 31.7558 38.7301 32.1686 37.6741C33.23 34.7992 35.5889 33.0978 37.4759 32.5111C39.5988 31.807 41.7218 32.5697 41.4859 33.3325C41.4269 33.4498 41.4859 33.3911 41.309 33.3911C35.7068 34.2125 33.4659 41.0183 33.0531 42.309C33.1711 42.2504 33.23 42.1917 33.407 42.1917C33.8787 42.1917 34.2915 42.309 34.7633 42.309H34.8222C36.7683 42.0157 38.4194 42.8371 40.3065 43.1891C40.0706 42.7784 39.8347 42.3677 39.8347 42.3677C38.4784 41.6637 34.9402 41.253 34.9402 41.1943C34.8812 41.1943 35.353 40.3143 35.4119 40.2556C35.6478 39.9036 35.9427 39.4929 36.2375 39.1408C36.8272 38.4368 37.4759 37.7914 38.1246 37.2047C38.3605 36.97 38.6553 36.794 38.9502 36.618C39.7757 36.09 40.7782 35.6793 41.6628 35.2686C41.8987 35.1512 42.0756 35.0926 42.3115 34.9752C42.4884 34.9166 43.4319 34.4472 43.4319 34.4472C43.4319 34.4472 43.0191 34.2712 43.0191 34.1538C43.0191 34.0952 42.8422 34.1538 43.1371 33.3911C43.5499 32.3351 43.5499 29.7535 43.5499 29.7535V29.0495C43.7268 29.1082 43.6678 31.279 43.6678 31.983C43.6678 32.1004 43.6678 32.2177 43.6678 32.2177C43.6088 34.4472 44.8472 35.8553 44.9062 35.6206C45.0241 35.1512 45.7907 34.6819 47.6188 35.9726C49.8597 37.5567 51.216 40.9596 51.216 40.9596C51.216 40.9596 51.0391 40.901 50.6263 40.9596C48.6803 41.3117 45.3779 42.3677 45.3779 42.3677L44.9651 43.3065C46.9112 42.4264 49.211 42.3091 51.216 41.781C51.5698 41.6637 51.8647 41.8984 51.9236 42.1917C52.2775 42.133 52.6903 42.133 53.0441 42.1917C52.4544 40.4903 49.9776 34.0365 47.147 33.4498C46.9112 33.3911 48.6803 34.3299 48.4444 34.7405C48.4444 34.7405 45.9676 33.0391 44.4934 33.8605C44.4344 33.9192 44.7293 32.9218 45.319 32.5111C45.8497 32.1004 46.9701 31.631 48.9162 32.2764C50.5084 32.7457 51.7467 34.0365 52.5133 35.4446C53.5748 37.3221 53.9876 39.4929 54.5773 41.5463C54.6953 41.8984 54.8132 42.2504 54.9311 42.5437C55.0491 42.8371 55.5208 41.3117 55.5208 41.3117C55.167 41.7223 54.9311 41.4877 55.0491 40.9596C55.0491 40.8423 55.167 40.7836 55.285 40.4316C55.285 40.3729 55.285 40.3729 55.285 40.3143C55.5798 39.8449 55.6388 38.0261 55.6978 37.4394C55.6978 37.2634 55.9336 38.5541 55.9336 38.5541C55.9336 38.5541 55.9926 39.4929 56.8182 40.0209C57.0541 40.1969 56.7002 39.7275 57.4079 39.9622C58.2924 40.2556 60.2385 40.3143 61.2999 38.2021C61.2999 38.2021 59.7077 39.7275 58.7052 39.1408C58.5873 39.3755 60.4743 39.1995 61.7127 36.5593ZM26.0946 37.2047C25.2101 37.4981 23.6768 37.4981 23.2051 37.4394C22.6743 37.3807 21.9077 37.2047 21.4949 36.7353C21.0232 36.2073 20.5514 35.6206 20.6693 34.6819C20.7283 34.3299 20.8463 34.0952 20.8463 34.0952C20.9052 34.3299 20.9052 34.9166 21.2001 35.6206C22.2026 37.9674 26.5664 36.8527 27.0971 36.5593C27.4509 36.3247 27.6279 36.266 27.6279 36.266C27.274 36.7353 26.9202 36.97 26.0946 37.2047ZM30.5764 27.6414C30.6943 27.8761 30.8712 28.0521 31.0481 28.1108C31.8737 28.5215 32.8762 28.2281 32.8762 28.2281C32.8762 28.2281 32.2865 29.1082 31.343 28.8148C31.0481 28.7561 30.7533 28.5215 30.5174 27.9934C30.3995 27.7587 30.3995 27.5241 30.5764 27.6414ZM26.5664 30.0469C25.387 29.2842 24.9742 28.2868 25.5639 27.2307C25.5639 27.2307 25.5049 27.9934 25.6229 28.4041C26.2715 30.1056 29.5149 30.3989 29.5149 30.3989C29.5149 30.3989 29.5149 30.5163 29.5739 29.9296C29.8098 30.1642 30.1046 30.3403 30.4584 30.4576C31.284 30.6923 31.284 30.6336 31.284 30.6336L31.4609 30.5749C31.225 30.6923 31.0481 30.7509 30.8712 30.8096C30.7533 30.927 28.1586 31.0443 26.5664 30.0469ZM40.1296 31.8657C39.5988 31.7484 38.9502 31.6897 38.2425 31.6897C38.8322 31.5723 39.8347 31.455 40.0706 31.5723C40.3655 31.6897 40.1885 31.807 40.1296 31.8657Z" fill="#3D3D3D"/>
<path d="M52.102 28.8149C52.1608 28.8737 52.1608 28.8737 52.102 28.8149C52.102 28.8737 52.0432 28.8149 51.9844 28.8149H52.102Z" fill="#3D3D3D"/>
<path d="M51.8562 50.6406L46.8438 61.788C46.8438 61.788 49.7923 58.1505 50.7358 57.1531C51.6793 56.1557 51.3845 56.1557 51.3845 56.1557L51.8562 50.6406Z" fill="#828282"/>
<path d="M38.5295 61.9635L33.1042 50.112L32.6914 49.584C32.6914 49.584 32.9863 54.571 33.1632 54.8057C33.7529 55.627 33.6349 55.3924 34.1657 56.0964C34.6964 56.8591 38.5295 61.9635 38.5295 61.9635Z" fill="#828282"/>
<path fill-rule="evenodd" clip-rule="evenodd" d="M50.1498 58.3587C48.9697 59.7309 47.6053 61.3662 46.8456 62.4418C45.5913 64.2244 44.3569 65.2305 42.5444 65.2927C41.5011 65.3241 40.6976 64.8829 40.1624 64.443C39.8946 64.2229 39.691 64.0011 39.5541 63.834C39.4855 63.7502 39.4333 63.6798 39.3978 63.6296C39.3801 63.6045 39.3665 63.5844 39.357 63.5702L39.3485 63.5572L33.9884 56.7006L34.3375 56.4305L39.711 63.3041L39.717 63.3137L39.7187 63.3164L39.7263 63.328C39.7334 63.3387 39.7445 63.3551 39.7595 63.3764C39.7897 63.419 39.8356 63.4811 39.8969 63.556C40.0198 63.706 40.2033 63.9059 40.4441 64.1038C40.926 64.4999 41.627 64.88 42.5295 64.8529C44.137 64.7976 45.2613 63.9263 46.4835 62.1891C47.257 61.0939 48.635 59.4433 49.8137 58.0726C50.4042 57.386 50.9467 56.7674 51.3415 56.3204C51.5389 56.0969 51.6995 55.9163 51.8107 55.7915L51.939 55.6478L51.9833 55.5984L51.9839 55.5977L52.3138 55.8908L52.2693 55.9404L52.1416 56.0835C52.0308 56.2078 51.8707 56.3879 51.6737 56.6109C51.2798 57.0568 50.7387 57.6739 50.1498 58.3587Z" fill="#3D3D3D"/>
<path d="M31.6328 24.9422C31.6328 24.9422 32.6943 25.0596 32.9302 25.2943C33.166 25.529 33.5788 26.1743 33.5788 26.1743C33.5788 26.1743 33.284 24.4142 33.7557 24.2382C34.2275 24.0622 32.9891 23.1821 32.9891 23.1821L32.5174 23.4755C32.4584 23.4168 32.6943 24.8249 31.6328 24.9422Z" fill="#3D3D3D"/>
<path d="M27.207 23.71C27.207 23.71 27.089 24.4727 27.089 24.766C27.089 25.2941 26.6762 25.2941 26.4993 25.5874C26.4403 25.6461 27.2069 25.5874 27.7377 25.8221C27.9736 25.9394 28.3274 26.2328 28.3864 26.3501C28.3864 26.3501 28.2684 25.8221 28.2684 25.6461C28.3274 25.0594 28.6222 24.766 28.6222 24.7074C28.6222 24.6487 28.0325 24.1207 28.0325 24.1207L27.6787 24.062L27.207 23.71Z" fill="#3D3D3D"/>
<path d="M22.0201 40.959C22.0201 40.959 21.1946 42.2497 21.1356 43.1298C21.0766 44.0099 21.1356 44.9486 21.1356 44.9486C21.1356 44.9486 21.3715 42.2497 22.0791 42.8951C22.7868 43.5405 22.5509 42.0737 22.5509 42.0737L22.0201 40.959Z" fill="#3D3D3D"/>
<path d="M29.1558 50.8159C29.1558 50.8159 27.2688 54.5122 29.3327 57.211C29.3327 57.211 28.3892 54.8055 29.3917 53.9841C30.689 52.9281 28.861 52.5174 28.861 52.5174L29.1558 50.8159Z" fill="#3D3D3D"/>
<path d="M42.3486 16.5278C55.4251 16.5278 66.4989 25.0235 70.092 36.6832C66.7345 24.6134 55.6018 15.7075 42.3486 15.7075C29.2132 15.7075 18.1394 24.4376 14.6641 36.3902C18.375 24.9063 29.3899 16.5278 42.3486 16.5278Z" fill="white"/>
<path d="M19.9609 61.8188C25.2622 68.3225 33.332 72.4824 42.3442 72.4824C50.5906 72.4824 58.0124 69.0256 63.2548 63.518C57.659 68.7326 50.4139 71.8965 42.462 71.8965C33.6854 71.8965 25.7335 68.0295 19.9609 61.8188Z" fill="#3D3D3D"/>
<path d="M19.9609 62.3462C25.2622 68.8498 33.332 73.0098 42.3442 73.0098C50.5906 73.0098 58.0124 69.5529 63.2548 64.0453C57.659 69.2599 50.4139 72.4239 42.462 72.4239C33.6854 72.4239 25.7335 68.5569 19.9609 62.3462Z" fill="white"/>
</svg>
