<svg width="261" height="89" viewBox="0 0 261 89" fill="none" xmlns="http://www.w3.org/2000/svg">
<g clip-path="url(#clip0_965_19427)">
<path d="M4.16578 40.2248L0.520153 39.6956C0.461353 40.46 0.34375 41.1656 0.34375 41.93L4.04818 42.0476C4.04818 41.4596 4.10698 40.8128 4.16578 40.2248Z" fill="white"/>
<path d="M5.57614 33.2861L2.04811 32.1101C1.93051 32.5217 1.81291 32.9921 1.69531 33.4037L5.28214 34.2857C5.39974 33.9329 5.51734 33.6389 5.57614 33.2861Z" fill="white"/>
<path d="M7.22293 60.0991L3.8125 61.5103C4.2829 62.5687 4.75331 63.5683 5.28251 64.568L8.51654 62.7451C8.04613 61.8631 7.63453 60.9811 7.22293 60.0991Z" fill="white"/>
<path d="M5.75459 56.2183L2.22656 57.2767C2.52056 58.0999 2.81457 58.9231 3.10857 59.7463L6.519 58.3351C6.22499 57.6295 5.98979 56.9239 5.75459 56.2183Z" fill="white"/>
<path d="M4.755 52.3374L1.10938 53.043C1.22698 53.631 1.40338 54.219 1.52098 54.8658L5.10781 53.8662C4.9314 53.337 4.8138 52.8666 4.755 52.3374Z" fill="white"/>
<path d="M3.98946 46.6926L0.285034 46.8102C0.343835 47.751 0.402636 48.633 0.520237 49.5738L4.16586 49.0446C4.10706 48.2214 4.04826 47.457 3.98946 46.6926Z" fill="white"/>
<path d="M42.5028 2.41089C27.9791 2.41089 15.2194 9.70214 7.57536 20.8154L10.6918 22.8146C17.6302 12.701 29.2727 6.11532 42.5028 6.11532C63.7886 6.11532 81.0759 23.4027 81.0759 44.6884C81.0759 65.9742 63.7886 83.2615 42.5028 83.2615C28.3907 83.2615 16.0426 75.6763 9.33937 64.3866L6.10535 66.2094C13.4554 78.6163 27.0383 86.966 42.5028 86.966C65.8466 86.966 84.7804 68.0322 84.7804 44.6884C84.7804 21.3446 65.8466 2.41089 42.5028 2.41089Z" fill="white"/>
<path d="M42.5037 0C24.0991 0 8.28179 11.1721 1.46094 27.107C1.93134 27.2834 2.34295 27.4598 2.75455 27.695C9.3402 12.3481 24.6871 1.47001 42.5037 1.47001C66.3179 1.47001 85.722 20.8742 85.722 44.6884C85.722 68.5025 66.3179 87.9067 42.5037 87.9067C30.0968 87.9067 18.9247 82.6734 11.0454 74.3238C10.6926 74.6178 10.3398 74.9706 9.92821 75.2058C18.1015 83.9083 29.6852 89.3179 42.5037 89.3179C67.1411 89.3179 87.1332 69.2669 87.1332 44.6884C87.192 20.051 67.1411 0 42.5037 0Z" fill="white"/>
<path d="M73.6091 44.5169C73.6091 61.6867 59.6734 75.6224 42.5037 75.6224C25.334 75.6224 11.3983 61.6867 11.3983 44.5169C11.3983 27.3472 25.334 13.4115 42.5037 13.4115C59.6734 13.4115 73.6091 27.3472 73.6091 44.5169Z" fill="#3D3D3D"/>
<path d="M4.63515 26.1125C4.63515 27.2297 3.75314 28.1117 2.63594 28.1117C1.51873 28.1117 0.636719 27.2297 0.636719 26.1125C0.636719 24.9953 1.51873 24.1133 2.63594 24.1133C3.75314 24.1721 4.63515 25.0541 4.63515 26.1125Z" fill="white"/>
<path d="M43.1483 7.29629C43.1483 7.5903 42.9131 7.8255 42.619 7.8255C42.325 7.8255 42.0898 7.5903 42.0898 7.29629C42.0898 7.00229 42.325 6.76709 42.619 6.76709C42.9131 6.82589 43.1483 7.06109 43.1483 7.29629Z" fill="white"/>
<path d="M41.8553 7.35513C41.8553 7.64913 41.6201 7.88434 41.3261 7.88434C41.0321 7.88434 40.7969 7.64913 40.7969 7.35513C40.7969 7.06113 41.0321 6.82593 41.3261 6.82593C41.6201 6.82593 41.8553 7.06113 41.8553 7.35513Z" fill="white"/>
<path d="M40.5621 7.35517C40.5621 7.64917 40.3857 7.88437 40.0917 7.88437C39.7977 7.88437 39.5625 7.70797 39.5625 7.41397C39.5625 7.11997 39.7389 6.88477 40.0329 6.88477C40.2681 6.88477 40.5033 7.11997 40.5621 7.35517Z" fill="white"/>
<path d="M39.2706 7.47284C39.3294 7.76685 39.0942 8.00205 38.8002 8.06085C38.5062 8.11965 38.271 7.88445 38.2122 7.59045C38.1534 7.29644 38.3886 7.06124 38.6826 7.00244C38.9766 7.00244 39.2118 7.17884 39.2706 7.47284Z" fill="white"/>
<path d="M37.9737 7.59028C38.0325 7.88428 37.7973 8.11948 37.5033 8.17828C37.2093 8.23708 36.9741 8.00188 36.9153 7.70788C36.8565 7.41388 37.0917 7.17867 37.3857 7.11987C37.6797 7.11987 37.9149 7.35507 37.9737 7.59028Z" fill="white"/>
<path d="M36.6828 7.82546C36.7416 8.11946 36.5651 8.35466 36.2711 8.41346C35.9771 8.47226 35.7419 8.29586 35.6831 8.00186C35.6243 7.70786 35.8007 7.47265 36.0947 7.41385C36.3887 7.35505 36.624 7.53146 36.6828 7.82546Z" fill="white"/>
<path d="M35.3898 8.00194C35.4486 8.29594 35.2722 8.53114 34.9782 8.58994C34.6842 8.64874 34.449 8.47234 34.3902 8.17834C34.3314 7.88433 34.5078 7.64913 34.8018 7.59033C35.037 7.59033 35.331 7.76673 35.3898 8.00194Z" fill="white"/>
<path d="M34.1555 8.29589C34.2143 8.58989 34.0379 8.8839 33.8027 8.9427C33.5087 9.0015 33.2147 8.82509 33.1559 8.58989C33.0971 8.29589 33.2735 8.00189 33.5087 7.94309C33.8027 7.82549 34.0379 8.00189 34.1555 8.29589Z" fill="white"/>
<path d="M32.8581 8.64867C32.9169 8.94268 32.7993 9.23668 32.5053 9.29548C32.2113 9.35428 31.9173 9.23668 31.8584 8.94268C31.7996 8.64867 31.9173 8.35467 32.2113 8.29587C32.5053 8.17827 32.7993 8.35467 32.8581 8.64867Z" fill="white"/>
<path d="M31.6263 9.00145C31.7439 9.29546 31.5675 9.58946 31.2735 9.64826C30.9795 9.76586 30.6855 9.58946 30.6267 9.29546C30.5091 9.00145 30.6855 8.70745 30.9795 8.64865C31.2735 8.53105 31.5675 8.70745 31.6263 9.00145Z" fill="white"/>
<path d="M30.3884 9.41329C30.506 9.70729 30.3296 10.0013 30.0944 10.0601C29.8004 10.1777 29.5064 10.0013 29.4476 9.76609C29.33 9.47209 29.5064 9.17808 29.7416 9.11928C29.9768 9.00168 30.2708 9.11928 30.3884 9.41329Z" fill="white"/>
<path d="M29.154 9.8246C29.2716 10.1186 29.154 10.4126 28.86 10.5302C28.566 10.6478 28.272 10.5302 28.1544 10.2362C28.0368 9.9422 28.1544 9.6482 28.4484 9.5306C28.7424 9.413 29.0952 9.5894 29.154 9.8246Z" fill="white"/>
<path d="M27.9791 10.3542C28.0967 10.5894 27.9791 10.9422 27.7439 11.0598C27.5087 11.1774 27.1559 11.0598 27.0383 10.8246C26.9207 10.5894 27.0383 10.2366 27.2735 10.119C27.5675 9.94261 27.8615 10.0602 27.9791 10.3542Z" fill="white"/>
<path d="M26.8034 10.8831C26.921 11.1183 26.8034 11.4712 26.5682 11.5888C26.333 11.7064 25.9802 11.5888 25.8626 11.3536C25.745 11.1184 25.8626 10.7655 26.0978 10.6479C26.333 10.4715 26.6858 10.5891 26.8034 10.8831Z" fill="white"/>
<path d="M25.6265 11.4122C25.7441 11.6474 25.6853 12.0002 25.3913 12.1178C25.1561 12.2354 24.8033 12.1766 24.6857 11.8826C24.5681 11.6474 24.6269 11.2946 24.9209 11.177C25.1561 11.0594 25.5089 11.177 25.6265 11.4122Z" fill="white"/>
<path d="M24.5111 12.0592C24.6287 12.2944 24.5699 12.6472 24.3347 12.7648C24.0995 12.8824 23.7467 12.8236 23.6291 12.5884C23.5115 12.3532 23.5703 12.0004 23.8055 11.8828C24.0407 11.7064 24.3347 11.824 24.5111 12.0592Z" fill="white"/>
<path d="M23.3341 12.7062C23.5105 12.9414 23.3929 13.2942 23.1577 13.4118C22.9225 13.5882 22.5697 13.4706 22.4521 13.2354C22.2757 13.0002 22.3933 12.6474 22.6285 12.5298C22.8637 12.3534 23.2165 12.471 23.3341 12.7062Z" fill="white"/>
<path d="M22.2773 13.4113C22.4537 13.6465 22.3949 13.9993 22.1597 14.1169C21.9245 14.2933 21.5717 14.2345 21.4541 13.9993C21.2777 13.7641 21.3365 13.4113 21.5717 13.2937C21.8069 13.0585 22.1009 13.1761 22.2773 13.4113Z" fill="white"/>
<path d="M21.2187 14.1171C21.3951 14.3523 21.3363 14.6463 21.1011 14.8227C20.8659 14.9991 20.5719 14.9403 20.3955 14.7051C20.2191 14.4699 20.2779 14.1759 20.5131 13.9995C20.6895 13.8231 21.0423 13.8819 21.2187 14.1171Z" fill="white"/>
<path d="M20.1602 14.8814C20.3366 15.1166 20.2777 15.4106 20.0425 15.587C19.8073 15.7634 19.5133 15.7046 19.3369 15.4694C19.1605 15.2342 19.2193 14.9402 19.4545 14.7638C19.6309 14.6462 19.9837 14.6462 20.1602 14.8814Z" fill="white"/>
<path d="M19.1011 15.7046C19.2775 15.9398 19.2775 16.2338 19.0423 16.4102C18.8071 16.5866 18.5131 16.5866 18.3367 16.3514C18.1603 16.1162 18.1603 15.8222 18.3955 15.6458C18.6307 15.4106 18.9247 15.4694 19.1011 15.7046Z" fill="white"/>
<path d="M18.1011 16.5279C18.2775 16.7631 18.2775 17.0571 18.0423 17.2335C17.8071 17.4099 17.5131 17.4099 17.3367 17.1747C17.1603 16.9395 17.1603 16.6455 17.3955 16.4691C17.6307 16.2927 17.9247 16.2927 18.1011 16.5279Z" fill="white"/>
<path d="M17.1584 17.4101C17.3348 17.6453 17.3348 17.9393 17.1584 18.1745C16.9232 18.351 16.6292 18.351 16.394 18.1745C16.2176 17.9393 16.2176 17.6453 16.394 17.4689C16.6292 17.1749 16.982 17.1749 17.1584 17.4101Z" fill="white"/>
<path d="M16.2182 18.2921C16.4534 18.4685 16.4534 18.8213 16.2182 19.0565C16.0417 19.2917 15.6889 19.2917 15.4537 19.0565C15.2185 18.8801 15.2185 18.5273 15.4537 18.2921C15.6889 18.1157 16.0417 18.1157 16.2182 18.2921Z" fill="white"/>
<path d="M15.3355 19.2327C15.5707 19.4091 15.5707 19.7619 15.3943 19.9971C15.2179 20.2323 14.8651 20.2323 14.6299 20.0559C14.3947 19.8795 14.3947 19.5267 14.5711 19.3503C14.8063 19.0563 15.1003 19.0563 15.3355 19.2327Z" fill="white"/>
<path d="M14.4563 20.2325C14.6915 20.4089 14.6915 20.7617 14.5151 20.9381C14.3387 21.1733 13.9859 21.1733 13.8095 20.9969C13.5743 20.8205 13.5743 20.4677 13.7507 20.2913C13.9271 20.0561 14.2799 19.9973 14.4563 20.2325Z" fill="white"/>
<path d="M13.6324 21.1734C13.8676 21.3498 13.8676 21.7026 13.75 21.879C13.5736 22.1142 13.2208 22.173 13.0444 21.9966C12.8092 21.8202 12.7504 21.4674 12.9268 21.291C13.1032 21.0558 13.3972 21.0558 13.6324 21.1734Z" fill="white"/>
<path d="M12.8668 22.2317C13.102 22.4081 13.1608 22.7021 12.9844 22.9373C12.808 23.1725 12.514 23.2313 12.2788 23.0549C12.0436 22.8785 11.9848 22.5845 12.1612 22.3493C12.2788 22.1141 12.6316 22.0553 12.8668 22.2317Z" fill="white"/>
<path d="M12.105 23.2901C12.3402 23.4665 12.399 23.7605 12.2226 23.9957C12.0462 24.2309 11.7522 24.2897 11.517 24.1133C11.2818 23.9369 11.223 23.6429 11.3994 23.4077C11.517 23.1725 11.8698 23.1137 12.105 23.2901Z" fill="white"/>
<path d="M11.3386 24.3484C11.5738 24.5248 11.6326 24.8188 11.515 25.054C11.3386 25.2892 11.0446 25.348 10.8094 25.2304C10.5742 25.054 10.5154 24.76 10.633 24.5248C10.8094 24.2896 11.1034 24.2307 11.3386 24.3484Z" fill="white"/>
<path d="M10.6929 25.4655C10.9281 25.5831 11.0457 25.9359 10.8693 26.1711C10.7517 26.4063 10.3989 26.5239 10.1637 26.3475C9.92848 26.2299 9.81088 25.8771 9.98728 25.6419C10.1049 25.4067 10.4577 25.3479 10.6929 25.4655Z" fill="white"/>
<path d="M10.0447 26.5829C10.2799 26.7005 10.3975 27.0533 10.2799 27.2885C10.1623 27.5237 9.80951 27.6413 9.5743 27.5237C9.3391 27.4061 9.2215 27.0533 9.3391 26.8181C9.45671 26.5241 9.80951 26.4653 10.0447 26.5829Z" fill="white"/>
<path d="M9.45877 27.7587C9.69397 27.8763 9.81157 28.1703 9.69397 28.4643C9.57637 28.6995 9.28237 28.8171 8.98837 28.6995C8.75317 28.5819 8.63557 28.2879 8.75317 27.9939C8.87077 27.6999 9.16477 27.5823 9.45877 27.7587Z" fill="white"/>
<path d="M8.86893 28.8762C9.10413 28.9938 9.22173 29.2878 9.10413 29.5818C8.98653 29.817 8.69253 29.9346 8.39852 29.817C8.16332 29.6994 8.04572 29.4054 8.16332 29.1114C8.28092 28.8762 8.57492 28.8174 8.86893 28.8762Z" fill="white"/>
<path d="M8.34027 30.111C8.63427 30.2286 8.75187 30.5226 8.63427 30.8166C8.51667 31.1106 8.22267 31.2282 7.92867 31.1106C7.63466 30.993 7.51706 30.699 7.63466 30.405C7.75227 30.111 8.10507 29.9934 8.34027 30.111Z" fill="white"/>
<path d="M7.87156 31.287C8.16556 31.4046 8.28316 31.6986 8.16556 31.9338C8.04796 32.2278 7.75396 32.3454 7.51875 32.2278C7.22475 32.1102 7.10715 31.8162 7.22475 31.581C7.28355 31.3458 7.57756 31.2282 7.87156 31.287Z" fill="white"/>
<path d="M7.39979 32.5217C7.69379 32.6393 7.81139 32.9333 7.75259 33.1685C7.69379 33.4625 7.39979 33.5801 7.10578 33.5213C6.81178 33.4037 6.69418 33.1685 6.75298 32.8745C6.87058 32.5805 7.16458 32.4041 7.39979 32.5217Z" fill="white"/>
<path d="M7.04432 33.7565C7.33832 33.8153 7.45592 34.1093 7.39712 34.4033C7.33832 34.6973 7.04432 34.8149 6.75031 34.7561C6.45631 34.6973 6.33871 34.4033 6.39751 34.1093C6.45631 33.8153 6.75031 33.6977 7.04432 33.7565Z" fill="white"/>
<path d="M6.69146 34.9914C6.98546 35.0502 7.16186 35.3442 7.04426 35.6382C6.98546 35.9322 6.69146 36.1086 6.39745 35.991C6.10345 35.9322 5.92705 35.6382 6.04465 35.3442C6.10345 35.109 6.39745 34.9326 6.69146 34.9914Z" fill="white"/>
<path d="M6.34166 36.2852C6.63567 36.344 6.81207 36.638 6.75327 36.8732C6.69447 37.1672 6.40047 37.3436 6.10646 37.2848C5.81246 37.226 5.63606 36.932 5.69486 36.6968C5.81246 36.4028 6.10646 36.2264 6.34166 36.2852Z" fill="white"/>
<path d="M6.10708 37.5198C6.40109 37.5786 6.57749 37.8138 6.51868 38.1078C6.45988 38.4018 6.22468 38.5782 5.93068 38.5194C5.63668 38.4606 5.46028 38.2254 5.51908 37.9314C5.51908 37.6962 5.81308 37.461 6.10708 37.5198Z" fill="white"/>
<path d="M5.86925 38.8133C6.16326 38.8721 6.33966 39.1073 6.33966 39.4013C6.28086 39.6953 6.04566 39.8717 5.75165 39.8717C5.45765 39.8129 5.28125 39.5777 5.28125 39.2837C5.34005 38.9897 5.57525 38.7545 5.86925 38.8133Z" fill="white"/>
<path d="M5.69347 40.107C5.98748 40.1658 6.16388 40.401 6.16388 40.695C6.16388 40.989 5.86987 41.1654 5.57587 41.1654C5.28187 41.1066 5.10547 40.8714 5.10547 40.5774C5.16427 40.2834 5.39947 40.0482 5.69347 40.107Z" fill="white"/>
<path d="M5.57734 41.4007C5.87134 41.4007 6.10654 41.6947 6.04774 41.9299C6.04774 42.2239 5.75374 42.4591 5.51854 42.4003C5.22454 42.4003 4.98933 42.1063 5.04813 41.8711C5.04813 41.5771 5.28334 41.3419 5.57734 41.4007Z" fill="white"/>
<path d="M5.45889 42.6942C5.75289 42.6942 5.9881 42.9294 5.9881 43.2234C5.9881 43.5174 5.75289 43.7526 5.45889 43.7526C5.16489 43.7526 4.92969 43.5174 4.92969 43.2234C4.92969 42.8706 5.16489 42.6942 5.45889 42.6942Z" fill="white"/>
<path d="M5.45889 43.9878C5.75289 43.9878 5.9881 44.223 5.9881 44.517C5.9881 44.811 5.75289 45.0462 5.45889 45.0462C5.16489 45.0462 4.92969 44.811 4.92969 44.517C4.92969 44.223 5.16489 43.9878 5.45889 43.9878Z" fill="white"/>
<path d="M5.45889 45.2815C5.75289 45.2815 5.9881 45.5167 5.9881 45.8107C5.9881 46.1047 5.75289 46.3399 5.45889 46.3399C5.16489 46.3399 4.92969 46.1047 4.92969 45.8107C4.92969 45.5167 5.16489 45.2815 5.45889 45.2815Z" fill="white"/>
<path d="M5.51854 46.5752C5.81254 46.5752 6.04774 46.7516 6.04774 47.0456C6.04774 47.3396 5.87134 47.5748 5.57734 47.5748C5.28334 47.5748 5.04813 47.3984 5.04813 47.1044C4.98933 46.8692 5.22454 46.5752 5.51854 46.5752Z" fill="white"/>
<path d="M5.57587 47.8687C5.86987 47.8687 6.10508 48.0451 6.16388 48.3391C6.22268 48.6331 5.98748 48.8683 5.69347 48.9271C5.39947 48.9859 5.16427 48.7507 5.10547 48.4567C5.10547 48.1627 5.28187 47.9275 5.57587 47.8687Z" fill="white"/>
<path d="M5.75267 49.1623C6.04667 49.1035 6.28187 49.3387 6.34067 49.6327C6.39947 49.9267 6.16427 50.1619 5.87027 50.2207C5.57627 50.2795 5.34106 50.0443 5.28226 49.7503C5.22346 49.4563 5.45866 49.2211 5.75267 49.1623Z" fill="white"/>
<path d="M5.93068 50.4558C6.22468 50.397 6.45988 50.5735 6.51868 50.8675C6.57749 51.1615 6.40109 51.3967 6.10708 51.4555C5.81308 51.5143 5.57788 51.3379 5.51908 51.0439C5.46028 50.7498 5.63668 50.5146 5.93068 50.4558Z" fill="white"/>
<path d="M6.16308 51.7495C6.45708 51.6907 6.69228 51.8671 6.80988 52.1611C6.86868 52.4552 6.69228 52.6903 6.39828 52.8079C6.10428 52.8667 5.86907 52.6903 5.81027 52.3963C5.69267 52.0435 5.86907 51.8083 6.16308 51.7495Z" fill="white"/>
<path d="M6.39936 52.9845C6.69336 52.9257 6.98736 53.1021 7.04616 53.3373C7.10496 53.6313 6.92856 53.9253 6.69336 53.9841C6.39936 54.0429 6.10535 53.8666 6.04655 53.6313C5.98775 53.3373 6.16415 53.0433 6.39936 52.9845Z" fill="white"/>
<path d="M6.75292 54.2779C7.04692 54.2191 7.34092 54.3367 7.39972 54.6307C7.45852 54.9247 7.34092 55.2187 7.04692 55.2775C6.75292 55.3363 6.45892 55.2187 6.40012 54.9247C6.28252 54.6307 6.45892 54.3367 6.75292 54.2779Z" fill="white"/>
<path d="M7.10578 55.5129C7.39979 55.3953 7.69379 55.5717 7.75259 55.8657C7.87019 56.1597 7.69379 56.4537 7.39979 56.5125C7.10578 56.6301 6.81178 56.4537 6.75298 56.1597C6.69418 55.8657 6.81178 55.5717 7.10578 55.5129Z" fill="white"/>
<path d="M7.51875 56.7474C7.81276 56.6298 8.10676 56.8062 8.16556 57.0414C8.28316 57.3354 8.10676 57.6294 7.87156 57.6882C7.57756 57.8058 7.28355 57.6294 7.22475 57.3942C7.10715 57.1002 7.22475 56.8062 7.51875 56.7474Z" fill="white"/>
<path d="M7.92617 57.9235C8.22018 57.8059 8.51418 57.9235 8.63178 58.2175C8.74938 58.5115 8.63178 58.8055 8.33778 58.9231C8.04378 59.0407 7.74977 58.9231 7.63217 58.6291C7.57337 58.3351 7.69097 58.0411 7.92617 57.9235Z" fill="white"/>
<path d="M8.45625 59.1583C8.69146 59.0407 9.04426 59.1583 9.16186 59.4523C9.27946 59.6876 9.16186 60.0404 8.86786 60.158C8.63265 60.2756 8.27985 60.158 8.16225 59.9228C8.04465 59.57 8.16225 59.2759 8.45625 59.1583Z" fill="white"/>
<path d="M8.9873 60.3342C9.2225 60.2166 9.5753 60.3342 9.69291 60.5694C9.81051 60.8046 9.69291 61.1574 9.4577 61.275C9.2225 61.3926 8.8697 61.275 8.7521 61.0398C8.6345 60.7458 8.6933 60.4518 8.9873 60.3342Z" fill="white"/>
<path d="M9.51813 61.5104C9.75333 61.3928 10.1061 61.4516 10.2237 61.7456C10.3413 61.9808 10.2825 62.3336 9.98853 62.4512C9.75333 62.5688 9.40053 62.51 9.28293 62.216C9.22413 61.922 9.28293 61.628 9.51813 61.5104Z" fill="white"/>
<path d="M10.1637 62.6276C10.3989 62.51 10.7517 62.5688 10.8693 62.804C10.9869 63.0392 10.9281 63.3921 10.6929 63.5097C10.4577 63.6273 10.1049 63.5685 9.98728 63.3333C9.81088 63.0981 9.92848 62.8041 10.1637 62.6276Z" fill="white"/>
<path d="M10.8094 63.7446C11.0446 63.5682 11.3974 63.6858 11.515 63.921C11.6914 64.1562 11.5738 64.509 11.3386 64.6266C11.1034 64.803 10.7506 64.6854 10.633 64.4502C10.5154 64.215 10.5742 63.921 10.8094 63.7446Z" fill="white"/>
<path d="M11.517 64.8618C11.7522 64.6854 12.105 64.7442 12.2226 64.9795C12.399 65.2147 12.3402 65.5675 12.105 65.6851C11.8698 65.8615 11.517 65.8027 11.3994 65.5675C11.223 65.3323 11.2818 65.0382 11.517 64.8618Z" fill="white"/>
<path d="M12.2202 65.9204C12.4554 65.744 12.7494 65.8028 12.9258 66.038C13.1022 66.2732 13.0434 66.5672 12.8082 66.7437C12.573 66.9201 12.279 66.8612 12.1026 66.626C11.9262 66.4496 11.985 66.0968 12.2202 65.9204Z" fill="white"/>
<path d="M12.9839 66.9785C13.2191 66.8021 13.5131 66.8609 13.6895 67.0961C13.8659 67.3313 13.8071 67.6253 13.5719 67.8017C13.3367 67.9781 13.0427 67.9194 12.8663 67.6841C12.7487 67.5077 12.7487 67.1549 12.9839 66.9785Z" fill="white"/>
<path d="M13.8095 67.9784C14.0447 67.802 14.3387 67.802 14.5151 68.0372C14.6915 68.2724 14.6915 68.5664 14.4563 68.7428C14.2211 68.9192 13.9271 68.9192 13.7507 68.684C13.5743 68.5076 13.5743 68.2136 13.8095 67.9784Z" fill="white"/>
<path d="M14.6319 68.978C14.8671 68.8016 15.1611 68.8016 15.3963 69.0368C15.5727 69.272 15.5727 69.566 15.3375 69.7424C15.1023 69.9188 14.8083 69.9188 14.6319 69.6836C14.3967 69.5072 14.4555 69.2132 14.6319 68.978Z" fill="white"/>
<path d="M15.5134 69.9775C15.7486 69.8011 16.0426 69.8011 16.2778 69.9775C16.4542 70.1539 16.4542 70.5067 16.2778 70.6831C16.0426 70.8595 15.7486 70.8595 15.5722 70.6831C15.2782 70.5067 15.2782 70.1539 15.5134 69.9775Z" fill="white"/>
<path d="M16.3953 70.8597C16.5717 70.6833 16.9245 70.6245 17.1597 70.8597C17.3949 71.0361 17.3949 71.3889 17.1597 71.5653C16.9833 71.8005 16.6305 71.8005 16.4541 71.5653C16.2189 71.4477 16.2189 71.0949 16.3953 70.8597Z" fill="white"/>
<path d="M17.3352 71.8003C17.5116 71.5651 17.8644 71.5651 18.0996 71.7415C18.3348 71.9179 18.3348 72.2707 18.1584 72.4471C17.982 72.6823 17.6292 72.6823 17.4528 72.5059C17.1588 72.3295 17.1588 71.9767 17.3352 71.8003Z" fill="white"/>
<path d="M18.3367 72.6235C18.5131 72.3883 18.8659 72.3883 19.0423 72.5647C19.2775 72.7411 19.2775 73.0939 19.1011 73.2703C18.9247 73.5055 18.5719 73.5055 18.3955 73.3291C18.1603 73.2115 18.1603 72.8587 18.3367 72.6235Z" fill="white"/>
<path d="M19.3367 73.5058C19.5131 73.2706 19.8659 73.2706 20.0423 73.447C20.2775 73.6234 20.3363 73.9762 20.1011 74.1526C19.9247 74.3878 19.5719 74.4466 19.3955 74.2702C19.1603 74.035 19.1603 73.6822 19.3367 73.5058Z" fill="white"/>
<path d="M20.3369 74.27C20.5133 74.0348 20.8073 73.976 21.0426 74.1524C21.2778 74.3288 21.3366 74.6228 21.1601 74.858C20.9837 75.0932 20.6897 75.152 20.4545 74.9756C20.2193 74.858 20.1605 74.5052 20.3369 74.27Z" fill="white"/>
<path d="M21.3955 75.0346C21.5719 74.7994 21.8659 74.7406 22.1011 74.917C22.3363 75.0934 22.3951 75.3874 22.2187 75.6226C22.0423 75.8578 21.7483 75.9166 21.5131 75.7402C21.2779 75.6226 21.2191 75.2698 21.3955 75.0346Z" fill="white"/>
<path d="M22.4533 75.7401C22.6297 75.5049 22.9237 75.4461 23.1589 75.5637C23.3941 75.7401 23.4529 76.0341 23.3353 76.2693C23.1589 76.5045 22.8649 76.5633 22.6297 76.4457C22.3945 76.3281 22.3357 76.0341 22.4533 75.7401Z" fill="white"/>
<path d="M23.5705 76.4457C23.6881 76.2105 24.0409 76.0929 24.2761 76.2693C24.5113 76.3869 24.6289 76.7397 24.4525 76.9749C24.3349 77.2101 23.9821 77.3277 23.7469 77.1513C23.5117 77.0337 23.4529 76.6809 23.5705 76.4457Z" fill="white"/>
<path d="M24.6866 77.0925C24.8042 76.8573 25.157 76.7397 25.3922 76.8573C25.6274 76.9749 25.745 77.3277 25.6274 77.5629C25.5098 77.7981 25.157 77.9157 24.9218 77.7981C24.6866 77.6805 24.569 77.3277 24.6866 77.0925Z" fill="white"/>
<path d="M25.8626 77.6805C25.9802 77.4453 26.2742 77.3277 26.5682 77.4453C26.8034 77.5629 26.921 77.9157 26.8034 78.1509C26.6858 78.3861 26.3918 78.5037 26.0978 78.3861C25.8626 78.2685 25.745 77.9745 25.8626 77.6805Z" fill="white"/>
<path d="M27.0383 78.2686C27.1559 78.0334 27.4499 77.9158 27.7439 78.0334C27.9791 78.151 28.0967 78.445 27.9791 78.739C27.8615 78.9742 27.5675 79.0918 27.2735 79.033C27.0383 78.8566 26.9207 78.5038 27.0383 78.2686Z" fill="white"/>
<path d="M28.216 78.7977C28.3336 78.5625 28.6276 78.3861 28.9216 78.5037C29.2156 78.6213 29.3332 78.9153 29.2156 79.2093C29.098 79.4445 28.804 79.6209 28.5688 79.5033C28.216 79.3269 28.0984 79.0329 28.216 78.7977Z" fill="white"/>
<path d="M29.39 79.2681C29.5076 78.9741 29.8016 78.8565 30.0368 78.9741C30.3308 79.0917 30.4484 79.3857 30.3308 79.621C30.2132 79.915 29.9192 80.0326 29.684 79.915C29.4488 79.8562 29.3312 79.5621 29.39 79.2681Z" fill="white"/>
<path d="M30.6241 79.6795C30.7417 79.3855 31.0357 79.2679 31.2709 79.3267C31.5649 79.4443 31.6825 79.7383 31.6237 79.9735C31.5061 80.2675 31.2709 80.3851 30.9769 80.3263C30.6829 80.2675 30.5653 79.9735 30.6241 79.6795Z" fill="white"/>
<path d="M31.8591 80.0911C31.9179 79.7971 32.2119 79.6795 32.5059 79.7383C32.7999 79.7971 32.9175 80.0911 32.8587 80.3851C32.7999 80.6791 32.5059 80.7967 32.2119 80.7379C31.9767 80.6791 31.8003 80.3851 31.8591 80.0911Z" fill="white"/>
<path d="M33.0934 80.4443C33.1522 80.1503 33.4462 79.9739 33.7402 80.0915C34.0342 80.1503 34.2106 80.4443 34.093 80.7383C34.0342 81.0323 33.7402 81.2087 33.4462 81.0911C33.211 81.0323 33.0346 80.7383 33.0934 80.4443Z" fill="white"/>
<path d="M34.39 80.7382C34.4488 80.4442 34.7429 80.2678 35.0369 80.3266C35.3309 80.3854 35.5073 80.6794 35.4485 80.9734C35.3897 81.2674 35.0957 81.4438 34.8605 81.385C34.5077 81.3262 34.3312 81.0322 34.39 80.7382Z" fill="white"/>
<path d="M35.625 81.0322C35.6838 80.7382 35.9778 80.5618 36.213 80.6206C36.507 80.6794 36.6834 80.9734 36.6246 81.2086C36.5658 81.5026 36.3306 81.679 36.0366 81.6202C35.8014 81.5614 35.625 81.3262 35.625 81.0322Z" fill="white"/>
<path d="M36.918 81.2673C36.9768 80.9733 37.212 80.7969 37.506 80.7969C37.8 80.8557 37.9764 81.0909 37.9764 81.3849C37.9176 81.6789 37.6824 81.8553 37.3884 81.8553C37.0944 81.7965 36.918 81.5613 36.918 81.2673Z" fill="white"/>
<path d="M38.2109 81.4438C38.2697 81.1498 38.5049 80.9734 38.7989 80.9734C39.0929 80.9734 39.2693 81.2674 39.2693 81.5614C39.2693 81.8554 38.9753 82.0318 38.6813 82.0318C38.3873 81.973 38.2109 81.7378 38.2109 81.4438Z" fill="white"/>
<path d="M39.5039 81.5612C39.5039 81.2672 39.7979 81.0908 40.0331 81.0908C40.3271 81.0908 40.5623 81.3848 40.5035 81.62C40.5035 81.914 40.2095 82.1492 39.9743 82.0904C39.6803 82.0904 39.5039 81.8552 39.5039 81.5612Z" fill="white"/>
<path d="M40.7969 81.6201C40.7969 81.3261 41.0321 81.0909 41.3261 81.0909C41.6201 81.0909 41.8553 81.3261 41.8553 81.6201C41.8553 81.9141 41.6201 82.1494 41.3261 82.1494C41.0321 82.1494 40.7969 81.9141 40.7969 81.6201Z" fill="white"/>
<path d="M42.0898 81.6789C42.0898 81.3849 42.325 81.1497 42.619 81.1497C42.9131 81.1497 43.1483 81.3849 43.1483 81.6789C43.1483 81.9729 42.9131 82.2081 42.619 82.2081C42.325 82.2081 42.0898 81.9729 42.0898 81.6789Z" fill="white"/>
<path d="M43.3828 81.6791C43.3828 81.3851 43.618 81.1499 43.912 81.1499C44.206 81.1499 44.4412 81.3851 44.4412 81.6791C44.4412 81.9731 44.206 82.2083 43.912 82.2083C43.618 82.2083 43.3828 81.9731 43.3828 81.6791Z" fill="white"/>
<path d="M44.6797 81.6201C44.6797 81.3261 44.8561 81.0909 45.1501 81.0909C45.4441 81.0909 45.6793 81.2673 45.6793 81.5613C45.6793 81.8554 45.5029 82.0905 45.2089 82.0905C44.9737 82.1493 44.7385 81.9141 44.6797 81.6201Z" fill="white"/>
<path d="M45.9724 81.5614C45.9724 81.2674 46.1488 81.0322 46.4428 80.9734C46.7368 80.9146 46.972 81.1498 47.0308 81.4438C47.0896 81.7378 46.8544 81.973 46.5604 82.0318C46.2664 82.0318 46.0312 81.7966 45.9724 81.5614Z" fill="white"/>
<path d="M47.2669 81.3852C47.2081 81.0912 47.4433 80.856 47.7373 80.7972C48.0313 80.7384 48.2665 80.9736 48.3253 81.2676C48.3841 81.5616 48.1489 81.7968 47.8549 81.8556C47.5609 81.8556 47.3257 81.6792 47.2669 81.3852Z" fill="white"/>
<path d="M48.5581 81.2086C48.4993 80.9146 48.6757 80.6794 48.9697 80.6206C49.2637 80.5618 49.499 80.7382 49.5578 81.0322C49.6166 81.3262 49.4401 81.5614 49.1461 81.6202C48.8521 81.679 48.6169 81.5026 48.5581 81.2086Z" fill="white"/>
<path d="M49.855 80.9733C49.7962 80.6793 49.9726 80.4441 50.2666 80.3853C50.5606 80.3265 50.8546 80.5029 50.8546 80.7969C50.9134 81.0909 50.737 81.3849 50.443 81.4437C50.2078 81.4437 49.9138 81.2673 49.855 80.9733Z" fill="white"/>
<path d="M51.0895 80.6793C51.0307 80.3853 51.2071 80.1501 51.4423 80.0325C51.7363 79.9737 52.0303 80.1501 52.0891 80.3853C52.1479 80.6793 51.9715 80.9733 51.7363 81.0321C51.4423 81.1497 51.2071 80.9733 51.0895 80.6793Z" fill="white"/>
<path d="M52.3819 80.3854C52.3231 80.0914 52.4407 79.7974 52.7347 79.7386C53.0287 79.6798 53.3227 79.7974 53.3815 80.0914C53.4403 80.3854 53.3227 80.6794 53.0287 80.7382C52.7347 80.797 52.4407 80.6794 52.3819 80.3854Z" fill="white"/>
<path d="M53.6163 80.0328C53.5575 79.7388 53.6751 79.4448 53.9691 79.386C54.2631 79.2684 54.5571 79.4448 54.6159 79.7388C54.7335 80.0328 54.5571 80.3268 54.2631 80.3856C53.9691 80.4444 53.6751 80.3268 53.6163 80.0328Z" fill="white"/>
<path d="M54.8499 79.6208C54.7323 79.3268 54.9087 79.0328 55.1439 78.974C55.4379 78.8564 55.7319 79.0328 55.7907 79.268C55.9083 79.562 55.7319 79.856 55.4967 79.9148C55.2615 80.0324 54.9675 79.9148 54.8499 79.6208Z" fill="white"/>
<path d="M56.0841 79.1506C55.9665 78.8566 56.0841 78.5626 56.3781 78.445C56.6721 78.3274 56.9661 78.445 57.0249 78.739C57.1425 79.033 57.0249 79.327 56.7309 79.4446C56.4957 79.5622 56.1429 79.4446 56.0841 79.1506Z" fill="white"/>
<path d="M57.2638 78.68C57.1462 78.4448 57.2638 78.092 57.5578 77.9744C57.8518 77.8568 58.1458 77.9744 58.2634 78.2096C58.381 78.4448 58.2634 78.7976 58.0282 78.9152C57.6754 79.0916 57.3814 78.974 57.2638 78.68Z" fill="white"/>
<path d="M58.4368 78.1512C58.3192 77.916 58.4368 77.5632 58.672 77.4456C58.9072 77.3279 59.26 77.4455 59.3776 77.6807C59.4952 77.916 59.3776 78.2688 59.1424 78.3864C58.9072 78.504 58.5544 78.3864 58.4368 78.1512Z" fill="white"/>
<path d="M59.6154 77.5629C59.4978 77.3277 59.5566 76.9749 59.8506 76.8573C60.0858 76.7397 60.4386 76.7985 60.5562 77.0925C60.6738 77.3277 60.615 77.6805 60.321 77.7981C60.0858 77.9157 59.733 77.8569 59.6154 77.5629Z" fill="white"/>
<path d="M60.7307 76.9749C60.6131 76.7397 60.6719 76.3869 60.9071 76.2692C61.1423 76.1516 61.4951 76.2105 61.6127 76.4457C61.7303 76.6809 61.6715 77.0337 61.4363 77.1513C61.2011 77.3277 60.9071 77.2101 60.7307 76.9749Z" fill="white"/>
<path d="M61.8467 76.3281C61.6703 76.0929 61.7879 75.7401 62.0231 75.6225C62.2583 75.4461 62.6111 75.5637 62.7287 75.7989C62.9051 76.0341 62.7875 76.3869 62.5523 76.5045C62.3759 76.6221 62.0231 76.5633 61.8467 76.3281Z" fill="white"/>
<path d="M62.966 75.6225C62.7896 75.3873 62.8484 75.0345 63.0836 74.9169C63.3188 74.7405 63.6716 74.7993 63.7892 75.0345C63.9656 75.2697 63.9068 75.6225 63.6716 75.7401C63.4364 75.9165 63.1424 75.8577 62.966 75.6225Z" fill="white"/>
<path d="M64.0243 74.9169C63.8479 74.6817 63.9067 74.3289 64.1419 74.2113C64.3771 74.0349 64.7299 74.0937 64.8475 74.3289C65.0239 74.5641 64.9651 74.9169 64.7299 75.0345C64.5535 75.1521 64.2007 75.1521 64.0243 74.9169Z" fill="white"/>
<path d="M65.083 74.1524C64.9066 73.9172 64.9654 73.6232 65.2006 73.4468C65.4358 73.2704 65.7298 73.3292 65.9062 73.5056C66.0827 73.7408 66.0238 74.0348 65.8474 74.2112C65.6122 74.3877 65.2594 74.3288 65.083 74.1524Z" fill="white"/>
<path d="M66.1417 73.3294C65.9653 73.0942 66.0241 72.8002 66.2005 72.6238C66.4357 72.4474 66.7297 72.4474 66.9061 72.6826C67.0825 72.9178 67.0825 73.2118 66.8473 73.3882C66.6121 73.5646 66.3181 73.5646 66.1417 73.3294Z" fill="white"/>
<path d="M67.0828 72.5059C66.9064 72.2707 66.9064 71.9767 67.1416 71.7415C67.3768 71.5651 67.6708 71.5651 67.8472 71.8003C68.0236 72.0355 68.0236 72.3295 67.7884 72.5059C67.612 72.7411 67.318 72.6823 67.0828 72.5059Z" fill="white"/>
<path d="M68.0815 71.624C67.9051 71.3888 67.9051 71.0948 68.0815 70.8596C68.3167 70.6832 68.6107 70.6832 68.7871 70.8596C68.9635 71.0948 68.9635 71.3888 68.7871 71.5652C68.6107 71.8004 68.2579 71.8004 68.0815 71.624Z" fill="white"/>
<path d="M69.0229 70.6835C68.8465 70.5071 68.8465 70.1543 69.0229 69.9191C69.1993 69.6839 69.5521 69.6839 69.7285 69.9191C69.9637 70.0955 69.9637 70.4483 69.7285 70.6247C69.5521 70.9187 69.1993 70.9187 69.0229 70.6835Z" fill="white"/>
<path d="M69.9033 69.8015C69.6681 69.6251 69.6681 69.2723 69.8445 69.0371C70.0209 68.8019 70.3737 68.8019 70.5501 68.9783C70.7853 69.1547 70.7853 69.5075 70.6089 69.6839C70.4325 69.9191 70.1385 69.9779 69.9033 69.8015Z" fill="white"/>
<path d="M70.7862 68.8017C70.551 68.6252 70.551 68.2724 70.7274 68.096C70.9038 67.8608 71.2566 67.8608 71.433 68.0372C71.6682 68.2136 71.6682 68.5664 71.4918 68.7428C71.3154 68.978 70.9626 68.9781 70.7862 68.8017Z" fill="white"/>
<path d="M71.6103 67.802C71.3751 67.6256 71.3751 67.2728 71.5515 67.0964C71.7279 66.8612 72.0807 66.8024 72.2571 66.9788C72.4923 67.1552 72.5511 67.508 72.3747 67.6844C72.1395 67.9196 71.8455 67.9784 71.6103 67.802Z" fill="white"/>
<path d="M72.3725 66.8022C72.1373 66.6258 72.0785 66.3318 72.2549 66.0966C72.4313 65.8614 72.7841 65.8026 72.9605 65.979C73.1957 66.1554 73.2545 66.4494 73.0781 66.6846C72.9605 66.9198 72.6077 66.9786 72.3725 66.8022Z" fill="white"/>
<path d="M73.1381 65.7441C72.9029 65.5677 72.8441 65.2737 73.0205 65.0385C73.1969 64.8033 73.4909 64.7445 73.7261 64.9209C73.9613 65.0973 74.0202 65.3913 73.8437 65.6265C73.7261 65.8029 73.3733 65.8617 73.1381 65.7441Z" fill="white"/>
<path d="M73.8446 64.6268C73.6094 64.4504 73.5506 64.1564 73.6682 63.9212C73.8446 63.686 74.1386 63.6272 74.3738 63.7448C74.609 63.9212 74.7266 64.2152 74.5502 64.4504C74.4326 64.7444 74.1386 64.8032 73.8446 64.6268Z" fill="white"/>
<path d="M74.5504 63.5685C74.3152 63.4509 74.1976 63.0981 74.374 62.8629C74.5504 62.6277 74.8444 62.5101 75.0796 62.6865C75.3148 62.8041 75.4324 63.1569 75.256 63.3921C75.1384 63.6273 74.7856 63.6861 74.5504 63.5685Z" fill="white"/>
<path d="M75.1954 62.4512C74.9602 62.3336 74.8426 61.9808 74.9602 61.7456C75.0778 61.5104 75.4306 61.3928 75.6658 61.5104C75.901 61.628 76.0186 61.9808 75.901 62.216C75.7834 62.4512 75.4306 62.5688 75.1954 62.4512Z" fill="white"/>
<path d="M75.7852 61.2752C75.55 61.1576 75.4324 60.8048 75.55 60.5695C75.6676 60.3343 76.0204 60.2167 76.2556 60.3343C76.4908 60.4519 76.6085 60.7459 76.4909 61.0399C76.3733 61.2751 76.0792 61.3928 75.7852 61.2752Z" fill="white"/>
<path d="M76.3712 60.0994C76.136 59.9818 76.0184 59.6878 76.136 59.3938C76.2536 59.0998 76.5476 58.9822 76.8416 59.1586C77.1356 59.2762 77.2532 59.5702 77.0768 59.8642C76.9592 60.0994 76.6652 60.217 76.3712 60.0994Z" fill="white"/>
<path d="M76.9017 58.9231C76.6665 58.8055 76.4901 58.5115 76.6077 58.2175C76.7253 57.9235 77.0193 57.8059 77.2545 57.9235C77.5485 58.0411 77.6661 58.3351 77.5485 58.5703C77.4897 58.9231 77.1957 59.0407 76.9017 58.9231Z" fill="white"/>
<path d="M77.3703 57.6885C77.0763 57.5709 76.9587 57.2769 77.0763 57.0417C77.1939 56.7477 77.4879 56.6301 77.7231 56.7477C78.0171 56.8653 78.1347 57.1593 78.0171 57.3945C77.9583 57.6885 77.6643 57.8061 77.3703 57.6885Z" fill="white"/>
<path d="M77.8441 56.5124C77.5501 56.3948 77.4325 56.1008 77.4913 55.8656C77.6089 55.5716 77.9029 55.4539 78.1381 55.5127C78.4321 55.5715 78.5497 55.9244 78.4909 56.1596C78.3733 56.4536 78.0793 56.5712 77.8441 56.5124Z" fill="white"/>
<path d="M78.1956 55.2775C77.9016 55.2187 77.784 54.9247 77.8428 54.6307C77.9016 54.3367 78.1956 54.2191 78.4896 54.2779C78.7836 54.3367 78.96 54.6307 78.8424 54.9247C78.7836 55.1599 78.4896 55.3363 78.1956 55.2775Z" fill="white"/>
<path d="M78.5459 53.984C78.2519 53.9252 78.0755 53.6312 78.1931 53.3372C78.2519 53.0431 78.5459 52.8667 78.8399 52.9843C79.1339 53.0431 79.3103 53.3372 79.1927 53.6312C79.1339 53.9252 78.8399 54.1016 78.5459 53.984Z" fill="white"/>
<path d="M78.8994 52.7489C78.6054 52.6901 78.429 52.3961 78.4878 52.1021C78.5466 51.8081 78.8406 51.6317 79.0758 51.6905C79.3698 51.7493 79.5462 52.0433 79.4874 52.2785C79.4286 52.6313 79.1346 52.8077 78.8994 52.7489Z" fill="white"/>
<path d="M79.1377 51.4555C78.8437 51.3967 78.6673 51.1027 78.7261 50.8675C78.7849 50.5735 79.0789 50.397 79.3141 50.4558C79.6081 50.5146 79.7845 50.7498 79.7257 51.0439C79.7257 51.3379 79.4317 51.5143 79.1377 51.4555Z" fill="white"/>
<path d="M79.3727 50.2205C79.0787 50.1617 78.9023 49.9265 78.9023 49.6325C78.9611 49.3385 79.1963 49.1621 79.4903 49.1621C79.7844 49.2209 79.9608 49.4561 79.9608 49.7501C79.902 50.0441 79.6668 50.2205 79.3727 50.2205Z" fill="white"/>
<path d="M79.5485 48.9271C79.2545 48.8683 79.0781 48.6331 79.0781 48.3391C79.1369 48.0451 79.3721 47.8687 79.6661 47.8687C79.9601 47.8687 80.1953 48.1627 80.1365 48.4567C80.0777 48.7507 79.8425 48.9271 79.5485 48.9271Z" fill="white"/>
<path d="M79.6657 47.6337C79.3717 47.6337 79.1953 47.3397 79.1953 47.1045C79.1953 46.8105 79.4893 46.5753 79.7245 46.6341C80.0185 46.6341 80.2537 46.9281 80.1949 47.1633C80.1949 47.3985 79.9597 47.6337 79.6657 47.6337Z" fill="white"/>
<path d="M79.7831 46.3397C79.4891 46.3397 79.2539 46.1045 79.2539 45.8105C79.2539 45.5165 79.4891 45.2812 79.7831 45.2812C80.0771 45.2812 80.3123 45.5165 80.3123 45.8105C80.3123 46.1045 80.0771 46.3397 79.7831 46.3397Z" fill="white"/>
<path d="M79.7831 45.0462C79.4891 45.0462 79.2539 44.811 79.2539 44.517C79.2539 44.223 79.4891 43.9878 79.7831 43.9878C80.0771 43.9878 80.3123 44.223 80.3123 44.517C80.3123 44.811 80.0771 45.0462 79.7831 45.0462Z" fill="white"/>
<path d="M79.7831 43.7527C79.4891 43.7527 79.2539 43.5175 79.2539 43.2235C79.2539 42.9295 79.4891 42.6943 79.7831 42.6943C80.0771 42.6943 80.3123 42.9295 80.3123 43.1647C80.3123 43.4587 80.0771 43.6939 79.7831 43.7527Z" fill="white"/>
<path d="M79.7245 42.4591C79.4305 42.4591 79.1953 42.2239 79.1953 41.9887C79.1953 41.6947 79.3717 41.4595 79.6657 41.4595C79.9597 41.4595 80.1949 41.6359 80.1949 41.9299C80.2537 42.1651 80.0185 42.4003 79.7245 42.4591Z" fill="white"/>
<path d="M79.6661 41.1654C79.3721 41.1654 79.1369 40.989 79.0781 40.695C79.0781 40.401 79.2545 40.1658 79.5485 40.107C79.8425 40.0482 80.0777 40.2834 80.1365 40.5774C80.1365 40.8714 79.9601 41.1066 79.6661 41.1654Z" fill="white"/>
<path d="M79.4878 39.8719C79.1938 39.9307 78.9586 39.6955 78.8998 39.4015C78.841 39.1075 79.0762 38.8723 79.3114 38.8135C79.6054 38.7547 79.8406 38.9899 79.8994 39.2251C80.017 39.5191 79.7818 39.8131 79.4878 39.8719Z" fill="white"/>
<path d="M79.3141 38.5783C79.0201 38.6371 78.7849 38.4019 78.7261 38.1667C78.6673 37.8727 78.8437 37.5786 79.1377 37.5786C79.4317 37.5198 79.7257 37.6962 79.7257 37.9903C79.7845 38.2255 79.6081 38.5195 79.3141 38.5783Z" fill="white"/>
<path d="M79.0758 37.2848C78.7818 37.3436 78.5466 37.1672 78.4878 36.8732C78.429 36.5792 78.6054 36.2852 78.8994 36.2852C79.1934 36.2264 79.4874 36.4028 79.4874 36.6968C79.5462 36.932 79.3698 37.226 79.0758 37.2848Z" fill="white"/>
<path d="M78.8418 36.0496C78.5478 36.1084 78.3126 35.932 78.195 35.6968C78.1362 35.4028 78.3126 35.1088 78.5478 35.05C78.8418 34.9912 79.1358 35.1676 79.1946 35.4028C79.2534 35.638 79.077 35.932 78.8418 36.0496Z" fill="white"/>
<path d="M78.4896 34.756C78.1956 34.8148 77.9016 34.6384 77.8428 34.4032C77.784 34.1092 77.9016 33.8152 78.1956 33.7564C78.4896 33.6976 78.7836 33.8152 78.8424 34.1092C78.96 34.4032 78.7836 34.6972 78.4896 34.756Z" fill="white"/>
<path d="M78.1381 33.5213C77.8441 33.5801 77.5501 33.4625 77.4913 33.1685C77.4325 32.8745 77.5501 32.5805 77.8441 32.5217C78.1381 32.4041 78.4321 32.5805 78.4909 32.8745C78.5497 33.1097 78.4321 33.4037 78.1381 33.5213Z" fill="white"/>
<path d="M77.7233 32.2863C77.4293 32.4039 77.1353 32.2275 77.0765 31.9923C76.9589 31.6983 77.1353 31.4043 77.3705 31.3455C77.6645 31.2279 77.9585 31.4043 78.0173 31.6395C78.1349 31.8747 78.0173 32.1687 77.7233 32.2863Z" fill="white"/>
<path d="M77.3132 31.0516C77.0779 31.1692 76.7251 30.9928 76.6663 30.7576C76.5487 30.4636 76.6663 30.1696 76.9603 30.052C77.2543 29.9344 77.5484 30.052 77.6072 30.346C77.666 30.64 77.5484 30.934 77.3132 31.0516Z" fill="white"/>
<path d="M76.783 29.8757C76.5478 29.9933 76.195 29.8757 76.0774 29.5817C75.9598 29.2877 76.0774 28.9937 76.3126 28.8761C76.5478 28.7585 76.9006 28.8761 77.0182 29.1113C77.1946 29.4053 77.077 29.7581 76.783 29.8757Z" fill="white"/>
<path d="M76.2556 28.6997C76.0204 28.8173 75.6676 28.6997 75.55 28.4645C75.4324 28.2293 75.55 27.8765 75.7852 27.7589C76.0204 27.6413 76.3733 27.7589 76.4909 27.9941C76.6085 28.2293 76.5496 28.5233 76.2556 28.6997Z" fill="white"/>
<path d="M75.6686 27.5237C75.4334 27.6413 75.0806 27.5237 74.963 27.2885C74.8454 27.0533 74.9042 26.7005 75.1982 26.5829C75.4334 26.4653 75.7862 26.5241 75.9038 26.8181C76.0214 27.0533 75.9626 27.3473 75.6686 27.5237Z" fill="white"/>
<path d="M75.0769 26.3478C74.8417 26.4654 74.4889 26.4066 74.3713 26.1714C74.2537 25.9362 74.3125 25.5834 74.5477 25.4658C74.7829 25.2894 75.1357 25.407 75.2533 25.6422C75.4297 25.8774 75.3121 26.2302 75.0769 26.3478Z" fill="white"/>
<path d="M74.4312 25.2306C74.196 25.407 73.8432 25.2894 73.7256 25.0542C73.5492 24.819 73.6668 24.4662 73.902 24.3486C74.1372 24.1722 74.49 24.2898 74.6076 24.525C74.7252 24.7602 74.6664 25.113 74.4312 25.2306Z" fill="white"/>
<path d="M73.7261 24.1719C73.4909 24.3483 73.1381 24.2307 73.0205 24.0543C72.8441 23.8191 72.9029 23.4663 73.1381 23.3487C73.3733 23.1723 73.7261 23.2311 73.8437 23.4663C74.0202 23.6427 73.9613 23.9955 73.7261 24.1719Z" fill="white"/>
<path d="M73.0191 23.0549C72.7839 23.2313 72.4311 23.1725 72.3135 22.9373C72.1371 22.7021 72.1959 22.3493 72.4311 22.2317C72.6663 22.0553 73.0191 22.1141 73.1367 22.3493C73.3131 22.5845 73.2543 22.8785 73.0191 23.0549Z" fill="white"/>
<path d="M72.2574 22.0552C72.0222 22.2316 71.7282 22.1728 71.5518 21.9376C71.3754 21.7024 71.4342 21.3496 71.6106 21.232C71.8458 21.0556 72.1398 21.1144 72.3162 21.2908C72.4926 21.526 72.4926 21.82 72.2574 22.0552Z" fill="white"/>
<path d="M71.433 20.9968C71.1978 21.1732 70.9038 21.1144 70.7274 20.938C70.551 20.7028 70.551 20.4088 70.7862 20.2324C71.0214 20.056 71.3154 20.056 71.4918 20.2912C71.6682 20.4676 71.6682 20.8204 71.433 20.9968Z" fill="white"/>
<path d="M70.6087 19.9973C70.3735 20.1737 70.0795 20.1737 69.9031 19.9385C69.7267 19.7033 69.7267 19.4093 69.9619 19.2329C70.1971 19.0565 70.4911 19.0565 70.6675 19.2917C70.8439 19.4681 70.7851 19.8209 70.6087 19.9973Z" fill="white"/>
<path d="M69.7285 19.0567C69.5521 19.2331 69.1993 19.2331 69.0229 19.0567C68.8465 18.8215 68.8465 18.5275 69.0229 18.3511C69.2581 18.1746 69.5521 18.1746 69.7285 18.3511C69.9637 18.5275 69.9637 18.8803 69.7285 19.0567Z" fill="white"/>
<path d="M68.8469 18.1157C68.6705 18.2921 68.3176 18.2921 68.1412 18.1157C67.906 17.9393 67.906 17.5864 68.1412 17.41C68.3176 17.1748 68.6705 17.1748 68.8469 17.41C69.0233 17.5864 69.0233 17.9393 68.8469 18.1157Z" fill="white"/>
<path d="M67.9058 17.2337C67.7294 17.4689 67.3766 17.4689 67.2002 17.2925C66.965 17.1161 66.965 16.7633 67.1414 16.5869C67.3178 16.3517 67.6706 16.3517 67.847 16.5281C68.0822 16.7045 68.0822 16.9985 67.9058 17.2337Z" fill="white"/>
<path d="M66.9058 16.3519C66.7294 16.5871 66.3766 16.5871 66.2002 16.4107C65.965 16.2343 65.965 15.8815 66.1414 15.7051C66.3178 15.4698 66.6706 15.4698 66.847 15.6462C67.0822 15.8226 67.0822 16.1167 66.9058 16.3519Z" fill="white"/>
<path d="M65.9062 15.5286C65.7298 15.7638 65.377 15.7638 65.2006 15.5874C64.9654 15.411 64.9066 15.0582 65.083 14.8818C65.2594 14.6466 65.6122 14.5878 65.7886 14.7642C66.0826 14.9994 66.0827 15.2934 65.9062 15.5286Z" fill="white"/>
<path d="M64.9064 14.764C64.73 14.9992 64.3772 15.058 64.2008 14.8816C63.9656 14.7052 63.9068 14.3524 64.0832 14.176C64.2596 13.9408 64.6124 13.882 64.7888 14.0584C65.024 14.176 65.0828 14.47 64.9064 14.764Z" fill="white"/>
<path d="M63.8477 13.9996C63.6713 14.2348 63.3772 14.2936 63.142 14.1172C62.9068 13.9408 62.848 13.6468 63.0244 13.4116C63.2008 13.1764 63.4948 13.1176 63.73 13.294C63.9652 13.4116 64.0241 13.7056 63.8477 13.9996Z" fill="white"/>
<path d="M62.7885 13.2351C62.6121 13.4703 62.3181 13.5291 62.0829 13.4115C61.8477 13.2351 61.7889 12.9411 61.9065 12.7059C62.0829 12.4707 62.3769 12.4119 62.6121 12.5295C62.8473 12.7059 62.9061 12.9999 62.7885 13.2351Z" fill="white"/>
<path d="M61.674 12.5884C61.5564 12.8236 61.2036 12.8824 60.9684 12.7648C60.7332 12.5884 60.6156 12.2944 60.792 12.0592C60.9096 11.824 61.2624 11.7064 61.4976 11.8828C61.7328 12.0004 61.7916 12.2944 61.674 12.5884Z" fill="white"/>
<path d="M60.5573 11.9417C60.4397 12.1769 60.0869 12.2945 59.8517 12.1769C59.6165 12.0593 59.4988 11.7065 59.6164 11.4713C59.734 11.2361 60.0869 11.1185 60.3221 11.2361C60.5573 11.3537 60.6749 11.6477 60.5573 11.9417Z" fill="white"/>
<path d="M59.3776 11.2947C59.26 11.5299 58.9072 11.6475 58.672 11.5299C58.4368 11.4123 58.3192 11.0595 58.4368 10.8243C58.5544 10.5891 58.9072 10.4715 59.1424 10.5891C59.3776 10.7655 59.4952 11.0595 59.3776 11.2947Z" fill="white"/>
<path d="M58.2048 10.7655C58.0872 11.0007 57.7932 11.1183 57.4992 11.0007C57.2052 10.8831 57.0876 10.5891 57.2052 10.2951C57.3228 10.0011 57.6168 9.88353 57.9108 10.0599C58.2048 10.1775 58.3224 10.4715 58.2048 10.7655Z" fill="white"/>
<path d="M57.029 10.2363C56.9114 10.4715 56.6174 10.6479 56.3234 10.5303C56.0294 10.4127 55.9118 10.1187 56.0294 9.8835C56.147 9.5895 56.441 9.4719 56.6762 9.5895C57.029 9.6483 57.1466 9.9423 57.029 10.2363Z" fill="white"/>
<path d="M55.8531 9.76609C55.7355 10.0013 55.4415 10.1777 55.2063 10.0601C54.9123 9.94249 54.7947 9.64849 54.9123 9.41329C55.0299 9.11928 55.3239 9.00168 55.5591 9.11928C55.7943 9.17808 55.9119 9.47209 55.8531 9.76609Z" fill="white"/>
<path d="M54.6159 9.29578C54.4983 9.58978 54.2043 9.70738 53.9691 9.64858C53.6751 9.53098 53.5575 9.23698 53.6163 9.00178C53.6751 8.70778 54.0279 8.59018 54.2631 8.64898C54.5571 8.76658 54.6747 9.00178 54.6159 9.29578Z" fill="white"/>
<path d="M53.3815 8.9428C53.3227 9.2368 53.0287 9.3544 52.7347 9.2956C52.4407 9.2368 52.3231 8.9428 52.3819 8.6488C52.4407 8.35479 52.7347 8.17839 53.0287 8.29599C53.2639 8.35479 53.4403 8.6488 53.3815 8.9428Z" fill="white"/>
<path d="M52.1458 8.53117C52.087 8.82518 51.793 8.94278 51.499 8.88398C51.205 8.82518 51.0286 8.53117 51.1462 8.23717C51.205 7.94317 51.499 7.76677 51.793 7.88437C52.0282 8.00197 52.2046 8.29597 52.1458 8.53117Z" fill="white"/>
<path d="M50.8546 8.23721C50.7958 8.53121 50.5018 8.70762 50.2666 8.64882C49.9726 8.59002 49.7962 8.29601 49.855 8.06081C49.9138 7.76681 50.2078 7.59041 50.443 7.64921C50.737 7.70801 50.9134 7.94321 50.8546 8.23721Z" fill="white"/>
<path d="M49.6203 8.00161C49.5615 8.29562 49.2674 8.47202 49.0322 8.41322C48.7382 8.35442 48.5618 8.06042 48.6206 7.82521C48.6794 7.53121 48.9146 7.35481 49.2086 7.41361C49.4438 7.41361 49.6203 7.70761 49.6203 8.00161Z" fill="white"/>
<path d="M48.324 7.76692C48.2652 8.06092 48.03 8.23733 47.736 8.17853C47.442 8.11972 47.2656 7.88452 47.2656 7.59052C47.3244 7.29652 47.5596 7.12012 47.8536 7.12012C48.1476 7.23772 48.324 7.47292 48.324 7.76692Z" fill="white"/>
<path d="M47.0308 7.59036C46.972 7.88436 46.7368 8.06076 46.4428 8.06076C46.1488 8.00196 45.9724 7.76676 45.9724 7.47276C45.9724 7.17876 46.2664 6.94356 46.5604 7.00236C46.8544 7.06116 47.0308 7.29636 47.0308 7.59036Z" fill="white"/>
<path d="M45.7392 7.47272C45.7392 7.76672 45.4451 7.94313 45.2099 7.94313C44.9159 7.94313 44.6807 7.64912 44.7395 7.41392C44.7395 7.11992 45.0335 6.88472 45.2687 6.94352C45.5627 6.94352 45.7392 7.17872 45.7392 7.47272Z" fill="white"/>
<path d="M44.4412 7.35509C44.4412 7.6491 44.206 7.8843 43.912 7.8255C43.618 7.8255 43.3828 7.5903 43.3828 7.29629C43.3828 7.00229 43.618 6.76709 43.912 6.76709C44.206 6.82589 44.4412 7.06109 44.4412 7.35509Z" fill="white"/>
<path d="M22.3915 38.3426C22.3915 38.3426 22.3327 38.2249 22.1562 38.3426C22.2739 38.3426 22.3915 38.3426 22.3915 38.3426Z" fill="white"/>
<path d="M36.9766 72.3881C36.9766 72.3881 37.0354 72.3881 36.9766 72.3881C38.623 72.9761 40.8574 72.9762 42.6214 73.035C44.3854 73.035 47.149 73.3878 48.6779 72.4469C48.7367 72.3881 48.7955 72.3881 48.9131 72.3881C48.9131 72.3293 48.8543 72.2705 48.8543 72.2117C48.031 70.6829 48.1486 66.5669 48.3251 63.5093C48.1486 64.0973 47.8546 65.0969 47.737 66.5081C47.5018 68.6837 47.7958 71.9765 47.7958 71.9765L46.7962 67.5077C46.7962 67.5077 46.6198 65.8025 45.6202 66.9197C44.503 68.1545 42.5038 69.7421 40.6222 67.3901C39.0346 65.5085 39.1522 66.3905 39.0346 67.5077C38.917 68.5661 38.3878 70.7417 38.1526 71.2121C37.9174 71.6825 37.9174 71.6825 37.9174 71.6825C37.9174 71.6825 38.6818 66.0377 37.5646 63.7445C37.6234 64.3325 37.6822 64.9205 37.741 65.5673C37.9762 69.5069 37.0942 72.0941 36.9766 72.3881Z" fill="white"/>
<path d="M59.6133 26.2297C57.2024 24.7009 55.0856 26.7001 54.0272 27.8761C53.5568 28.4053 53.5568 28.4053 53.5568 28.4053C53.5568 28.4053 53.5568 27.6997 53.6744 26.5237C53.8508 24.0541 52.4396 22.1725 50.4404 23.3485C48.9704 24.2305 50.264 26.9353 50.264 26.9353C50.264 26.9353 50.1464 26.6413 48.5 25.8181C45.6187 24.4069 43.4431 26.3473 43.4431 26.3473C43.4431 26.3473 43.2079 25.4065 40.9735 24.9361C37.6807 24.2305 34.2703 27.5233 34.2703 27.5233C34.2703 27.5233 34.4467 26.8765 34.4467 26.2297C34.4467 25.5829 34.1527 23.7601 32.6826 23.6425C30.0366 23.4661 29.8014 26.2297 29.8014 26.2297C29.8014 26.2297 28.5078 24.4069 27.273 24.1129C26.2146 23.8777 22.863 24.5833 24.2154 28.5229C25.6854 32.8742 30.4482 32.2862 30.4482 32.2862C30.4482 32.2862 29.2722 33.7562 29.2722 34.2854C29.2722 34.2854 25.1562 31.0513 22.863 30.5809C21.981 30.4045 18.5117 30.5221 18.3353 33.6974C18.1589 37.8134 21.2753 38.225 22.1574 38.2838C22.3338 38.1662 22.3926 38.2838 22.3926 38.2838C22.3926 38.2838 22.275 38.2838 22.1574 38.2838C21.981 38.4014 21.687 38.813 21.0989 39.7538C19.9817 41.753 20.9813 44.2815 22.2162 46.6335C23.2746 48.5739 21.5105 49.5735 21.5105 49.5735C21.5105 49.5735 22.3926 49.6323 23.157 48.6915C23.8626 47.7507 23.0982 45.9867 22.0986 43.8111C21.0989 41.5766 23.2746 38.9894 24.9798 39.107C27.0378 39.2246 28.8606 37.8722 28.743 37.9898C28.6254 38.1074 26.7438 39.2834 27.3906 42.6938C27.9198 45.3987 29.919 45.8691 29.919 45.8691C29.919 45.8691 29.331 46.5159 28.0374 49.1031C27.0378 51.0435 26.097 52.9839 29.1546 57.688C32.2122 62.392 26.4498 63.4504 28.6842 62.8036C31.683 61.9804 30.8598 58.276 30.3306 57.3352C29.5662 55.8652 28.5078 53.8071 29.1546 51.6315C29.8014 49.4559 31.9182 45.8691 31.9182 45.8691C31.9182 45.8691 33.5646 47.2803 32.9766 49.7499C32.9766 49.8675 33.0354 49.9851 33.0354 50.1027C33.2706 50.2791 33.2706 50.6907 33.153 50.9259C33.3294 50.9259 33.5058 50.9847 33.5646 51.1611C33.6822 51.3963 33.6822 51.6315 33.6822 51.8667C33.6822 52.1607 33.5058 52.3371 33.3294 52.3959C33.3882 52.6311 33.3882 52.8663 33.3882 53.0427C33.3882 53.5719 33.3882 54.0423 33.3882 54.5715C34.0351 55.5123 36.9163 59.5696 36.9163 59.5696C36.9163 59.5696 36.9163 59.6284 36.9163 59.746C37.2103 60.2752 39.2095 63.7444 41.4439 64.6852C43.0315 65.3908 45.0307 64.45 45.8539 63.274C46.3832 62.5684 48.0296 60.5104 48.5588 59.8636C48.5588 59.8048 48.5588 59.746 48.5588 59.746C48.5588 59.746 50.4404 58.0408 51.44 56.6296V56.5708C51.44 56.1592 51.5576 55.7475 51.6752 55.3359C51.5576 55.2183 51.44 55.1007 51.44 54.8655C51.44 54.2775 51.6164 53.7483 51.734 53.2191C51.9104 52.6311 51.8516 52.0431 51.9104 51.4551C51.9104 51.3375 51.9692 51.2787 51.9692 51.2199C51.9692 50.3967 51.9692 49.7499 51.9692 49.7499C51.9692 49.7499 52.4396 44.1051 53.5568 44.9283C54.674 45.7515 55.262 48.9267 54.8504 51.0435C54.4388 53.1603 53.204 56.4532 55.85 58.8052C59.1429 61.6276 56.3792 61.9216 56.4968 61.9216C57.9668 62.392 58.9076 60.5104 56.6144 58.57C54.7916 56.9824 55.4384 54.1599 56.438 50.8083C56.9672 49.1031 55.9676 46.2219 55.3796 44.3991C54.968 43.1642 55.0268 43.1642 54.7328 42.1646C54.4388 41.3414 55.1444 42.1646 55.556 41.4002C56.0264 40.5182 55.85 38.2838 55.9676 38.6954C56.8496 41.4002 60.6129 41.5766 62.3181 37.637C64.1409 33.7562 63.0825 28.4053 59.6133 26.2297Z" fill="white"/>
<path d="M41.5042 64.803C39.2698 63.8034 37.2706 60.393 36.9766 59.8638C37.0354 60.3342 37.3294 61.8042 37.5058 63.6858C38.5642 65.979 37.8586 71.6239 37.8586 71.6239C37.8586 71.6239 37.8586 71.6239 38.0938 71.1535C38.329 70.6831 38.8582 68.5074 38.9758 67.449C39.0934 66.3906 39.0346 65.4498 40.5634 67.3314C42.445 69.6247 44.503 68.0958 45.5614 66.861C46.5022 65.8026 46.7374 67.449 46.7374 67.449L47.737 71.9179C47.737 71.9179 47.443 68.625 47.6782 66.4494C47.8546 65.0382 48.0899 64.0386 48.2663 63.4506C48.3839 61.6866 48.5603 60.3342 48.6191 59.9814C48.0898 60.6282 46.4434 62.6862 45.9142 63.3918C45.091 64.509 43.1506 65.4498 41.5042 64.803Z" fill="#3A3A3A"/>
<path d="M40.7379 44.3991C41.7375 44.8107 42.1491 45.9279 41.6787 47.6919C40.8555 50.8671 37.8566 51.9255 35.8574 51.6903C33.6818 51.4551 31.1534 48.5151 30.8594 43.1643C35.7398 42.6938 38.4446 43.3995 40.7379 44.3991Z" fill="#3D3D3D"/>
<path d="M44.8538 44.3991C43.8542 44.8107 43.4426 45.9279 43.913 47.6919C44.7362 50.8671 47.735 51.9255 49.7342 51.6903C51.9098 51.4551 54.4382 48.5151 54.7322 43.1643C49.8518 42.6938 47.147 43.3995 44.8538 44.3991Z" fill="#3D3D3D"/>
<path d="M43.7361 58.4525C43.2657 58.6289 43.0305 58.6877 42.9129 58.7465H42.8541H42.7953H42.7365H42.6777C42.5601 58.6877 42.3249 58.6289 41.8545 58.4525C41.1489 58.2173 39.4437 58.3937 38.7969 58.5113C39.0909 58.6289 39.3849 58.8053 39.5613 59.0993C40.0317 59.8049 40.8549 61.1573 42.6777 61.0985C44.5593 61.1573 45.3237 59.8049 45.7941 59.0993C46.0293 58.7465 46.3233 58.6289 46.6173 58.5113C46.0881 58.3937 44.3829 58.2173 43.7361 58.4525Z" fill="#828282"/>
<path d="M41.2107 58.0997C41.8575 57.9232 42.5043 57.8645 42.7395 57.8645C43.0335 57.8057 43.5627 57.8056 44.1507 57.9821C45.0915 58.2761 46.5027 58.2173 46.3851 57.8645C46.1499 57.7469 45.9147 57.5117 45.3855 57.1588C44.7387 56.6884 43.7391 56.6296 43.6803 56.6296C43.5627 56.9236 43.0335 57.1 42.7983 57.1C42.5631 57.1 42.0339 56.9236 41.9163 56.6296C41.7987 56.6296 40.8579 56.6296 40.2111 57.1588C39.7407 57.5117 39.5055 57.7469 39.2703 57.8645C39.1527 58.1585 40.2699 58.3937 41.2107 58.0997Z" fill="#828282"/>
<path d="M47.3246 57.982C47.3246 57.688 46.8542 57.982 46.6778 57.982C46.619 57.982 46.5014 57.9821 46.4426 57.9232C46.3838 58.2761 45.149 58.2761 44.2082 57.9232C43.5614 57.688 43.091 57.7468 42.8558 57.8056C42.5618 57.7468 42.0914 57.7468 41.5034 57.9232C40.5037 58.2761 39.2101 58.276 39.2689 57.8644C39.1513 57.9232 39.0925 57.9232 38.9749 57.982C38.7985 57.982 38.3281 57.7468 38.3281 57.982C38.3281 58.3348 38.5633 58.4525 38.9161 58.6289C39.5629 58.5113 41.2682 58.276 41.9738 58.57C42.4442 58.7465 42.6794 58.8641 42.797 58.9229H42.8558H42.9146H42.9734H43.0322C43.1498 58.8641 43.385 58.7465 43.8554 58.57C44.5022 58.276 46.1486 58.5113 46.8542 58.6289C47.0894 58.4525 47.3246 58.3348 47.3246 57.982Z" fill="#3D3D3D"/>
<path d="M43.324 59.5696C43.324 59.746 43.0888 59.8636 42.7948 59.8636C42.5008 59.8636 42.2656 59.746 42.2656 59.5696C42.2656 59.3932 42.5008 59.2756 42.7948 59.2756C43.0888 59.2756 43.324 59.3932 43.324 59.5696Z" fill="white"/>
<path d="M43.1509 57.4528C43.1509 57.5116 42.9745 57.5704 42.7981 57.5704C42.6217 57.5704 42.4453 57.5116 42.4453 57.4528C42.4453 57.394 42.6217 57.3352 42.7981 57.3352C42.9745 57.3352 43.1509 57.394 43.1509 57.4528Z" fill="white"/>
<path d="M45.8522 52.6313C45.7346 51.8081 45.0878 51.4553 45.1466 51.5141C45.8522 52.2197 45.6758 53.5721 45.1466 53.8073C44.9702 53.8661 44.2646 54.1601 44.6762 53.9249C44.735 53.8661 44.9114 53.5721 44.7938 53.3369C44.6174 52.9841 44.147 52.8665 43.6177 53.5133C43.1473 54.1013 42.9121 53.9837 42.9121 53.9837C42.9121 53.9837 42.6769 54.1013 42.1477 53.5133C41.6773 52.9253 41.1481 52.9841 40.9717 53.3369C40.8541 53.5721 40.9717 53.7485 40.9717 53.8073C41.0893 53.9837 41.2657 54.0425 41.2657 54.0425C41.2069 54.0425 40.9717 54.0425 40.8541 53.9837C39.9721 53.7485 39.9133 52.3961 40.6189 51.6317C40.6189 51.5729 39.9721 51.8081 39.8545 52.6313C39.7369 53.2781 39.8545 54.2189 40.7365 54.5129C41.0305 54.6305 41.7361 54.5717 42.1477 54.7481C42.4417 54.8657 43.3237 54.8069 43.4413 54.7481C43.7942 54.5129 44.0882 54.4541 44.7938 54.4541C45.617 54.4541 45.9698 53.3369 45.8522 52.6313Z" fill="#3D3D3D"/>
<path d="M55.5547 27.8765C55.5547 27.8172 55.614 27.8172 55.5547 27.8765C55.5547 27.8172 55.5547 27.8172 55.5547 27.8765Z" fill="#3D3D3D"/>
<path d="M35.0338 41.3415C35.0338 41.3415 35.0926 41.1651 35.2102 40.9299C34.681 40.9887 34.2106 40.9887 33.6814 41.0475C33.3874 41.8119 33.211 42.3999 33.1522 42.5763C36.6214 42.4587 38.797 43.0467 40.6786 43.87C40.6198 43.576 39.9142 42.4587 39.9142 42.4587C38.5618 41.8119 35.0338 41.3415 35.0338 41.3415Z" fill="#3D3D3D"/>
<path d="M51.7937 41.2238C51.6173 41.165 51.4409 41.165 51.2645 41.1062C51.2645 41.165 51.3233 41.2238 51.3233 41.2238C51.3233 41.2238 51.1469 41.165 50.7353 41.2238C48.7949 41.5766 45.5021 42.635 45.5021 42.635L44.9141 43.9286C46.9133 43.0466 49.3241 42.3998 53.2049 42.635C53.0873 42.341 52.9697 41.9294 52.7345 41.3414C52.4405 41.3414 52.0877 41.2826 51.7937 41.2238Z" fill="#3D3D3D"/>
<path d="M61.9054 36.5787C62.4347 35.4614 62.4935 33.8738 62.4935 33.8738C62.4935 33.8738 61.435 37.8723 59.0242 37.8723C57.3778 37.8723 57.025 37.1079 57.1426 37.1079C58.789 37.5783 62.0818 36.4611 62.0818 31.5806C62.0818 31.5806 61.4938 35.873 57.3778 35.7554C55.3786 35.6966 55.6726 34.109 55.6726 34.109C57.4366 34.5794 58.7302 32.9918 58.7302 32.9918C57.025 33.6974 55.555 33.5798 54.6142 31.5806C54.085 30.4634 54.7906 29.0522 55.4374 28.8758C56.143 28.6406 54.967 28.9934 54.5554 28.8758C54.1438 28.7582 55.3786 27.935 55.555 27.8174C55.3786 27.8762 54.673 28.0526 54.5554 27.935C54.4378 27.8174 55.0258 27.2294 55.0258 27.2294C55.0258 27.2294 53.2618 28.229 53.0266 28.9934C53.0266 28.9934 52.9678 28.817 52.909 28.817C53.0266 27.641 52.8502 26.4062 52.4386 25.583C52.2034 25.1714 51.3214 24.7598 51.145 25.7594C50.9686 26.7002 52.321 28.2878 52.7326 28.9934C52.4386 29.111 51.0274 26.9354 50.851 26.4062C50.3806 25.1126 51.3214 24.4658 51.3214 24.4658C51.2626 24.5246 51.145 24.3481 50.7922 24.4658C50.6158 24.5246 51.2626 23.8777 51.2626 23.8777C51.0862 23.8777 50.851 23.9953 50.7334 23.9953C50.4982 23.9365 51.3214 23.3485 51.3214 23.3485C51.3214 23.3485 51.0862 23.1721 50.557 23.5249C50.0278 23.8777 49.7925 25.1714 50.0865 25.877C50.2041 26.171 50.3806 26.8178 50.3806 26.8178C50.3806 26.8178 49.7925 26.5826 49.9689 26.6414C51.0862 27.4646 51.2626 28.6406 51.2626 28.6406C50.851 28.4642 50.2042 28.1114 50.2042 28.1702C50.263 28.4054 52.2034 29.5814 52.027 29.7578C51.8506 29.9342 51.5566 29.9342 51.3214 30.1106C51.3214 30.1106 52.4974 30.0518 52.9678 30.6986C53.4382 31.3454 52.7914 32.5214 52.7914 32.5214C52.7914 32.5214 53.2618 31.9334 53.8498 32.4038C54.7318 33.1094 54.2026 34.1678 54.085 34.403C53.9674 34.6382 54.5554 34.0502 54.673 34.109C55.1434 34.1678 54.8494 36.167 54.8494 36.6375C54.8494 36.7551 55.0258 36.167 55.2022 36.2258C55.555 36.3434 55.4962 37.6371 55.4962 38.1075C55.4962 38.2839 55.4962 38.5191 55.4962 38.7543C55.4962 38.8131 55.4962 38.8131 55.4962 38.8719C55.4374 39.1659 55.2022 40.2243 54.8494 39.4599C54.7318 39.1659 54.7318 38.8131 54.7906 38.5191C54.9082 38.1663 55.0258 37.8723 55.0846 37.4607C55.1434 37.0491 55.261 36.5786 55.2022 36.167C55.1434 36.5198 55.0258 37.4019 54.673 37.6371C54.2026 37.9311 53.8498 37.1667 53.791 36.8139C53.7322 36.461 53.7322 36.1082 53.7322 35.7554C53.7322 35.579 53.791 35.4614 53.7322 35.285C53.7322 35.2262 53.6734 35.1086 53.6734 35.1086C53.6734 35.1086 53.5558 35.7554 53.1442 35.579C52.7914 35.4614 53.0266 33.9326 53.1442 33.521C53.0854 33.6974 53.0266 34.109 52.7914 34.2266C52.4386 34.4618 52.1446 33.8738 52.1446 33.8738C50.9686 32.4038 49.2045 31.463 47.3229 31.5806C46.7937 31.6394 46.2057 31.757 45.6765 31.9922C45.7941 31.9334 45.7353 31.5806 45.8529 31.463C46.0293 31.2278 46.2645 31.1102 46.4997 31.0514C46.8525 30.9926 47.2641 30.875 47.5581 30.9926C47.2641 30.7574 46.7937 30.6398 46.3821 30.581C46.2057 30.581 45.9705 30.581 45.7941 30.581C45.7353 30.5222 45.5001 30.581 45.4413 30.3458C45.3237 29.8166 46.1469 29.6402 46.1469 29.6402C46.1469 29.6402 45.2649 29.8166 45.1473 29.0522C45.0885 28.4642 45.7353 28.4642 45.7353 28.4642C45.3825 28.2878 45.0885 28.1702 45.0885 27.8174C45.1473 27.2294 45.7353 27.1118 45.7353 27.1118C45.7353 27.1118 43.9125 26.4062 46.4997 25.1714C46.2645 25.289 44.9709 25.3478 44.4417 25.6418C44.1477 25.8182 44.7945 25.4654 44.7945 25.4654L45.0885 24.8774L42.3837 24.4658L41.3253 24.7598C41.3253 24.7598 41.7957 24.995 42.0309 25.5242C42.3249 26.2298 41.9133 26.2298 41.9133 26.2298C41.9133 26.2298 41.9133 26.2886 41.9721 26.465C42.0897 26.759 41.7957 26.8178 41.7957 26.8178C41.7957 26.8178 42.0897 26.8766 42.0897 27.2294C42.0309 27.7586 41.3841 28.1114 41.3841 28.1114C41.3841 28.1114 41.5605 28.2878 41.6193 28.3466C42.0309 28.6406 41.6193 29.3462 40.7373 29.4638C41.8545 29.699 41.7369 30.7574 40.2669 30.6986C38.5029 30.6986 34.1516 32.345 32.3876 36.4022C31.7996 37.6959 31.682 38.7543 31.5056 39.0483C31.2116 39.5775 30.9176 39.0483 30.8 38.8719C30.7412 38.5191 30.3296 36.2846 30.3884 35.4614C30.4472 34.8734 31.4468 35.2262 31.4468 35.2262C31.4468 35.2262 31.1528 33.9326 31.2704 33.5798C31.5056 32.933 33.152 31.8158 33.2696 31.757C33.2696 31.757 31.9172 31.8746 31.094 32.345C30.5648 32.6978 32.0348 31.0514 32.858 30.4634C33.74 29.8754 34.328 29.2874 34.328 29.2874C34.328 29.2874 33.0932 30.0518 32.0936 30.5222C32.2112 30.2282 32.6816 29.2286 33.446 28.523C33.6812 28.2878 34.328 27.641 34.328 27.641L34.6808 27.053H34.4456C34.4456 27.053 34.0928 27.8762 34.034 27.5234C33.9752 27.1706 33.5048 24.8774 31.6232 25.4654C31.2116 25.583 30.8588 25.8182 30.6236 26.171C30.506 26.4062 30.5648 26.5826 30.4472 26.6414C30.212 26.759 30.2708 25.9946 30.4472 25.7594C30.8588 25.289 30.0944 25.877 30.0356 26.1122C30.0356 26.171 29.8592 26.0534 30.0944 25.3478C30.1532 25.2302 29.6828 25.7006 29.7416 25.877C29.918 26.3474 29.624 26.6414 29.9768 27.6998C30.3296 28.7582 30.2708 29.5226 29.9768 29.5814C30.0356 28.5818 28.8596 26.465 27.7424 26.1122C27.6836 26.1122 26.3312 25.4654 25.6844 26.5238C25.2139 27.2294 24.9199 26.9354 24.6847 26.7002C24.3907 26.4062 24.2143 27.5822 24.7435 28.523C25.508 29.9342 25.3316 29.5226 25.5668 29.8754C25.7432 30.1106 25.9784 30.6986 25.3316 30.4046C24.6259 30.0518 26.1548 31.4042 26.1548 31.4042L27.7424 32.4038H30.0944L29.2712 33.9326V34.3442L27.272 33.2858L28.9772 35.1674C28.9772 35.1674 29.0948 35.285 29.036 35.4614L28.742 35.285C28.5068 35.1086 28.2716 34.9322 28.0364 34.7558C27.3308 34.2266 26.6252 33.6974 25.8608 33.227C25.3904 32.933 24.9199 32.6978 24.4495 32.5214C23.7439 32.2274 22.9795 32.1098 22.2739 32.345C22.0387 32.4038 21.8035 32.5214 21.6271 32.639C20.6863 33.2858 20.3923 34.7558 20.6275 35.7554C20.7451 36.2258 20.9215 36.5787 20.9215 36.5787C20.8039 36.7551 19.9807 36.6375 19.5691 36.167C19.1575 35.6966 19.0987 35.4026 19.0987 35.4026C19.0987 35.4026 19.0399 36.1082 19.8043 37.1079C20.3923 37.9311 20.8627 37.8135 20.5099 37.8135C20.1571 37.8135 19.9807 37.9899 19.9807 37.9899L20.4511 38.4015L21.6859 38.9895C21.6859 38.9895 21.6271 38.9895 21.7447 38.8719C22.1563 38.4015 22.9795 37.6371 24.2731 37.6371C25.0376 37.6371 25.8608 37.6371 26.2724 37.6959C27.2132 37.8135 28.8008 37.8723 28.8008 36.9903C29.2124 37.6959 28.5068 38.2839 28.3892 38.3427C28.2128 38.4015 27.7424 39.2247 27.7424 39.2247C27.7424 39.2247 28.5656 38.2251 29.0948 38.1663C29.624 38.1075 29.33 36.8139 29.7416 36.8727C30.0944 36.9315 30.6236 38.3427 30.8 38.7543C30.8588 39.2835 31.1528 41.1063 30.6236 40.9299C29.9768 40.6947 29.6828 39.4011 29.6828 39.4011C29.5652 39.9891 29.9768 40.9299 30.212 41.2239C30.8 41.8707 30.2708 42.0471 29.8004 41.6355C29.0948 40.9299 28.8596 39.4599 28.8596 39.4599C28.5656 40.2243 29.0948 41.8707 29.4476 42.3999C29.8004 42.9291 29.4476 43.2231 29.33 43.2231C28.5068 43.2231 28.0952 40.2243 28.0952 40.2243C28.0952 40.2243 27.6836 40.9299 28.0364 42.9291C28.3304 44.6343 29.8004 45.8691 29.8004 45.8691L29.9768 46.0455C29.9768 46.0455 29.9768 46.0455 30.0944 45.8691C30.506 45.2811 30.8 44.2227 31.0352 43.1055C31.094 42.9291 31.0352 42.6351 30.9764 42.4587H31.2704C31.682 40.6947 32.0348 38.7543 32.4464 37.6959C33.5048 34.8146 35.8568 33.1094 37.7384 32.5214C39.8553 31.8158 41.9721 32.5802 41.7369 33.3446C41.6781 33.4622 41.7369 33.4034 41.5605 33.4034C35.9744 34.2266 33.74 41.0475 33.3284 42.3411C33.446 42.2823 33.5048 42.2235 33.6812 42.2235C34.1516 42.2235 34.5632 42.3411 35.0336 42.3411H35.0924C37.0328 42.0471 38.6793 42.8703 40.5609 43.2231C40.3257 42.8115 40.0905 42.3999 40.0905 42.3999C38.7381 41.6943 35.21 41.2827 35.21 41.2239C35.1512 41.2239 35.6216 40.3419 35.6804 40.2831C35.9156 39.9303 36.2096 39.5187 36.5036 39.1659C37.0916 38.4603 37.7385 37.8135 38.3853 37.2255C38.6205 36.9903 38.9145 36.8139 39.2085 36.6375C40.0317 36.1082 41.0313 35.6966 41.9133 35.285C42.1485 35.1674 42.3249 35.1086 42.5601 34.991C42.7365 34.9322 43.6773 34.4618 43.6773 34.4618C43.6773 34.4618 43.2657 34.2854 43.2657 34.1678C43.2657 34.109 43.0893 34.1678 43.3833 33.4034C43.7949 32.345 43.7949 29.7578 43.7949 29.7578V29.0522C43.9713 29.111 43.9125 31.2866 43.9125 31.9922C43.9125 32.1098 43.9125 32.2274 43.9125 32.2274C43.8537 34.4618 45.0885 35.873 45.1473 35.6378C45.2649 35.1674 46.0293 34.697 47.8521 35.9906C50.0865 37.5783 51.439 40.9887 51.439 40.9887C51.439 40.9887 51.2626 40.9299 50.851 40.9887C48.9105 41.3415 45.6177 42.3999 45.6177 42.3999L45.2061 43.3407C47.1465 42.4587 49.4397 42.3411 51.439 41.8119C51.7918 41.6943 52.0858 41.9295 52.1446 42.2235C52.4974 42.1647 52.909 42.1647 53.2618 42.2235C52.6738 40.5183 50.2041 34.0502 47.3817 33.4622C47.1465 33.4034 48.9105 34.3442 48.6753 34.7558C48.6753 34.7558 46.2057 33.0506 44.7357 33.8738C44.6769 33.9326 44.9709 32.933 45.5589 32.5214C46.0881 32.1098 47.2053 31.6394 49.1457 32.2862C50.7334 32.7566 51.9682 34.0502 52.7326 35.4614C53.791 37.3431 54.2026 39.5187 54.7906 41.5767C54.9082 41.9295 55.0258 42.2823 55.1434 42.5763C55.261 42.8703 55.7314 41.3415 55.7314 41.3415C55.3786 41.7531 55.1434 41.5179 55.261 40.9887C55.261 40.8711 55.3786 40.8123 55.4962 40.4595C55.4962 40.4007 55.4962 40.4007 55.4962 40.3419C55.7902 39.8715 55.849 38.0487 55.9078 37.4607C55.9078 37.2843 56.143 38.5779 56.143 38.5779C56.143 38.5779 56.2018 39.5187 57.025 40.0479C57.2602 40.2243 56.9074 39.7539 57.613 39.9891C58.495 40.2831 60.4354 40.3419 61.4938 38.2251C61.4938 38.2251 59.9062 39.7539 58.9066 39.1659C58.789 39.4011 60.6706 39.2247 61.9054 36.5787ZM26.39 37.2255C25.508 37.5195 23.9791 37.5195 23.5087 37.4607C22.9795 37.4019 22.2151 37.2255 21.8035 36.7551C21.3331 36.2258 20.8627 35.6378 20.9803 34.697C21.0391 34.3442 21.1567 34.109 21.1567 34.109C21.2155 34.3442 21.2155 34.9322 21.5095 35.6378C22.5091 37.9899 26.8604 36.8727 27.3896 36.5787C27.7424 36.3435 27.9188 36.2846 27.9188 36.2846C27.566 36.7551 27.2132 36.9903 26.39 37.2255ZM30.8588 27.641C30.9764 27.8762 31.1528 28.0526 31.3292 28.1114C32.1524 28.523 33.152 28.229 33.152 28.229C33.152 28.229 32.564 29.111 31.6232 28.817C31.3292 28.7582 31.0352 28.523 30.8 27.9938C30.6824 27.7586 30.6824 27.5234 30.8588 27.641ZM26.8604 30.0518C25.6844 29.2874 25.2728 28.2878 25.8608 27.2294C25.8608 27.2294 25.802 27.9938 25.9196 28.4054C26.5664 30.1106 29.8004 30.4046 29.8004 30.4046C29.8004 30.4046 29.8004 30.5222 29.8592 29.9342C30.0944 30.1694 30.3884 30.3458 30.7412 30.4634C31.5644 30.6986 31.5644 30.6398 31.5644 30.6398L31.7408 30.581C31.5056 30.6986 31.3292 30.7574 31.1528 30.8162C31.0352 30.9338 28.448 31.0514 26.8604 30.0518ZM40.3845 31.8746C39.8553 31.757 39.2085 31.6982 38.5029 31.6982C39.0909 31.5806 40.0905 31.463 40.3257 31.5806C40.6197 31.6982 40.4433 31.8158 40.3845 31.8746Z" fill="#3D3D3D"/>
<path d="M52.3207 28.817C52.3795 28.8758 52.3795 28.8758 52.3207 28.817C52.3207 28.8758 52.2619 28.817 52.2031 28.817H52.3207Z" fill="#3D3D3D"/>
<path d="M52.0879 50.6909L47.0898 61.863C47.0898 61.863 50.0299 58.2174 50.9707 57.2178C51.9115 56.2182 51.6175 56.2182 51.6175 56.2182L52.0879 50.6909Z" fill="#828282"/>
<path d="M38.7978 62.0392L33.3882 50.1615L32.9766 49.6323C32.9766 49.6323 33.2706 54.6304 33.447 54.8656C34.035 55.6888 33.9174 55.4536 34.4466 56.1592C34.9758 56.9236 38.7978 62.0392 38.7978 62.0392Z" fill="#828282"/>
<path d="M34.4453 56.6294L39.7962 63.509C39.7962 63.509 40.8546 65.2142 42.795 65.1554C44.5002 65.0966 45.6762 64.1558 46.911 62.3918C48.4398 60.2162 52.3795 55.8062 52.3795 55.8062" stroke="#3D3D3D" stroke-width="0.441004" stroke-miterlimit="10"/>
<path d="M31.918 24.9359C31.918 24.9359 32.9764 25.0535 33.2116 25.2887C33.4468 25.5239 33.8584 26.1707 33.8584 26.1707C33.8584 26.1707 33.5644 24.4067 34.0348 24.2303C34.5052 24.0539 33.2704 23.1719 33.2704 23.1719L32.8 23.4659C32.7412 23.4071 32.9764 24.8183 31.918 24.9359Z" fill="#3D3D3D"/>
<path d="M27.5096 23.701C27.5096 23.701 27.392 24.4655 27.392 24.7595C27.392 25.2887 26.9804 25.2887 26.804 25.5827C26.7452 25.6415 27.5096 25.5827 28.0388 25.8179C28.274 25.9355 28.6268 26.2295 28.6856 26.3471C28.6856 26.3471 28.568 25.8179 28.568 25.6415C28.6268 25.0535 28.9208 24.7595 28.9208 24.7007C28.9208 24.6419 28.3328 24.1127 28.3328 24.1127L27.98 24.0539L27.5096 23.701Z" fill="#3D3D3D"/>
<path d="M22.3339 40.9884C22.3339 40.9884 21.5107 42.282 21.4519 43.164C21.3931 44.046 21.4519 44.9868 21.4519 44.9868C21.4519 44.9868 21.6871 42.282 22.3927 42.9288C23.0983 43.5756 22.8631 42.1056 22.8631 42.1056L22.3339 40.9884Z" fill="#3D3D3D"/>
<path d="M29.4504 50.8667C29.4504 50.8667 27.5688 54.5711 29.6268 57.2759C29.6268 57.2759 28.686 54.8651 29.6856 54.0419C30.9792 52.9835 29.1564 52.5719 29.1564 52.5719L29.4504 50.8667Z" fill="#3D3D3D"/>
<path d="M42.562 16.5869C55.6157 16.5869 66.6702 25.1129 70.257 36.8142C66.9054 24.7013 55.7921 15.7637 42.562 15.7637C29.4495 15.7637 18.395 24.5249 14.9258 36.5202C18.6302 24.9953 29.6259 16.5869 42.562 16.5869Z" fill="white"/>
<path d="M20.2188 62.0397C25.5108 68.5665 33.5665 72.7414 42.5629 72.7414C50.795 72.7414 58.2038 69.2721 63.4371 63.7449C57.851 68.9781 50.6186 72.1534 42.6805 72.1534C33.9193 72.1534 25.9812 68.2725 20.2188 62.0397Z" fill="#3D3D3D"/>
<path d="M20.2188 62.5688C25.5108 69.0957 33.5665 73.2705 42.5629 73.2705C50.795 73.2705 58.2038 69.8013 63.4371 64.2741C57.851 69.5073 50.6186 72.6825 42.6805 72.6825C33.9193 72.6825 25.9812 68.8017 20.2188 62.5688Z" fill="white"/>
<path d="M102.07 17.5815H99.8359V69.5612H102.07V17.5815Z" fill="white"/>
<path d="M108.363 53.8026V45.159H112.185V54.3318C112.185 55.6843 112.715 56.3899 113.891 56.3899H114.185C115.302 56.3899 115.831 55.6843 115.831 54.3318V47.9814C115.831 46.6878 115.478 45.8646 114.537 45.1002L110.833 41.8661C109.128 40.3961 108.54 39.4553 108.54 37.1033V34.7513C108.54 31.0469 110.245 29.1064 113.479 29.1064H114.537C117.771 29.1064 119.535 31.0469 119.535 34.7513V39.1025H115.713V34.3985C115.713 33.1049 115.243 32.2817 114.243 32.2817H113.949C112.891 32.2817 112.479 33.1049 112.479 34.3985V36.6917C112.479 37.8677 112.656 38.4557 113.538 39.1613L117.242 42.3953C119.006 43.8654 119.712 44.9826 119.712 47.3934V53.7438C119.712 57.6247 117.948 59.5651 114.596 59.5651H113.479C110.127 59.6239 108.363 57.6835 108.363 53.8026Z" fill="white"/>
<path d="M125.767 59.6242C123.238 59.6242 121.709 58.1542 121.709 54.6261V32.87H119.945V29.2831H121.768V24.5791H125.649V29.2831H128.824V32.87H125.649V54.5085C125.649 55.5669 126.119 56.155 127.06 56.155C127.648 56.155 128.119 55.8609 128.413 55.6257V58.7422C128.06 59.1538 127.178 59.6242 125.767 59.6242Z" fill="white"/>
<path d="M137.057 57.3308C136.469 58.154 134.999 59.624 132.882 59.624C130.766 59.624 129.648 58.448 129.648 55.3903V49.0399C129.648 45.3943 131.589 43.689 134.764 43.689C135.764 43.689 136.469 43.983 137.057 44.2183V34.3986C137.057 33.105 136.587 32.2818 135.528 32.2818H135.234C134.176 32.2818 133.706 33.105 133.706 34.3986V41.043H129.884V34.5162C129.884 30.8705 131.589 29.0477 134.882 29.0477H135.94C139.233 29.0477 140.938 30.9881 140.938 34.6926V59.4476H137.292L137.057 57.3308ZM136.998 54.6259V47.1583C136.587 46.9819 136.058 46.7467 135.47 46.7467C134.176 46.7467 133.47 47.4523 133.47 48.8635V54.0379C133.47 55.3903 134 56.0371 135.058 56.0371C135.881 56.0371 136.587 55.3903 136.998 54.6259Z" fill="white"/>
<path d="M147.052 33.8695V59.4477H143.23V29.3419H146.758L146.935 30.9883C147.523 30.2239 148.875 29.0479 150.757 29.0479C152.639 29.0479 153.756 30.1651 153.756 33.1639V41.0431H149.934V34.6927C149.934 33.3991 149.522 32.7523 148.64 32.7523C147.993 32.6935 147.405 33.1639 147.052 33.8695Z" fill="white"/>
<path d="M158.521 58.5068C155.463 53.6852 154.758 50.9216 154.758 41.3959V29.3418H158.58V44.7475C158.58 49.4516 158.991 51.9212 159.932 54.0968L160.285 54.92H160.52L160.873 54.0968C161.814 51.9212 162.225 49.4516 162.225 44.7475V29.3418H166.047V41.3959C166.047 50.9804 165.283 53.6852 162.225 58.5068L161.637 59.4476H159.109L158.521 58.5068Z" fill="white"/>
<path d="M168.105 24.5201C168.105 23.0501 168.929 22.2856 170.399 22.2856C171.927 22.2856 172.751 23.1089 172.751 24.5201C172.751 25.9901 171.927 26.8133 170.399 26.8133C168.987 26.8133 168.105 25.9901 168.105 24.5201ZM168.458 29.3417H172.339V59.4475H168.458V29.3417Z" fill="white"/>
<path d="M178.806 33.9868V59.4474H174.984V29.3416H178.512L178.689 31.1056C179.218 30.3412 180.747 28.9888 182.922 28.9888C184.98 28.9888 186.156 30.106 186.156 33.1048V59.3886H182.276V34.516C182.276 33.2224 181.746 32.5168 180.688 32.5168C179.806 32.5756 179.1 33.2224 178.806 33.9868Z" fill="white"/>
<path d="M189.155 62.8581V60.2121C189.743 60.6825 191.331 61.5057 192.86 61.5057C194.859 61.5057 195.8 60.6237 195.8 58.9185V57.6249C195.329 58.0953 194.212 58.7421 192.625 58.7421C189.979 58.7421 188.273 57.2721 188.273 53.6264V34.1047C188.273 30.4003 190.684 29.0479 194.271 29.0479C197.211 29.0479 198.799 29.9299 199.563 30.5179V58.7421C199.563 62.9757 197.152 64.7985 193.859 64.7985C191.272 64.7985 189.508 63.5049 189.155 62.8581ZM195.682 54.7437V32.5759C195.271 32.3995 194.8 32.2231 194.212 32.2231C192.86 32.2231 192.154 32.9287 192.154 34.2811V52.6268C192.154 54.3909 192.86 55.2729 194.153 55.2729C194.8 55.3317 195.329 55.0377 195.682 54.7437Z" fill="white"/>
<path d="M202.799 31.6348V59.4474H202.094V29.3416H202.682L202.741 30.8116C203.329 29.9884 204.74 28.9888 206.563 28.9888C207.915 28.9888 208.856 29.518 209.326 30.8704C209.855 30.0472 211.267 28.9888 213.089 28.9888C214.912 28.9888 216.029 29.9884 216.029 32.3404V59.4474H215.324V32.3404C215.324 30.4588 214.501 29.6356 212.972 29.6356C211.443 29.6356 210.091 30.694 209.444 31.5172C209.503 31.7524 209.503 32.0464 209.503 32.3992V59.4474H208.797V32.3992C208.797 30.4588 207.974 29.6356 206.445 29.6356C204.857 29.6356 203.387 30.7528 202.799 31.6348Z" fill="white"/>
<path d="M218.789 55.743V32.8108C218.789 30.2236 220.141 28.9888 222.258 28.9888H222.729C224.904 28.9888 226.257 30.2236 226.257 32.8108V55.743C226.257 58.389 224.904 59.6238 222.729 59.6238H222.258C220.2 59.6238 218.789 58.389 218.789 55.743ZM222.67 58.977C224.61 58.977 225.551 57.8598 225.551 55.8606V32.752C225.551 30.8116 224.552 29.6356 222.611 29.6356H222.258C220.377 29.6356 219.436 30.8116 219.436 32.752V55.8606C219.436 57.9186 220.377 58.977 222.258 58.977H222.67Z" fill="white"/>
<path d="M235.606 57.8599C235.018 58.6243 233.607 59.624 231.784 59.624C229.961 59.624 228.785 58.6243 228.785 56.2723V32.5757C228.785 29.9885 230.373 28.9301 232.784 28.9301C234.077 28.9301 235.018 29.2829 235.606 29.5181V22.8737H236.312V59.4475H235.782L235.606 57.8599ZM235.606 56.9779V30.2825C235.018 29.9297 234.018 29.5769 232.901 29.5769C230.726 29.5769 229.491 30.4001 229.491 32.5169V56.2723C229.491 58.1539 230.314 58.9771 231.902 58.9771C233.489 58.9771 235.018 57.8599 235.606 56.9779Z" fill="white"/>
<path d="M243.135 59.6239H242.665C240.607 59.6239 239.195 58.3891 239.195 55.7431V32.8109C239.195 30.2237 240.548 28.9889 242.723 28.9889H243.194C245.311 28.9889 246.722 30.2237 246.722 32.8109V39.279H239.96V55.8607C239.96 57.9187 240.901 58.9771 242.782 58.9771H243.194C245.134 58.9771 246.075 57.8599 246.075 55.8607V45.0414H246.781V55.7431C246.604 58.3891 245.252 59.6239 243.135 59.6239ZM239.842 38.6322H245.899V32.7521C245.899 30.8117 244.899 29.6357 243.017 29.6357H242.665C240.724 29.6357 239.783 30.8117 239.783 32.7521V38.6322H239.842Z" fill="white"/>
<path d="M249.66 22.8737H250.366V59.4475H249.66V22.8737Z" fill="white"/>
<path d="M253.422 55.7431V45.0414H254.127V55.8607C254.127 57.9187 255.068 58.9771 256.95 58.9771H257.362C259.302 58.9771 260.243 57.8599 260.243 55.8607V49.8631C260.243 47.3934 260.125 46.2174 258.538 44.3358L255.127 39.9846C254.01 38.6322 253.598 37.7502 253.598 35.4569V32.8109C253.598 30.2237 254.951 28.9889 256.891 28.9889H257.362C259.42 28.9889 260.772 30.2237 260.772 32.8109V39.279H260.066V32.7521C260.066 30.8117 259.126 29.6357 257.303 29.6357H256.95C255.186 29.6357 254.304 30.8117 254.304 32.7521V35.3981C254.304 37.6326 254.657 38.3382 255.715 39.6906L259.126 44.0418C260.654 45.9234 260.89 47.1582 260.89 49.6867V55.7431C260.89 58.3891 259.537 59.6239 257.362 59.6239H256.891C254.833 59.6239 253.422 58.3891 253.422 55.7431Z" fill="white"/>
</g>
<defs>
<clipPath id="clip0_965_19427">
<rect width="261" height="89" fill="white"/>
</clipPath>
</defs>
</svg>
