<svg width="42" height="30" viewBox="0 0 42 30" fill="none" xmlns="http://www.w3.org/2000/svg">
<path d="M39.375 12.3751H2.625C1.17526 12.3751 0 13.5504 0 15.0001C0 16.4499 1.17526 17.6251 2.625 17.6251H39.375C40.8247 17.6251 42 16.4499 42 15.0001C42 13.5504 40.8247 12.3751 39.375 12.3751Z" fill="#E2DAD6"/>
<path d="M2.625 5.37512H39.375C40.8247 5.37512 42 4.19986 42 2.75012C42 1.30038 40.8247 0.125122 39.375 0.125122H2.625C1.17526 0.125122 0 1.30038 0 2.75012C0 4.19986 1.17526 5.37512 2.625 5.37512Z" fill="#E2DAD6"/>
<path d="M39.375 24.6251H2.625C1.17526 24.6251 0 25.8004 0 27.2501C0 28.6999 1.17526 29.8751 2.625 29.8751H39.375C40.8247 29.8751 42 28.6999 42 27.2501C42 25.8004 40.8247 24.6251 39.375 24.6251Z" fill="#E2DAD6"/>
</svg>
