<svg width="81" height="92" viewBox="0 0 81 92" fill="none" xmlns="http://www.w3.org/2000/svg">
<path d="M6.59979 80.2001C5.73512 76.2667 8.12958 72.4001 11.4552 71.9334C12.9185 71.7334 14.2487 72.2667 15.5125 72.9334C17.9069 74.1334 19.9023 75.9334 22.0307 77.5334C23.6935 78.7334 25.2899 80.0667 27.3517 80.5334C28.7485 80.8667 29.9457 80.4001 30.8769 79.3334C31.7416 78.3334 31.6751 77.1334 31.143 76.0001C30.0788 73.4667 28.2829 71.6001 26.1545 70.0667C22.0307 67.1334 18.2395 63.8667 15.3795 59.6001C13.3176 56.5334 11.9208 53.1334 12.1869 49.2667C12.4529 45.3334 13.9827 42.0667 17.1088 39.7334C20.1684 37.4001 23.361 37.8001 26.4871 39.7334C29.1476 41.4001 31.143 43.9334 33.0053 46.4667C35.9319 50.5334 38.5259 54.8667 41.8515 58.6001C43.9134 60.9334 46.1083 63.0001 48.9684 64.2667C52.4935 65.8667 55.6862 64.9334 57.6815 61.6667C58.9453 59.6667 58.8123 57.6667 57.4155 55.8001C56.0852 54.0667 54.2894 52.8667 52.427 51.7334C49.3675 49.8667 46.0418 48.5334 42.7827 47.0001C39.058 45.2667 35.3998 43.3334 32.5397 40.2001C29.4802 36.8001 27.5513 33.0001 27.8173 28.2001C28.1499 21.9334 34.4686 15.8001 39.6566 16.3334C42.2506 16.6001 44.379 17.8001 46.2414 19.6001C49.0349 22.2667 50.9638 25.5334 52.6266 29.0001C54.2894 32.4667 56.6173 35.3334 59.8099 37.3334C61.4062 38.3334 63.0691 39.0001 64.9314 39.0001C65.8626 39.0001 66.8603 38.8667 67.2594 37.8001C67.725 36.6667 67.1929 35.8001 66.4612 35.0001C65.4635 34.0001 64.1998 33.3334 62.8695 32.7334C60.5416 31.6667 58.3467 30.4667 56.4843 28.6001C53.9568 26.1334 52.9591 23.1334 53.5578 19.6001C53.6908 19.0001 53.6243 18.4667 53.3582 17.9334C52.7596 16.7334 52.8926 15.6667 53.4247 14.5334C53.8903 13.6001 54.4889 12.8001 55.0875 11.9334C55.8192 10.9334 56.1517 9.60008 57.615 9.26675C58.0141 9.20008 58.2802 8.66675 58.5462 8.33341C59.2778 7.66675 59.943 6.86675 61.0737 7.40008C62.803 8.13341 63.0026 8.46675 63.0026 10.2667C63.0026 11.2667 62.7365 12.2667 63.4016 13.1334C63.4681 13.2667 63.5347 13.6001 63.4016 13.6667C62.4039 14.9334 62.67 16.6001 62.1379 18.0001C61.6058 19.2667 61.0072 20.4667 59.6104 20.8001C58.9453 20.9334 58.8123 21.4001 58.9453 22.0667C59.1448 23.1334 59.7434 23.8667 60.4751 24.5334C61.8718 25.6667 63.5347 26.3334 65.1975 27.1334C67.1263 28.0001 69.1217 28.8667 70.718 30.3334C73.3785 32.8001 74.7088 35.8667 73.5781 39.5334C72.4474 43.2667 69.7203 45.3334 66.0621 45.8667C60.8076 46.6001 56.4843 44.3334 52.6931 40.8667C50.3651 38.7334 48.5693 36.1334 47.106 33.2667C45.9088 30.8667 44.7116 28.4667 42.9157 26.4667C41.918 25.3334 40.8538 24.2667 39.324 24.1334C36.5305 23.8667 34.003 27.2667 34.7347 30.2001C35.3333 32.7334 36.9961 34.4667 38.7919 36.1334C41.8515 38.8667 45.4432 40.4001 49.1014 41.9334C52.8926 43.5334 56.7504 45.0667 60.076 47.7334C62.4039 49.6001 64.3328 51.8667 65.397 54.7334C67.0598 59.3334 66.0621 63.4667 63.2021 67.1334C60.0095 71.3334 55.8192 73.6001 50.6312 73.0667C46.84 72.7334 43.6474 70.9334 40.6543 68.5334C36.1979 64.9334 32.8723 60.3334 29.6132 55.6001C28.2829 53.6667 26.8862 51.7334 25.5559 49.8001C25.0238 49.0667 24.4252 48.4667 23.627 48.0667C21.9642 47.0667 20.5009 47.8667 20.3014 49.8667C20.1684 51.3334 20.5009 52.6667 21.0996 54.0001C22.5628 57.5334 25.0903 60.2667 27.9504 62.6667C30.5444 64.8667 33.1384 67.0667 35.2002 69.8667C36.9961 72.2667 37.9938 75.0001 37.4617 78.0667C36.5305 83.4001 32.0076 86.1334 27.0192 84.5334C24.4917 83.7334 22.4963 82.0667 20.5675 80.3334C18.9046 78.8001 17.3083 77.1334 15.5125 75.8001C14.7143 75.2001 13.9162 74.6667 12.985 74.3334C10.524 73.3334 8.72819 74.1334 7.66399 76.6667C7.33143 77.8001 7.06538 78.8667 6.59979 80.2001Z" fill="#212121"/>
</svg>
