<svg width="11" height="10" viewBox="0 0 11 10" fill="none" xmlns="http://www.w3.org/2000/svg">
<path d="M10.0792 1.90997C9.71557 2.07812 9.32495 2.19129 8.91494 2.24233C9.33369 1.98119 9.65477 1.56772 9.80601 1.07472C9.41462 1.31647 8.98068 1.49215 8.51862 1.58711C8.14889 1.1768 7.62223 0.92041 7.03933 0.92041C5.9199 0.92041 5.01249 1.86565 5.01249 3.03089C5.01249 3.19627 5.03073 3.3577 5.06493 3.51162C3.38046 3.42378 1.88711 2.58339 0.886992 1.30618C0.712959 1.61797 0.613023 1.9804 0.613023 2.36775C0.613023 3.09973 0.970589 3.74585 1.51435 4.12411C1.18224 4.11303 0.869513 4.01807 0.596303 3.8602C0.596303 3.8693 0.596303 3.87761 0.596303 3.88671C0.596303 4.9095 1.29472 5.76255 2.22226 5.95603C2.05241 6.00431 1.87305 6.03002 1.688 6.03002C1.55767 6.03002 1.43037 6.01657 1.30688 5.99244C1.56489 6.83085 2.31346 7.44136 3.20034 7.45837C2.50687 8.02457 1.6329 8.36207 0.68294 8.36207C0.519546 8.36207 0.358053 8.35218 0.199219 8.3324C1.09636 8.93104 2.16146 9.28041 3.30636 9.28041C7.03477 9.28041 9.07302 6.06445 9.07302 3.27541C9.07302 3.18401 9.07112 3.093 9.06732 3.0024C9.46364 2.70446 9.80753 2.33293 10.0792 1.90997Z" fill="white"/>
</svg>
